<svg width="482" height="289" xmlns="http://www.w3.org/2000/svg" xmlns:xlink="http://www.w3.org/1999/xlink" overflow="hidden"><defs><clipPath id="clip0"><rect x="108" y="247" width="482" height="289"/></clipPath></defs><g clip-path="url(#clip0)" transform="translate(-108 -247)"><g><path d="M0 0 0.000104987 258" stroke="#BFBFBF" stroke-linejoin="round" stroke-miterlimit="10" fill="none" fill-rule="evenodd" transform="matrix(1 0 0 -1 349.5 520.5)"/></g><g><path d="M128.5 391.5 571.5 391.5" stroke="#BFBFBF" stroke-linejoin="round" stroke-miterlimit="10" fill="none" fill-rule="evenodd"/></g><g><path d="M349.826 391.295C349.854 391.294 349.883 391.293 349.91 391.292 349.937 391.292 349.948 391.292 349.987 391.292 350.025 391.292 350.063 391.292 350.14 391.292 350.217 391.292 350.294 391.292 350.447 391.292 350.601 391.292 350.754 391.292 351.061 391.292 351.368 391.292 351.675 391.292 352.289 391.292 352.903 391.292 353.518 391.292 354.745 391.292 355.972 391.292 357.203 391.292 359.653 391.292 362.102 391.292 364.583 391.293 369.442 391.292 374.302 391.291 381.427 391.32 388.809 391.286 396.19 391.251 404.967 391.395 413.731 391.083 422.495 390.771 436.781 389.692 441.391 389.414M525.721 337.941C525.801 341.353 526.78 352.469 526.205 358.411 525.63 364.353 525.857 369.326 522.269 373.594 518.68 377.862 511.304 381.69 504.673 384.021 498.042 386.351 492.267 386.441 482.483 387.577 472.7 388.712 459.898 390.214 445.973 390.834 432.048 391.453 414.507 391.216 398.933 391.293 383.359 391.37 367.62 391.294 352.53 391.296 337.44 391.297 322.491 391.299 308.396 391.3 294.301 391.301 280.608 390.804 267.96 391.302 255.311 391.799 243.241 382.422 232.503 394.284 221.766 406.146 210.864 446.516 203.535 462.472 196.988 476.724 191.278 486.732 188.529 490.018 186.452 492.501 186.093 486.843 185.07 484.546 183.554 481.141 181.072 475.248 179.436 469.592 177.801 463.936 176.239 459.173 175.259 450.61 174.278 442.048 173.446 425.938 173.552 418.218 173.649 411.156 173.908 407.873 175.896 404.289 178.07 400.37 181.974 396.825 186.593 394.705 191.211 392.584 196.17 392.13 203.609 391.564 211.047 390.999 219.455 391.36 231.223 391.312 242.99 391.264 259.25 391.277 274.213 391.277 289.176 391.276 305.602 391.314 321 391.309 336.398 391.303 351.887 391.48 366.602 391.245 381.316 391.01 395.763 390.831 409.284 389.9 422.805 388.97 441.321 386.368 447.728 385.662M487.838 344.441C489.976 337.087 498.526 307.672 500.664 300.319M516.753 297.505C517.662 300.383 520.581 306.313 522.209 314.778 523.838 323.242 526.525 338.662 526.524 348.292 526.523 357.923 525.742 366.632 522.203 372.561 518.664 378.49 511.842 381.399 505.29 383.865 498.739 386.331 492.217 386.21 482.893 387.357 473.568 388.504 462.728 390.117 449.345 390.746 435.962 391.375 418.129 391.015 402.596 391.131 387.064 391.246 371.284 391.435 356.149 391.439 341.014 391.443 325.979 391.156 311.785 391.157 297.592 391.157 283.773 391.062 270.987 391.443 258.201 391.824 245.98 381.999 235.068 393.443 224.155 404.887 213.112 443.848 205.514 460.108 198.145 475.876 192.612 486.587 189.479 491.005 188.064 493 186.779 488.757 186.127 487.44 184.637 484.434 182.212 478.348 180.542 472.968 178.872 467.587 177.332 463.662 176.109 455.157 174.886 446.653 173.441 429.625 173.202 421.939 173 415.451 173.273 412.741 174.674 409.04 176.334 404.657 179.118 398.529 183.159 395.639 187.201 392.749 192.182 392.414 198.923 391.7 205.664 390.985 219.49 391.41 223.604 391.352M307.542 391.328C315.224 391.316 338.674 391.354 353.635 391.255 368.595 391.156 383.388 391.394 397.303 390.734 411.218 390.074 424.714 389.958 437.125 387.295 449.537 384.631 464.701 377.822 471.769 374.753 475.254 373.239 477.749 373.407 479.535 368.879 483.16 359.697 489.322 333.32 493.513 319.656 497.704 305.992 502.104 292.906 504.681 286.897 505.747 284.411 508.179 283 508.974 283.603 510.895 285.061 514.143 291.042 516.207 295.645 518.27 300.247 519.719 304.209 521.357 311.219 522.995 318.23 525.603 328.253 526.037 337.708 526.471 347.163 527 360.447 523.962 367.948 520.924 375.45 514.155 379.54 507.809 382.719 501.462 385.898 494.791 385.776 485.882 387.022 476.973 388.268 467.414 389.505 454.354 390.196 441.293 390.886 423.094 390.972 407.519 391.165 391.944 391.359 376.118 391.343 360.904 391.356 345.69 391.368 331.124 391.279 316.234 391.24" stroke="#4472C4" stroke-width="2" stroke-linecap="round" stroke-linejoin="round" stroke-miterlimit="10" fill="none"/></g><g><text fill="#595959" font-family="Calibri,Calibri_MSFontService,sans-serif" font-weight="400" font-size="12" transform="translate(307.766 524)">-0.003</text></g><g><text fill="#595959" font-family="Calibri,Calibri_MSFontService,sans-serif" font-weight="400" font-size="12" transform="translate(307.766 481)">-0.002</text></g><g><text fill="#595959" font-family="Calibri,Calibri_MSFontService,sans-serif" font-weight="400" font-size="12" transform="translate(307.766 438)">-0.001</text></g><g><text fill="#595959" font-family="Calibri,Calibri_MSFontService,sans-serif" font-weight="400" font-size="12" transform="translate(332.706 395)">0</text></g><g><text fill="#595959" font-family="Calibri,Calibri_MSFontService,sans-serif" font-weight="400" font-size="12" transform="translate(311.439 351)">0.001</text></g><g><text fill="#595959" font-family="Calibri,Calibri_MSFontService,sans-serif" font-weight="400" font-size="12" transform="translate(311.439 308)">0.002</text></g><g><text fill="#595959" font-family="Calibri,Calibri_MSFontService,sans-serif" font-weight="400" font-size="12" transform="translate(311.439 265)">0.003</text></g><g><text fill="#595959" font-family="Calibri,Calibri_MSFontService,sans-serif" font-weight="400" font-size="12" transform="translate(123.667 410)">-1</text></g><g><text fill="#595959" font-family="Calibri,Calibri_MSFontService,sans-serif" font-weight="400" font-size="12" transform="translate(163.388 410)">-0.8</text></g><g><text fill="#595959" font-family="Calibri,Calibri_MSFontService,sans-serif" font-weight="400" font-size="12" transform="translate(207.663 410)">-0.6</text></g><g><text fill="#595959" font-family="Calibri,Calibri_MSFontService,sans-serif" font-weight="400" font-size="12" transform="translate(251.938 410)">-0.4</text></g><g><text fill="#595959" font-family="Calibri,Calibri_MSFontService,sans-serif" font-weight="400" font-size="12" transform="translate(296.213 410)">-0.2</text></g><g><text fill="#595959" font-family="Calibri,Calibri_MSFontService,sans-serif" font-weight="400" font-size="12" transform="translate(346.878 410)">0</text></g><g><text fill="#595959" font-family="Calibri,Calibri_MSFontService,sans-serif" font-weight="400" font-size="12" transform="translate(386.6 410)">0.2</text></g><g><text fill="#595959" font-family="Calibri,Calibri_MSFontService,sans-serif" font-weight="400" font-size="12" transform="translate(430.875 410)">0.4</text></g><g><text fill="#595959" font-family="Calibri,Calibri_MSFontService,sans-serif" font-weight="400" font-size="12" transform="translate(475.15 410)">0.6</text></g><g><text fill="#595959" font-family="Calibri,Calibri_MSFontService,sans-serif" font-weight="400" font-size="12" transform="translate(519.425 410)">0.8</text></g><g><text fill="#595959" font-family="Calibri,Calibri_MSFontService,sans-serif" font-weight="400" font-size="12" transform="translate(568.253 410)">1</text></g></g></svg>