<svg width="481" height="289" xmlns="http://www.w3.org/2000/svg" xmlns:xlink="http://www.w3.org/1999/xlink" overflow="hidden"><defs><clipPath id="clip0"><rect x="623" y="247" width="481" height="289"/></clipPath></defs><g clip-path="url(#clip0)" transform="translate(-623 -247)"><g><path d="M0 0 0.000104987 258" stroke="#BFBFBF" stroke-linejoin="round" stroke-miterlimit="10" fill="none" fill-rule="evenodd" transform="matrix(1 0 0 -1 864.5 520.5)"/></g><g><path d="M643.5 391.5 1085.5 391.5" stroke="#BFBFBF" stroke-linejoin="round" stroke-miterlimit="10" fill="none" fill-rule="evenodd"/></g><g><path d="M864.418 391.564C864.446 391.563 864.476 391.561 864.503 391.561 864.529 391.56 864.541 391.561 864.58 391.561 864.618 391.561 864.657 391.561 864.734 391.561 864.811 391.561 864.888 391.561 865.042 391.561 865.196 391.561 865.35 391.561 865.658 391.561 865.966 391.561 866.274 391.561 866.89 391.561 867.507 391.561 868.123 391.561 869.355 391.561 870.586 391.561 871.822 391.561 874.28 391.561 876.738 391.561 879.227 391.561 884.104 391.561 888.981 391.56 896.132 391.572 903.539 391.558 910.947 391.544 919.755 391.613 928.55 391.475 937.345 391.336 951.682 390.852 956.308 390.727M1039.08 331.902C1039.39 333.584 1040.55 336.904 1040.94 342.045 1041.33 347.21 1042 356.862 1041.42 362.897 1040.85 368.931 1041.07 374.094 1037.47 378.251 1033.87 382.407 1026.47 385.911 1019.81 387.836 1013.16 389.762 1007.36 389.217 997.546 389.804 987.728 390.39 974.881 391.062 960.906 391.357 946.932 391.652 929.329 391.539 913.7 391.573 898.071 391.607 882.275 391.56 867.132 391.56 851.989 391.56 836.986 391.565 822.841 391.573 808.696 391.581 794.955 391.028 782.262 391.607 769.568 392.185 757.455 383.276 746.68 395.046 735.904 406.815 724.963 446.008 717.608 462.226 710.652 477.564 705.47 488.656 702.55 492.354 700.219 495.304 700.225 488.483 699.078 485.681 697.557 481.968 695.065 475.871 693.424 470.077 691.783 464.283 690.216 459.816 689.232 450.917 688.247 442.019 687.413 424.346 687.519 416.687 687.602 410.708 688.169 407.962 689.872 404.963 692.053 401.121 695.971 395.875 700.606 393.632 705.241 391.389 710.218 391.824 717.682 391.506 725.147 391.188 733.585 391.739 745.394 391.723 757.203 391.708 773.521 391.416 788.537 391.414 803.553 391.411 820.037 391.714 835.49 391.709 850.942 391.704 866.487 391.463 881.253 391.382 896.02 391.301 910.518 391.787 924.087 391.221 937.656 390.655 950.743 391.503 962.668 387.986 974.593 384.47 988.929 376.843 995.638 370.122 1002.08 363.665 999.692 359.018 1002.92 347.662 1006.28 335.841 1012.02 308.98 1015.79 299.199 1018.34 292.595 1024.22 289.78 1025.58 288.977 1027.23 288 1027 290.454 1027.87 292.062 1028.93 294.019 1030.35 296.258 1031.94 300.72 1033.53 305.182 1035.78 310.121 1037.41 318.835 1039.05 327.549 1041.74 343.171 1041.74 353.004 1041.74 362.837 1040.96 372.056 1037.41 377.835 1033.85 383.614 1027.01 385.686 1020.43 387.675 1013.86 389.665 1007.31 389.167 997.957 389.771 988.599 390.375 977.72 390.999 964.29 391.298 950.86 391.597 932.964 391.522 917.376 391.567 901.788 391.611 885.953 391.565 870.764 391.565 855.575 391.565 840.487 391.567 826.243 391.568 811.999 391.568 798.131 391.309 785.3 391.568 772.468 391.827 760.204 382.569 749.253 393.123 738.302 403.677 727.219 438.237 719.594 454.892 711.969 471.547 706.745 487.695 703.503 493.053 701.719 496 700.961 488.851 700.138 487.04 698.644 483.748 696.209 478.426 694.534 473.302 692.858 468.178 691.313 464.791 690.085 456.296 688.857 447.802 687.408 429.692 687.168 422.335 687 417.196 687.482 415.397 688.645 412.159 690.311 407.523 693.105 397.887 697.161 394.524 701.216 391.161 706.215 392.49 712.98 391.981 719.745 391.472 727.37 391.518 737.748 391.469 748.127 391.419 761.212 391.689 775.251 391.684 789.29 391.679 806.486 391.438 821.984 391.439 837.482 391.439 853.227 391.708 868.24 391.684 883.254 391.66 897.456 391.423 912.064 391.293" stroke="#4472C4" stroke-width="2" stroke-linecap="round" stroke-linejoin="round" stroke-miterlimit="10" fill="none"/></g><g><text fill="#595959" font-family="Calibri,Calibri_MSFontService,sans-serif" font-weight="400" font-size="12" transform="translate(822.266 524)">-0.003</text></g><g><text fill="#595959" font-family="Calibri,Calibri_MSFontService,sans-serif" font-weight="400" font-size="12" transform="translate(822.266 481)">-0.002</text></g><g><text fill="#595959" font-family="Calibri,Calibri_MSFontService,sans-serif" font-weight="400" font-size="12" transform="translate(822.266 438)">-0.001</text></g><g><text fill="#595959" font-family="Calibri,Calibri_MSFontService,sans-serif" font-weight="400" font-size="12" transform="translate(847.206 395)">0</text></g><g><text fill="#595959" font-family="Calibri,Calibri_MSFontService,sans-serif" font-weight="400" font-size="12" transform="translate(825.939 351)">0.001</text></g><g><text fill="#595959" font-family="Calibri,Calibri_MSFontService,sans-serif" font-weight="400" font-size="12" transform="translate(825.939 308)">0.002</text></g><g><text fill="#595959" font-family="Calibri,Calibri_MSFontService,sans-serif" font-weight="400" font-size="12" transform="translate(825.939 265)">0.003</text></g><g><text fill="#595959" font-family="Calibri,Calibri_MSFontService,sans-serif" font-weight="400" font-size="12" transform="translate(638.167 410)">-1</text></g><g><text fill="#595959" font-family="Calibri,Calibri_MSFontService,sans-serif" font-weight="400" font-size="12" transform="translate(677.888 410)">-0.8</text></g><g><text fill="#595959" font-family="Calibri,Calibri_MSFontService,sans-serif" font-weight="400" font-size="12" transform="translate(722.163 410)">-0.6</text></g><g><text fill="#595959" font-family="Calibri,Calibri_MSFontService,sans-serif" font-weight="400" font-size="12" transform="translate(766.438 410)">-0.4</text></g><g><text fill="#595959" font-family="Calibri,Calibri_MSFontService,sans-serif" font-weight="400" font-size="12" transform="translate(810.713 410)">-0.2</text></g><g><text fill="#595959" font-family="Calibri,Calibri_MSFontService,sans-serif" font-weight="400" font-size="12" transform="translate(861.378 410)">0</text></g><g><text fill="#595959" font-family="Calibri,Calibri_MSFontService,sans-serif" font-weight="400" font-size="12" transform="translate(901.1 410)">0.2</text></g><g><text fill="#595959" font-family="Calibri,Calibri_MSFontService,sans-serif" font-weight="400" font-size="12" transform="translate(945.375 410)">0.4</text></g><g><text fill="#595959" font-family="Calibri,Calibri_MSFontService,sans-serif" font-weight="400" font-size="12" transform="translate(989.65 410)">0.6</text></g><g><text fill="#595959" font-family="Calibri,Calibri_MSFontService,sans-serif" font-weight="400" font-size="12" transform="translate(1033.93 410)">0.8</text></g><g><text fill="#595959" font-family="Calibri,Calibri_MSFontService,sans-serif" font-weight="400" font-size="12" transform="translate(1082.75 410)">1</text></g></g></svg>