<svg width="530" height="367" xmlns="http://www.w3.org/2000/svg" xmlns:xlink="http://www.w3.org/1999/xlink" overflow="hidden"><defs><clipPath id="clip0"><rect x="59" y="160" width="530" height="367"/></clipPath></defs><g clip-path="url(#clip0)" transform="translate(-59 -160)"><g><path d="M0 0 0.000104987 336" stroke="#BFBFBF" stroke-linejoin="round" stroke-miterlimit="10" fill="none" fill-rule="evenodd" transform="matrix(1 0 0 -1 324.5 511.5)"/></g><g><path d="M79.5001 343.5 570.5 343.5" stroke="#BFBFBF" stroke-linejoin="round" stroke-miterlimit="10" fill="none" fill-rule="evenodd"/></g><g><path d="M324.427 343.341C324.458 343.339 324.491 343.337 324.521 343.337 324.55 343.336 324.563 343.337 324.606 343.337 324.648 343.337 324.691 343.337 324.776 343.337 324.862 343.337 324.947 343.337 325.117 343.337 325.288 343.337 325.458 343.337 325.8 343.337 326.141 343.337 326.482 343.337 327.164 343.337 327.846 343.337 328.528 343.337 329.892 343.337 331.255 343.337 332.623 343.337 335.344 343.337 338.065 343.337 340.82 343.338 346.218 343.337 351.616 343.336 359.532 343.362 367.732 343.331 375.932 343.3 385.682 343.437 395.417 343.15 405.152 342.863 421.023 341.866 426.144 341.609M517.771 263.542C518.108 265.679 519.397 269.974 519.823 276.539 520.255 283.194 521 295.67 520.361 303.475 519.722 311.279 519.975 317.899 515.989 323.366 512.002 328.833 503.808 333.534 496.442 336.276 489.076 339.018 482.66 338.706 471.792 339.818 460.924 340.93 446.703 342.362 431.234 342.949 415.765 343.536 396.279 343.275 378.979 343.342 361.678 343.408 344.194 343.347 327.431 343.347 310.668 343.347 294.061 343.34 278.404 343.341 262.746 343.343 247.535 342.8 233.484 343.354 219.541 343.903 205.934 330.848 194.097 346.662 182.169 362.598 170.058 417.7 161.917 438.969 154.938 457.202 148.178 470.467 145.248 474.281 142.373 478.022 142.82 469.772 141.405 465.664 139.721 460.779 136.963 452.533 135.147 444.971 133.33 437.408 131.595 431.878 130.506 420.29 129.416 408.701 128.492 385.458 128.61 375.439 128.701 367.698 129.349 364.021 131.214 360.176 133.628 355.199 137.966 348.377 143.096 345.581 148.227 342.785 153.736 343.767 161.999 343.401 170.262 343.035 179.603 343.407 192.675 343.388 205.747 343.369 223.81 343.29 240.431 343.29 257.053 343.289 275.3 343.387 292.405 343.386 309.51 343.385 326.717 343.426 343.063 343.284 359.408 343.141 375.457 343.36 390.478 342.532 405.498 341.703 419.983 342.786 433.184 338.312 446.384 333.838 462.254 324.456 469.68 315.687 476.415 307.734 474.368 300.853 477.74 285.696 481.458 268.984 487.809 228.738 491.989 215.411 494.162 208.482 501.663 206.137 502.822 205.73 504.898 205 504.261 208.141 505.355 210.712 506.528 213.471 508.1 216.369 509.861 222.281 511.623 228.193 514.114 234.692 515.923 246.184 517.732 257.675 520.717 278.331 520.715 291.23 520.714 304.128 519.846 316.095 515.915 323.576 511.984 331.056 504.406 333.412 497.128 336.114 489.85 338.815 482.605 338.673 472.247 339.785 461.889 340.897 449.846 342.189 434.98 342.785 420.113 343.381 400.303 343.272 383.048 343.362 365.794 343.452 348.265 343.326 331.452 343.326 314.638 343.326 297.936 343.362 282.169 343.362 266.402 343.363 251.051 342.97 236.848 343.33 222.644 343.69 209.068 331.413 196.946 345.523 184.824 359.633 172.556 406.204 164.115 427.99 155.675 449.776 149.892 469.474 146.303 476.239 144.308 480 143.499 471.017 142.579 468.582 140.924 464.202 138.23 456.984 136.375 449.959 134.52 442.933 132.809 437.655 131.451 426.429 130.092 415.202 128.487 392.688 128.221 382.598 128 374.205 128.323 370.741 129.856 365.885 131.7 360.048 134.793 351.313 139.282 347.572 143.772 343.831 149.306 344.117 156.794 343.437 164.282 342.758 172.723 343.536 184.211 343.495 195.699 343.453 210.183 343.187 225.724 343.186 241.265 343.185 260.299 343.49 277.455 343.49 294.611 343.49 311.59 343.286 328.658 343.184" stroke="#4472C4" stroke-width="2" stroke-linecap="round" stroke-linejoin="round" stroke-miterlimit="10" fill="none"/></g><g><text fill="#595959" font-family="Calibri,Calibri_MSFontService,sans-serif" font-weight="400" font-size="12" transform="translate(282.516 515)">-0.003</text></g><g><text fill="#595959" font-family="Calibri,Calibri_MSFontService,sans-serif" font-weight="400" font-size="12" transform="translate(282.516 459)">-0.002</text></g><g><text fill="#595959" font-family="Calibri,Calibri_MSFontService,sans-serif" font-weight="400" font-size="12" transform="translate(282.516 403)">-0.001</text></g><g><text fill="#595959" font-family="Calibri,Calibri_MSFontService,sans-serif" font-weight="400" font-size="12" transform="translate(307.456 347)">0</text></g><g><text fill="#595959" font-family="Calibri,Calibri_MSFontService,sans-serif" font-weight="400" font-size="12" transform="translate(286.19 290)">0.001</text></g><g><text fill="#595959" font-family="Calibri,Calibri_MSFontService,sans-serif" font-weight="400" font-size="12" transform="translate(286.19 234)">0.002</text></g><g><text fill="#595959" font-family="Calibri,Calibri_MSFontService,sans-serif" font-weight="400" font-size="12" transform="translate(286.19 178)">0.003</text></g><g><text fill="#595959" font-family="Calibri,Calibri_MSFontService,sans-serif" font-weight="400" font-size="12" transform="translate(74.1667 362)">-1</text></g><g><text fill="#595959" font-family="Calibri,Calibri_MSFontService,sans-serif" font-weight="400" font-size="12" transform="translate(118.738 362)">-0.8</text></g><g><text fill="#595959" font-family="Calibri,Calibri_MSFontService,sans-serif" font-weight="400" font-size="12" transform="translate(167.863 362)">-0.6</text></g><g><text fill="#595959" font-family="Calibri,Calibri_MSFontService,sans-serif" font-weight="400" font-size="12" transform="translate(216.988 362)">-0.4</text></g><g><text fill="#595959" font-family="Calibri,Calibri_MSFontService,sans-serif" font-weight="400" font-size="12" transform="translate(266.113 362)">-0.2</text></g><g><text fill="#595959" font-family="Calibri,Calibri_MSFontService,sans-serif" font-weight="400" font-size="12" transform="translate(321.628 362)">0</text></g><g><text fill="#595959" font-family="Calibri,Calibri_MSFontService,sans-serif" font-weight="400" font-size="12" transform="translate(366.2 362)">0.2</text></g><g><text fill="#595959" font-family="Calibri,Calibri_MSFontService,sans-serif" font-weight="400" font-size="12" transform="translate(415.325 362)">0.4</text></g><g><text fill="#595959" font-family="Calibri,Calibri_MSFontService,sans-serif" font-weight="400" font-size="12" transform="translate(464.45 362)">0.6</text></g><g><text fill="#595959" font-family="Calibri,Calibri_MSFontService,sans-serif" font-weight="400" font-size="12" transform="translate(513.575 362)">0.8</text></g><g><text fill="#595959" font-family="Calibri,Calibri_MSFontService,sans-serif" font-weight="400" font-size="12" transform="translate(567.253 362)">1</text></g></g></svg>