<svg width="582" height="375" xmlns="http://www.w3.org/2000/svg" xmlns:xlink="http://www.w3.org/1999/xlink" overflow="hidden"><defs><clipPath id="clip0"><rect x="623" y="155" width="582" height="375"/></clipPath></defs><g clip-path="url(#clip0)" transform="translate(-623 -155)"><g><path d="M0 0 0.000104987 344" stroke="#BFBFBF" stroke-linejoin="round" stroke-miterlimit="10" fill="none" fill-rule="evenodd" transform="matrix(1 0 0 -1 914.5 514.5)"/></g><g><path d="M643.5 342.5 1186.5 342.5" stroke="#BFBFBF" stroke-linejoin="round" stroke-miterlimit="10" fill="none" fill-rule="evenodd"/></g><g><path d="M914.421 342.332C914.456 342.331 914.491 342.329 914.524 342.328 914.557 342.327 914.572 342.328 914.619 342.328 914.666 342.328 914.713 342.328 914.808 342.328 914.902 342.328 914.996 342.328 915.185 342.328 915.374 342.328 915.563 342.328 915.94 342.328 916.318 342.328 916.695 342.328 917.45 342.328 918.205 342.328 918.96 342.328 920.469 342.328 921.978 342.328 923.492 342.328 926.504 342.328 929.516 342.328 932.566 342.329 938.541 342.328 944.516 342.326 953.278 342.366 962.354 342.319 971.43 342.273 982.221 342.465 992.997 342.049 1003.77 341.633 1021.34 340.193 1027.01 339.822M1128.43 258.357C1128.79 260.423 1130.23 264.668 1130.7 271.146 1131.18 277.829 1132 290.53 1131.29 298.458 1130.59 306.386 1130.87 313.02 1126.45 318.715 1122.04 324.409 1112.97 329.517 1104.82 332.626 1096.66 335.735 1089.56 335.856 1077.53 337.371 1065.5 338.886 1049.76 340.89 1032.64 341.716 1015.52 342.543 993.951 342.227 974.802 342.329 955.653 342.432 936.3 342.331 917.746 342.333 899.192 342.334 880.81 342.337 863.479 342.339 846.148 342.34 829.313 341.677 813.76 342.341 798.207 343.004 783.366 330.494 770.164 346.32 756.961 362.146 743.556 416.009 734.544 437.297 726.529 456.232 719.46 469.683 716.094 474.049 713.515 477.395 713.111 469.845 711.841 466.748 709.977 462.206 706.924 454.343 704.914 446.797 702.903 439.251 700.983 432.895 699.777 421.471 698.571 410.047 697.548 388.553 697.679 378.252 697.798 368.85 698.122 364.441 700.561 359.668 703.233 354.44 708.034 349.71 713.713 346.881 719.392 344.051 725.489 343.446 734.636 342.691 743.782 341.937 754.12 342.418 768.589 342.354 783.058 342.29 803.051 342.308 821.449 342.307 839.847 342.307 860.044 342.357 878.977 342.35 897.91 342.343 916.956 342.578 935.048 342.265 953.14 341.952 970.904 341.712 987.53 340.471 1004.15 339.229 1020.19 342.52 1034.8 334.816 1049.41 327.112 1066.98 303.412 1075.2 294.246 1080.6 288.215 1081.41 287.856 1084.12 279.819 1088.23 267.603 1095.26 233.684 1099.89 220.95 1103.52 210.966 1109.95 205.329 1111.88 203.414 1113.31 202 1113.93 204.961 1114.68 206.29 1115.98 208.586 1117.72 211.536 1119.67 217.195 1121.62 222.854 1124.38 228.947 1126.38 240.241 1128.38 251.535 1131.69 272.108 1131.69 284.957 1131.68 297.806 1130.72 309.426 1126.37 317.337 1122.02 325.247 1113.63 329.129 1105.58 332.419 1097.52 335.709 1089.5 335.547 1078.04 337.077 1066.57 338.607 1053.24 340.76 1036.79 341.6 1020.33 342.439 998.405 341.958 979.307 342.112 960.208 342.266 940.806 342.518 922.196 342.524 903.586 342.53 885.099 342.146 867.647 342.147 850.195 342.148 833.204 342.021 817.483 342.53 801.761 343.038 786.734 329.929 773.317 345.198 759.899 360.467 746.32 412.448 736.978 434.143 727.941 455.128 721.105 469.487 717.262 475.366 715.541 478 713.934 472.349 713.14 470.611 711.309 466.6 708.326 458.479 706.273 451.301 704.22 444.122 702.327 438.885 700.823 427.538 699.318 416.191 697.542 393.473 697.248 383.218 697 374.569 697.337 370.94 699.058 366.008 701.099 360.16 704.522 351.984 709.492 348.128 714.461 344.272 720.586 343.825 728.874 342.872 737.162 341.919 746.505 342.506 759.221 342.408 771.937 342.311 787.969 342.29 805.17 342.285 822.372 342.279 843.44 342.377 862.43 342.376 881.418 342.375 900.71 342.41 919.104 342.278 937.499 342.146 954.9 341.815 972.798 341.583" stroke="#4472C4" stroke-width="2" stroke-linecap="round" stroke-linejoin="round" stroke-miterlimit="10" fill="none"/></g><g><text fill="#595959" font-family="Calibri,Calibri_MSFontService,sans-serif" font-weight="400" font-size="12" transform="translate(872.516 518)">-0.003</text></g><g><text fill="#595959" font-family="Calibri,Calibri_MSFontService,sans-serif" font-weight="400" font-size="12" transform="translate(872.516 460)">-0.002</text></g><g><text fill="#595959" font-family="Calibri,Calibri_MSFontService,sans-serif" font-weight="400" font-size="12" transform="translate(872.516 403)">-0.001</text></g><g><text fill="#595959" font-family="Calibri,Calibri_MSFontService,sans-serif" font-weight="400" font-size="12" transform="translate(897.456 346)">0</text></g><g><text fill="#595959" font-family="Calibri,Calibri_MSFontService,sans-serif" font-weight="400" font-size="12" transform="translate(876.189 288)">0.001</text></g><g><text fill="#595959" font-family="Calibri,Calibri_MSFontService,sans-serif" font-weight="400" font-size="12" transform="translate(876.189 231)">0.002</text></g><g><text fill="#595959" font-family="Calibri,Calibri_MSFontService,sans-serif" font-weight="400" font-size="12" transform="translate(876.189 174)">0.003</text></g><g><text fill="#595959" font-family="Calibri,Calibri_MSFontService,sans-serif" font-weight="400" font-size="12" transform="translate(638.167 361)">-1</text></g><g><text fill="#595959" font-family="Calibri,Calibri_MSFontService,sans-serif" font-weight="400" font-size="12" transform="translate(687.938 361)">-0.8</text></g><g><text fill="#595959" font-family="Calibri,Calibri_MSFontService,sans-serif" font-weight="400" font-size="12" transform="translate(742.263 361)">-0.6</text></g><g><text fill="#595959" font-family="Calibri,Calibri_MSFontService,sans-serif" font-weight="400" font-size="12" transform="translate(796.588 361)">-0.4</text></g><g><text fill="#595959" font-family="Calibri,Calibri_MSFontService,sans-serif" font-weight="400" font-size="12" transform="translate(850.913 361)">-0.2</text></g><g><text fill="#595959" font-family="Calibri,Calibri_MSFontService,sans-serif" font-weight="400" font-size="12" transform="translate(911.628 361)">0</text></g><g><text fill="#595959" font-family="Calibri,Calibri_MSFontService,sans-serif" font-weight="400" font-size="12" transform="translate(961.4 361)">0.2</text></g><g><text fill="#595959" font-family="Calibri,Calibri_MSFontService,sans-serif" font-weight="400" font-size="12" transform="translate(1015.72 361)">0.4</text></g><g><text fill="#595959" font-family="Calibri,Calibri_MSFontService,sans-serif" font-weight="400" font-size="12" transform="translate(1070.05 361)">0.6</text></g><g><text fill="#595959" font-family="Calibri,Calibri_MSFontService,sans-serif" font-weight="400" font-size="12" transform="translate(1124.37 361)">0.8</text></g><g><text fill="#595959" font-family="Calibri,Calibri_MSFontService,sans-serif" font-weight="400" font-size="12" transform="translate(1183.25 361)">1</text></g></g></svg>