<svg width="521" height="320" xmlns="http://www.w3.org/2000/svg" xmlns:xlink="http://www.w3.org/1999/xlink" overflow="hidden"><defs><clipPath id="clip0"><rect x="108" y="161" width="521" height="320"/></clipPath></defs><g clip-path="url(#clip0)" transform="translate(-108 -161)"><g><path d="M0 0 0.000104987 285" stroke="#BFBFBF" stroke-linejoin="round" stroke-miterlimit="10" fill="none" fill-rule="evenodd" transform="matrix(1 0 0 -1 362.5 463.5)"/></g><g><path d="M122.5 321.5 602.5 321.5" stroke="#BFBFBF" stroke-linejoin="round" stroke-miterlimit="10" fill="none" fill-rule="evenodd"/></g><g><path d="M362.412 321.023C362.442 321.022 362.474 321.02 362.503 321.02 362.532 321.019 362.544 321.02 362.586 321.02 362.627 321.02 362.669 321.02 362.752 321.02 362.835 321.02 362.918 321.02 363.085 321.02 363.251 321.02 363.417 321.02 363.749 321.02 364.082 321.02 364.414 321.02 365.079 321.02 365.744 321.02 366.409 321.02 367.738 321.02 369.066 321.02 370.399 321.02 373.051 321.02 375.704 321.02 378.389 321.02 383.65 321.02 388.912 321.019 396.627 321.032 404.619 321.017 412.61 321.001 422.113 321.078 431.602 320.925 441.09 320.773 456.558 320.239 461.549 320.101M550.853 255.341C551.184 257.192 552.434 260.85 552.853 266.507 553.274 272.194 554 282.82 553.377 289.463 552.754 296.106 553.001 301.791 549.116 306.367 545.23 310.943 537.244 314.799 530.065 316.919 522.886 319.039 516.632 318.439 506.04 319.085 495.447 319.731 481.587 320.47 466.51 320.795 451.433 321.12 432.442 320.996 415.58 321.033 398.718 321.071 381.677 321.019 365.34 321.019 349.002 321.019 332.816 321.025 317.555 321.033 302.294 321.042 287.47 320.433 273.775 321.07 260.08 321.707 247.012 311.898 235.387 324.856 223.761 337.814 211.957 380.961 204.022 398.815 196.522 415.691 190.925 427.916 187.776 431.984 185.253 435.243 185.273 427.733 184.03 424.638 182.389 420.55 179.701 413.838 177.931 407.459 176.161 401.081 174.469 396.162 173.408 386.366 172.346 376.569 171.445 357.113 171.56 348.681 171.65 342.104 172.263 339.074 174.098 335.774 176.451 331.544 180.678 325.769 185.679 323.3 190.68 320.831 196.049 321.309 204.102 320.959 212.156 320.609 221.259 321.215 234 321.199 246.741 321.182 264.345 320.86 280.546 320.858 296.746 320.855 314.53 321.189 331.202 321.183 347.873 321.177 364.644 320.912 380.575 320.823 396.506 320.733 412.148 321.269 426.787 320.646 441.427 320.023 455.545 320.956 468.411 317.085 481.276 313.213 496.744 304.816 503.981 297.417 510.932 290.312 508.357 285.188 511.837 272.69 515.461 259.677 521.65 230.105 525.724 219.338 528.456 212.117 534.827 208.962 536.283 208.084 538.079 207 537.805 209.697 538.752 211.48 539.895 213.634 541.427 216.099 543.144 221.012 544.86 225.924 547.288 231.362 549.051 240.955 550.814 250.549 553.724 267.747 553.723 278.572 553.721 289.398 552.876 299.547 549.044 305.909 545.213 312.27 537.827 314.552 530.733 316.742 523.64 318.932 516.578 318.385 506.483 319.049 496.388 319.714 484.65 320.401 470.161 320.73 455.672 321.06 436.363 320.977 419.546 321.026 402.729 321.075 385.645 321.024 369.258 321.024 352.871 321.025 336.593 321.027 321.225 321.027 305.858 321.028 290.897 320.742 277.053 321.027 263.209 321.313 249.978 311.12 238.163 322.739 226.348 334.358 214.391 372.405 206.165 390.741 197.938 409.077 192.303 426.855 188.804 432.754 186.879 436 186.062 428.129 185.174 426.134 183.562 422.51 180.936 416.651 179.128 411.01 177.32 405.369 175.653 401.639 174.328 392.288 173.004 382.936 171.44 362.998 171.181 354.9 171 349.244 171.52 347.26 172.775 343.696 174.572 338.593 177.586 327.984 181.962 324.282 186.338 320.579 191.731 322.043 199.029 321.482 206.327 320.922 214.554 320.973 225.751 320.918 236.948 320.864 251.065 321.16 266.212 321.155 281.358 321.149 299.91 320.885 316.631 320.885 333.351 320.885 350.338 321.182 366.535 321.155 382.733 321.128 398.055 320.868 413.815 320.724" stroke="#4472C4" stroke-width="2" stroke-linecap="round" stroke-linejoin="round" stroke-miterlimit="10" fill="none"/></g><g><text fill="#595959" font-family="Calibri,Calibri_MSFontService,sans-serif" font-weight="400" font-size="12" transform="translate(320.376 467)">-0.003</text></g><g><text fill="#595959" font-family="Calibri,Calibri_MSFontService,sans-serif" font-weight="400" font-size="12" transform="translate(320.376 419)">-0.002</text></g><g><text fill="#595959" font-family="Calibri,Calibri_MSFontService,sans-serif" font-weight="400" font-size="12" transform="translate(320.376 372)">-0.001</text></g><g><text fill="#595959" font-family="Calibri,Calibri_MSFontService,sans-serif" font-weight="400" font-size="12" transform="translate(345.316 324)">0</text></g><g><text fill="#595959" font-family="Calibri,Calibri_MSFontService,sans-serif" font-weight="400" font-size="12" transform="translate(324.05 276)">0.001</text></g><g><text fill="#595959" font-family="Calibri,Calibri_MSFontService,sans-serif" font-weight="400" font-size="12" transform="translate(324.05 229)">0.002</text></g><g><text fill="#595959" font-family="Calibri,Calibri_MSFontService,sans-serif" font-weight="400" font-size="12" transform="translate(324.05 181)">0.003</text></g><g><text fill="#595959" font-family="Calibri,Calibri_MSFontService,sans-serif" font-weight="400" font-size="12" transform="translate(118.06 340)">-1</text></g><g><text fill="#595959" font-family="Calibri,Calibri_MSFontService,sans-serif" font-weight="400" font-size="12" transform="translate(161.425 340)">-0.8</text></g><g><text fill="#595959" font-family="Calibri,Calibri_MSFontService,sans-serif" font-weight="400" font-size="12" transform="translate(209.343 340)">-0.6</text></g><g><text fill="#595959" font-family="Calibri,Calibri_MSFontService,sans-serif" font-weight="400" font-size="12" transform="translate(257.262 340)">-0.4</text></g><g><text fill="#595959" font-family="Calibri,Calibri_MSFontService,sans-serif" font-weight="400" font-size="12" transform="translate(305.18 340)">-0.2</text></g><g><text fill="#595959" font-family="Calibri,Calibri_MSFontService,sans-serif" font-weight="400" font-size="12" transform="translate(359.489 340)">0</text></g><g><text fill="#595959" font-family="Calibri,Calibri_MSFontService,sans-serif" font-weight="400" font-size="12" transform="translate(402.854 340)">0.2</text></g><g><text fill="#595959" font-family="Calibri,Calibri_MSFontService,sans-serif" font-weight="400" font-size="12" transform="translate(450.772 340)">0.4</text></g><g><text fill="#595959" font-family="Calibri,Calibri_MSFontService,sans-serif" font-weight="400" font-size="12" transform="translate(498.691 340)">0.6</text></g><g><text fill="#595959" font-family="Calibri,Calibri_MSFontService,sans-serif" font-weight="400" font-size="12" transform="translate(546.609 340)">0.8</text></g><g><text fill="#595959" font-family="Calibri,Calibri_MSFontService,sans-serif" font-weight="400" font-size="12" transform="translate(599.081 340)">1</text></g></g></svg>