<svg width="452" height="290" xmlns="http://www.w3.org/2000/svg" xmlns:xlink="http://www.w3.org/1999/xlink" overflow="hidden"><defs><clipPath id="clip0"><rect x="93" y="71" width="452" height="290"/></clipPath><clipPath id="clip1"><rect x="93" y="72" width="450" height="288"/></clipPath></defs><g clip-path="url(#clip0)" transform="translate(-93 -71)"><g><path d="M0 0 0.000104987 273" stroke="#BFBFBF" stroke-linejoin="round" stroke-miterlimit="10" fill="none" fill-rule="evenodd" transform="matrix(1 0 0 -1 319.5 352.5)"/></g><g><path d="M316.5 352.5 319.5 352.5M316.5 325.5 319.5 325.5M316.5 298.5 319.5 298.5M316.5 270.5 319.5 270.5M316.5 243.5 319.5 243.5M316.5 216.5 319.5 216.5M316.5 188.5 319.5 188.5M316.5 161.5 319.5 161.5M316.5 133.5 319.5 133.5M316.5 106.5 319.5 106.5M316.5 79.5001 319.5 79.5001" stroke="#BFBFBF" stroke-linejoin="round" stroke-miterlimit="10" fill="none"/></g><g><path d="M106.5 216.5 532.5 216.5" stroke="#BFBFBF" stroke-linejoin="round" stroke-miterlimit="10" fill="none" fill-rule="evenodd"/></g><g><path d="M106.5 216.5 106.5 219.5M149.5 216.5 149.5 219.5M192.5 216.5 192.5 219.5M234.5 216.5 234.5 219.5M277.5 216.5 277.5 219.5M319.5 216.5 319.5 219.5M362.5 216.5 362.5 219.5M405.5 216.5 405.5 219.5M447.5 216.5 447.5 219.5M490.5 216.5 490.5 219.5M532.5 216.5 532.5 219.5" stroke="#BFBFBF" stroke-linejoin="round" stroke-miterlimit="10" fill="none"/></g><g><path d="M320.048 215.864C320.075 215.864 320.103 215.863 320.129 215.863 320.155 215.862 320.166 215.863 320.203 215.863 320.24 215.863 320.277 215.863 320.351 215.863 320.425 215.863 320.499 215.863 320.647 215.863 320.795 215.863 320.943 215.863 321.239 215.863 321.535 215.863 321.831 215.863 322.423 215.863 323.014 215.863 323.607 215.863 324.79 215.863 325.972 215.863 327.159 215.863 329.52 215.863 331.881 215.862 334.272 215.866 338.956 215.862 343.64 215.858 350.66 215.971 357.624 215.836 364.588 215.701 376.888 215.183 380.741 215.052M481.94 133.857C482.842 135.685 485.993 140.898 487.349 144.824 488.705 148.75 489.74 152.936 490.076 157.413 490.412 161.89 492 165.839 489.365 171.685 486.73 177.531 480.285 186.717 474.266 192.487 468.248 198.258 462.997 202.466 453.255 206.308 443.514 210.151 429.795 213.942 415.816 215.541 401.836 217.14 384.642 215.852 369.378 215.9 354.114 215.949 338.881 215.832 324.232 215.832 309.583 215.832 295.129 215.723 281.483 215.901 267.836 216.079 250.394 216.013 242.355 216.899 238.154 217.362 235.54 216.731 233.248 221.217 228.862 229.8 221.11 252.909 216.037 268.401 210.964 283.892 207.197 307.286 202.81 314.166 199.089 320 193.019 311.807 189.713 309.679 185.814 307.17 182.51 302.477 179.418 299.109 176.326 295.742 174.608 294.415 171.161 289.474 167.713 284.533 162.299 278.162 158.733 269.463 155.167 260.764 151.208 243.828 149.766 237.278 149 233.799 149.663 231.643 150.079 230.16 150.862 227.368 151.635 222.84 154.464 220.522 157.292 218.204 161.611 217.007 167.05 216.253 172.489 215.499 178.649 216.07 187.101 215.997 195.552 215.924 205.204 215.823 217.759 215.816 230.315 215.809 247.488 215.961 262.432 215.957 277.376 215.953 292.726 215.979 307.421 215.793 322.116 215.606 336.754 217.502 350.603 214.837 364.452 212.172 377.965 208.207 390.516 199.801 403.067 191.395 418.784 174.096 425.911 164.402 432.998 154.763 429.798 152.302 433.276 141.64 436.774 130.917 442.69 107.262 446.9 100.066 449.864 95 456.061 97.4649 458.536 98.4649 462.05 99.885 465.144 105.209 467.988 108.588 470.831 111.966 472.862 114.201 475.595 118.735 478.328 123.27 481.95 127.82 484.388 135.795 486.825 143.77 491.146 157.756 490.222 166.587 489.298 175.418 484.194 182.618 478.846 188.78 473.497 194.941 466.656 199.227 458.129 203.555 449.603 207.883 440.476 212.722 427.684 214.748 414.892 216.774 396.681 215.5 381.376 215.712 366.071 215.924 350.689 216.02 335.854 216.02 321.018 216.02 306.313 215.681 292.364 215.713 278.415 215.744 260.429 216.037 252.161 216.208 247.454 216.306 245.351 214.893 242.76 216.742 238.209 219.989 228.654 229.582 224.856 235.689 221.454 241.158 222.1 244.459 219.968 253.389 217.586 263.361 213.74 285.466 210.567 295.524 207.467 305.35 202.946 310.856 200.93 313.741 200.131 314.884 198.702 313.418 198.183 313.245 196.841 312.799 195.136 312.575 192.88 311.06 190.624 309.546 188.185 307.614 184.647 304.157 181.108 300.7 176.081 296.359 171.649 290.319 167.217 284.279 161.705 276.751 158.057 267.916 154.409 259.081 151.089 243.63 149.761 237.308 149.007 233.721 149.645 231.556 150.086 229.985 150.864 227.217 151.621 223.007 154.427 220.698 157.233 218.388 161.512 216.887 166.922 216.127 172.331 215.366 178.462 216.209 186.881 216.135 195.301 216.06 204.903 215.686 217.439 215.679 229.975 215.673 247.156 216.098 262.099 216.094 277.042 216.09 292.397 215.836 307.097 215.656 321.798 215.475 336.443 217.65 350.3 215.012 364.158 212.374 377.679 208.157 390.242 199.828 402.804 191.499 418.533 174.662 425.675 165.038 432.816 155.414 429.569 152.876 433.091 142.082 436.613 131.288 442.583 107.581 446.807 100.276 449.758 95.1711 455.969 97.2767 458.431 98.2539 461.954 99.652 465.093 105.285 467.946 108.665 470.799 112.045 472.817 114.012 475.549 118.535 478.281 123.059 481.89 127.846 484.338 135.804 486.786 143.762 491.141 157.443 490.236 166.285 489.33 175.126 484.24 182.674 478.905 188.855 473.571 195.036 466.745 199.035 458.229 203.369 449.713 207.703 440.599 212.825 427.809 214.861 415.018 216.896 396.794 215.367 381.486 215.582 366.177 215.797 350.794 216.15 335.956 216.15 321.118 216.15 306.41 215.551 292.458 215.583 278.506 215.613 260.515 216.166 252.246 216.336 247.543 216.432 245.431 214.769 242.842 216.597 238.29 219.812 228.734 229.55 224.932 235.622 221.585 240.966 222.13 244.237 220.026 253.033 217.636 263.028 213.77 285.497 210.592 295.592 207.525 305.334 202.95 310.744 200.957 313.605 200.166 314.74 198.714 313.553 198.198 313.382 196.851 312.936 195.134 312.442 192.875 310.926 190.616 309.41 188.18 307.741 184.643 304.285 181.106 300.829 176.083 296.229 171.653 290.192 167.223 284.155 161.713 276.898 158.064 268.064 154.416 259.23 151.091 243.511 149.761 237.188 149.034 233.729 149.66 231.642 150.085 230.127 150.861 227.357 151.616 222.883 154.421 220.572 157.226 218.26 161.505 217.02 166.913 216.259 172.321 215.497 178.451 216.077 186.868 216.003 195.286 215.928 204.883 215.818 217.418 215.811 229.952 215.805 247.134 215.966 262.077 215.962 277.02 215.958 292.376 215.968 307.076 215.788 321.777 215.608 336.422 217.518 350.28 214.882 364.138 212.246 377.661 208.294 390.224 199.971 402.787 191.646 418.517 174.558 425.659 164.938 432.775 155.354 429.568 153.009 433.079 142.251 436.602 131.453 442.576 107.46 446.8 100.149 449.74 95.0606 455.972 97.4089 458.424 98.3809 461.948 99.7776 465.089 105.149 467.943 108.529 470.796 111.909 472.814 114.141 475.546 118.663 478.278 123.186 481.886 127.706 484.335 135.664 486.783 143.621 491.141 157.563 490.237 166.406 489.333 175.248 484.243 182.537 478.909 188.719 473.576 194.901 466.751 199.163 458.235 203.498 449.72 207.832 440.607 212.691 427.817 214.727 415.026 216.763 396.802 215.499 381.493 215.714 366.184 215.929 350.8 216.017 335.962 216.018 321.124 216.018 306.416 215.684 292.464 215.715 278.512 215.746 260.521 216.034 252.251 216.203 247.543 216.299 245.44 214.9 242.848 216.729 238.295 219.941 228.74 229.406 224.937 235.477 221.544 240.893 222.163 244.231 220.03 253.151 217.639 263.147 213.772 285.358 210.593 295.455 207.491 305.31 202.974 310.843 200.958 313.737 200.158 314.886 198.721 313.423 198.199 313.25 196.852 312.804 195.134 312.574 192.875 311.058 190.615 309.542 188.179 307.608 184.643 304.153 181.106 300.697 176.083 296.361 171.653 290.325 167.224 284.288 161.714 276.767 158.065 267.933 154.416 259.099 151.091 243.644 149.761 237.321 149.007 233.733 149.644 231.567 150.085 229.995 150.861 227.226 151.616 223.016 154.421 220.704 157.225 218.393 161.505 216.888 166.913 216.127 172.321 215.365 178.45 216.21 186.867 216.135 195.285 216.06 204.881 215.686 217.416 215.679 229.951 215.672 247.132 216.098 262.075 216.094 277.018 216.09 292.374 215.835 307.075 215.655 321.775 215.475 336.421 217.651 350.279 215.015 364.137 212.379 377.659 208.162 390.223 199.839 402.786 191.515 418.516 174.692 425.658 165.073 432.801 155.453 429.554 152.92 433.078 142.122 436.602 131.323 442.576 107.594 446.8 100.281 449.75 95.1748 455.963 97.2728 458.424 98.2481 461.948 99.6447 465.089 105.281 467.943 108.661 470.796 112.041 472.814 114.008 475.546 118.53 478.278 123.053 481.886 127.838 484.335 135.796 486.783 143.752 491.141 157.43 490.237 166.273 489.333 175.115 484.243 182.669 478.909 188.851 473.576 195.033 466.751 199.03 458.236 203.365 449.72 207.7 440.608 212.823 427.817 214.86 415.027 216.896 396.802 215.367 381.493 215.582 366.184 215.797 350.801 216.15 335.963 216.15 321.125 216.15 306.416 215.552 292.465 215.583 278.513 215.613 260.521 216.166 252.252 216.335 247.549 216.431 245.437 214.77 242.848 216.596 238.296 219.809 228.74 229.538 224.937 235.608 221.591 240.949 222.134 244.222 220.03 253.017 217.64 263.014 213.772 285.49 210.593 295.588 207.526 305.331 202.952 310.743 200.959 313.605 200.168 314.74 198.715 313.554 198.2 313.383 196.852 312.936 195.134 312.442 192.875 310.925 190.615 309.409 188.179 307.74 184.643 304.285 181.106 300.829 176.083 296.229 171.653 290.192 167.224 284.156 161.714 276.899 158.065 268.066 154.416 259.232 151.091 243.512 149.761 237.189 149.034 233.73 149.66 231.643 150.085 230.128 150.861 227.358 151.616 222.883 154.421 220.572 157.225 218.26 161.505 217.021 166.913 216.259 172.321 215.498 178.45 216.077 186.867 216.003 195.285 215.928 204.881 215.818 217.416 215.812 229.951 215.805 249.875 215.965 262.075 215.962 274.276 215.958 280.957 215.795 290.619 215.791 300.281 215.788 310.238 215.891 320.048 215.94" stroke="#4472C4" stroke-width="2" stroke-linecap="round" stroke-linejoin="round" stroke-miterlimit="10" fill="none"/></g><g><text fill="#595959" font-family="Calibri,Calibri_MSFontService,sans-serif" font-weight="400" font-size="12" transform="translate(271.631 356)">-0.0005</text></g><g><text fill="#595959" font-family="Calibri,Calibri_MSFontService,sans-serif" font-weight="400" font-size="12" transform="translate(271.631 328)">-0.0004</text></g><g><text fill="#595959" font-family="Calibri,Calibri_MSFontService,sans-serif" font-weight="400" font-size="12" transform="translate(271.631 301)">-0.0003</text></g><g><text fill="#595959" font-family="Calibri,Calibri_MSFontService,sans-serif" font-weight="400" font-size="12" transform="translate(271.631 274)">-0.0002</text></g><g><text fill="#595959" font-family="Calibri,Calibri_MSFontService,sans-serif" font-weight="400" font-size="12" transform="translate(271.631 246)">-0.0001</text></g><g><text fill="#595959" font-family="Calibri,Calibri_MSFontService,sans-serif" font-weight="400" font-size="12" transform="translate(302.651 219)">0</text></g><g><text fill="#595959" font-family="Calibri,Calibri_MSFontService,sans-serif" font-weight="400" font-size="12" transform="translate(275.304 192)">0.0001</text></g><g><text fill="#595959" font-family="Calibri,Calibri_MSFontService,sans-serif" font-weight="400" font-size="12" transform="translate(275.304 164)">0.0002</text></g><g><text fill="#595959" font-family="Calibri,Calibri_MSFontService,sans-serif" font-weight="400" font-size="12" transform="translate(275.304 137)">0.0003</text></g><g><text fill="#595959" font-family="Calibri,Calibri_MSFontService,sans-serif" font-weight="400" font-size="12" transform="translate(275.304 110)">0.0004</text></g><g clip-path="url(#clip1)"><text fill="#595959" font-family="Calibri,Calibri_MSFontService,sans-serif" font-weight="400" font-size="12" transform="translate(275.304 82)">0.0005</text></g><g><text fill="#595959" font-family="Calibri,Calibri_MSFontService,sans-serif" font-weight="400" font-size="12" transform="translate(101.89 235)">-1</text></g><g><text fill="#595959" font-family="Calibri,Calibri_MSFontService,sans-serif" font-weight="400" font-size="12" transform="translate(139.956 235)">-0.8</text></g><g><text fill="#595959" font-family="Calibri,Calibri_MSFontService,sans-serif" font-weight="400" font-size="12" transform="translate(182.575 235)">-0.6</text></g><g><text fill="#595959" font-family="Calibri,Calibri_MSFontService,sans-serif" font-weight="400" font-size="12" transform="translate(225.195 235)">-0.4</text></g><g><text fill="#595959" font-family="Calibri,Calibri_MSFontService,sans-serif" font-weight="400" font-size="12" transform="translate(267.814 235)">-0.2</text></g><g><text fill="#595959" font-family="Calibri,Calibri_MSFontService,sans-serif" font-weight="400" font-size="12" transform="translate(316.823 235)">0</text></g><g><text fill="#595959" font-family="Calibri,Calibri_MSFontService,sans-serif" font-weight="400" font-size="12" transform="translate(354.889 235)">0.2</text></g><g><text fill="#595959" font-family="Calibri,Calibri_MSFontService,sans-serif" font-weight="400" font-size="12" transform="translate(397.509 235)">0.4</text></g><g><text fill="#595959" font-family="Calibri,Calibri_MSFontService,sans-serif" font-weight="400" font-size="12" transform="translate(440.128 235)">0.6</text></g><g><text fill="#595959" font-family="Calibri,Calibri_MSFontService,sans-serif" font-weight="400" font-size="12" transform="translate(482.747 235)">0.8</text></g><g><text fill="#595959" font-family="Calibri,Calibri_MSFontService,sans-serif" font-weight="400" font-size="12" transform="translate(529.92 235)">1</text></g></g></svg>