<svg width="482" height="289" xmlns="http://www.w3.org/2000/svg" xmlns:xlink="http://www.w3.org/1999/xlink" overflow="hidden"><defs><clipPath id="clip0"><rect x="87" y="226" width="482" height="289"/></clipPath></defs><g clip-path="url(#clip0)" transform="translate(-87 -226)"><g><path d="M0 0 0.000104987 258" stroke="#BFBFBF" stroke-linejoin="round" stroke-miterlimit="10" fill="none" fill-rule="evenodd" transform="matrix(1 0 0 -1 328.5 499.5)"/></g><g><path d="M107.5 370.5 550.5 370.5" stroke="#BFBFBF" stroke-linejoin="round" stroke-miterlimit="10" fill="none" fill-rule="evenodd"/></g><g><path d="M328.88 370.546C328.901 370.544 328.926 370.543 328.945 370.543 328.964 370.542 328.969 370.543 328.993 370.543 329.016 370.543 329.04 370.542 329.088 370.543 329.135 370.543 329.183 370.543 329.278 370.543 329.372 370.543 329.467 370.543 329.657 370.543 329.847 370.543 330.037 370.543 330.417 370.543 330.797 370.543 331.177 370.543 331.936 370.543 332.696 370.543 333.456 370.543 334.974 370.543 336.492 370.543 338.017 370.543 341.044 370.543 344.07 370.542 347.478 370.544 353.132 370.542 358.787 370.54 367.932 370.56 374.969 370.529 382.006 370.497 388.226 370.541 395.353 370.354 402.48 370.167 414.002 369.565 417.731 369.408M503.539 310.149C503.913 312.717 505.465 320.256 505.781 325.559 506.098 330.862 507 336.044 505.437 341.966 503.875 347.888 500.995 357.083 496.406 361.092 491.817 365.102 485.503 364.737 477.903 366.024 470.303 367.311 461.287 368.077 450.809 368.815 440.33 369.552 427.859 370.161 415.031 370.449 402.203 370.738 388.042 370.529 373.84 370.546 359.639 370.563 344.472 370.551 329.825 370.551 315.177 370.55 299.989 370.545 285.953 370.546 271.917 370.547 258.226 370.047 245.608 370.557 232.989 371.067 219.583 365.549 210.242 373.605 200.9 381.66 195.954 401.787 189.558 418.892 183.162 435.997 176.599 469.473 171.867 476.237 167.134 483 164.035 466.457 161.164 459.472 158.294 452.487 156.165 441.949 154.644 434.328 153.123 426.706 151.969 422.487 152.039 413.743 152.11 405 152.241 388.919 155.065 381.868 157.89 374.817 163.124 373.328 168.987 371.437 174.85 369.545 181.859 370.661 190.243 370.519 198.627 370.378 208.11 370.593 219.293 370.59 230.475 370.586 243.907 370.498 257.338 370.497 270.769 370.497 285.395 370.589 299.879 370.589 314.362 370.588 329.722 370.593 344.242 370.494 358.761 370.394 373.418 370.61 386.993 369.992 400.569 369.373 413.716 369.975 425.695 366.781 437.674 363.587 452.122 357.104 458.866 350.828 464.678 345.421 463.257 340.2 466.164 329.125 469.537 316.272 475.308 284.713 479.106 273.708 481.471 266.855 487.679 263.777 488.954 263.093 490.992 262 490.273 265.049 491.398 267.117 492.522 269.183 494.103 271.107 495.738 275.568 497.384 280.058 499.575 285.585 501.271 294.056 502.966 302.526 505.843 316.142 505.912 326.391 505.98 336.641 504.902 349.226 501.682 355.554 498.463 361.881 492.821 362.312 486.595 364.358 480.369 366.405 473.322 366.94 464.327 367.833 455.332 368.725 444.403 369.22 432.627 369.715 420.85 370.209 407.333 370.703 393.669 370.799 380.004 370.896 365.211 370.293 350.64 370.294 336.069 370.294 320.675 370.803 306.244 370.803 291.812 370.803 277.4 370.26 264.051 370.294 250.702 370.327 232.466 370.886 226.149 371.004M159.818 455.515C159.433 454.232 158.334 451.529 157.386 447.4 156.386 443.047 154.72 437.534 153.818 429.396 152.916 421.258 151 407.672 151.972 398.574 152.943 389.476 155.484 379.392 159.647 374.808 163.809 370.223 170.073 371.832 176.946 371.069 183.819 370.307 191.152 370.268 200.886 370.233 210.621 370.198 222.884 370.859 235.352 370.858 247.82 370.857 264.591 370.229 275.694 370.229 286.798 370.229 293.111 370.857 301.975 370.857 310.839 370.857 319.911 370.438 328.88 370.228" stroke="#4472C4" stroke-width="2" stroke-linecap="round" stroke-linejoin="round" stroke-miterlimit="10" fill="none"/></g><g><text fill="#595959" font-family="Calibri,Calibri_MSFontService,sans-serif" font-weight="400" font-size="12" transform="translate(286.766 503)">-0.003</text></g><g><text fill="#595959" font-family="Calibri,Calibri_MSFontService,sans-serif" font-weight="400" font-size="12" transform="translate(286.766 460)">-0.002</text></g><g><text fill="#595959" font-family="Calibri,Calibri_MSFontService,sans-serif" font-weight="400" font-size="12" transform="translate(286.766 417)">-0.001</text></g><g><text fill="#595959" font-family="Calibri,Calibri_MSFontService,sans-serif" font-weight="400" font-size="12" transform="translate(311.706 374)">0</text></g><g><text fill="#595959" font-family="Calibri,Calibri_MSFontService,sans-serif" font-weight="400" font-size="12" transform="translate(290.439 330)">0.001</text></g><g><text fill="#595959" font-family="Calibri,Calibri_MSFontService,sans-serif" font-weight="400" font-size="12" transform="translate(290.439 287)">0.002</text></g><g><text fill="#595959" font-family="Calibri,Calibri_MSFontService,sans-serif" font-weight="400" font-size="12" transform="translate(290.439 244)">0.003</text></g><g><text fill="#595959" font-family="Calibri,Calibri_MSFontService,sans-serif" font-weight="400" font-size="12" transform="translate(102.667 389)">-1</text></g><g><text fill="#595959" font-family="Calibri,Calibri_MSFontService,sans-serif" font-weight="400" font-size="12" transform="translate(142.388 389)">-0.8</text></g><g><text fill="#595959" font-family="Calibri,Calibri_MSFontService,sans-serif" font-weight="400" font-size="12" transform="translate(186.663 389)">-0.6</text></g><g><text fill="#595959" font-family="Calibri,Calibri_MSFontService,sans-serif" font-weight="400" font-size="12" transform="translate(230.938 389)">-0.4</text></g><g><text fill="#595959" font-family="Calibri,Calibri_MSFontService,sans-serif" font-weight="400" font-size="12" transform="translate(275.213 389)">-0.2</text></g><g><text fill="#595959" font-family="Calibri,Calibri_MSFontService,sans-serif" font-weight="400" font-size="12" transform="translate(325.878 389)">0</text></g><g><text fill="#595959" font-family="Calibri,Calibri_MSFontService,sans-serif" font-weight="400" font-size="12" transform="translate(365.6 389)">0.2</text></g><g><text fill="#595959" font-family="Calibri,Calibri_MSFontService,sans-serif" font-weight="400" font-size="12" transform="translate(409.875 389)">0.4</text></g><g><text fill="#595959" font-family="Calibri,Calibri_MSFontService,sans-serif" font-weight="400" font-size="12" transform="translate(454.15 389)">0.6</text></g><g><text fill="#595959" font-family="Calibri,Calibri_MSFontService,sans-serif" font-weight="400" font-size="12" transform="translate(498.425 389)">0.8</text></g><g><text fill="#595959" font-family="Calibri,Calibri_MSFontService,sans-serif" font-weight="400" font-size="12" transform="translate(547.253 389)">1</text></g></g></svg>