<svg width="479" height="289" xmlns="http://www.w3.org/2000/svg" xmlns:xlink="http://www.w3.org/1999/xlink" overflow="hidden"><defs><clipPath id="clip0"><rect x="162" y="146" width="479" height="289"/></clipPath></defs><g clip-path="url(#clip0)" transform="translate(-162 -146)"><g><path d="M0 0 0.000104987 259" stroke="#BFBFBF" stroke-linejoin="round" stroke-miterlimit="10" fill="none" fill-rule="evenodd" transform="matrix(1 0 0 -1 402.5 420.5)"/></g><g><path d="M182.5 290.5 622.5 290.5" stroke="#BFBFBF" stroke-linejoin="round" stroke-miterlimit="10" fill="none" fill-rule="evenodd"/></g><g><path d="M402.248 290.727C402.275 290.723 402.304 290.718 402.331 290.716 402.358 290.714 402.369 290.716 402.408 290.716 402.446 290.716 402.484 290.716 402.561 290.716 402.637 290.716 402.714 290.716 402.867 290.716 403.02 290.716 403.173 290.716 403.48 290.716 403.786 290.716 404.092 290.716 404.704 290.716 405.317 290.716 405.93 290.716 407.154 290.716 408.378 290.716 409.606 290.716 412.049 290.716 414.492 290.716 416.967 290.716 421.813 290.715 426.66 290.715 433.768 290.722 441.131 290.712 448.493 290.702 457.247 290.74 465.989 290.657 474.73 290.573 484.313 290.45 493.578 290.211 502.844 289.972 512.634 289.902 521.579 289.222 530.525 288.542 542.973 286.647 547.251 286.132M577.908 197.224C577.191 207.063 577.064 241.416 573.605 256.258 570.146 271.101 564.988 280.745 557.154 286.279 549.32 291.813 539.546 288.733 526.602 289.462 513.657 290.192 495.351 290.445 479.489 290.659 463.627 290.872 447.092 290.732 431.43 290.744 415.768 290.756 400.278 290.732 385.52 290.732 370.762 290.731 356.376 290.742 342.882 290.742 329.388 290.742 316.402 290.624 304.557 290.732 292.711 290.84 277.267 291.281 271.809 291.391M226.359 379.566C228.433 367.166 233.377 319.893 238.802 305.166 243.035 293.676 249.441 293.083 258.913 291.204 271.053 288.795 294.656 290.794 311.641 290.713 328.625 290.633 344.774 290.723 360.819 290.722 376.864 290.722 392.771 290.714 407.91 290.711 423.049 290.708 437.78 290.794 451.653 290.703 465.526 290.612 478.858 290.476 491.148 290.165 503.437 289.854 519.682 289.057 525.389 288.835M561.825 283.128C556.559 284.123 541.625 287.853 530.233 289.102 518.84 290.35 507.512 290.372 493.468 290.618 479.425 290.864 461.624 290.531 445.971 290.578 430.318 290.625 414.565 290.898 399.549 290.898 384.534 290.897 369.795 290.576 355.877 290.576 341.96 290.576 328.465 290.88 316.044 290.897 303.624 290.914 291.803 288.759 281.354 290.678 271.374 292.511 260.887 289.228 253.347 302.412 245.453 316.216 238.537 358.687 233.987 373.506 231.125 382.828 226.045 396.998 226.051 391.321 226.059 382.298 229.859 335.806 234.039 319.367 237.944 304.009 242.448 297.17 251.133 292.684 260.429 287.882 275.71 290.852 289.819 290.553 303.928 290.253 320.177 290.887 335.788 290.887 351.4 290.886 367.984 290.549 383.488 290.548 398.992 290.548 414.292 290.906 428.811 290.883 443.329 290.86 457.43 290.592 470.602 290.409 483.773 290.227 496.416 290.342 507.841 289.789 519.265 289.236 529.992 294.074 539.149 287.09 548.307 280.107 556.57 266.782 562.785 247.888 568.999 228.994 574.071 178.216 576.438 173.726 578.804 169.236 578.955 203.28 576.985 220.948 575.015 238.616 570.14 268.471 564.617 279.735 559.651 289.864 554.156 286.94 543.849 288.531 532.388 290.3 512.021 289.971 495.852 290.349 479.684 290.726 462.845 290.742 446.838 290.797 430.831 290.852 414.974 290.68 399.812 290.679 384.651 290.679 369.833 290.795 355.867 290.795 341.902 290.795 328.443 290.661 316.021 290.678 303.599 290.695 291.783 288.987 281.336 290.896 271.4 292.711 260.84 289.04 253.334 302.132 245.442 315.9 238.527 358.71 233.98 373.502 231.172 382.634 226.041 396.447 226.049 390.885 226.063 381.875 229.87 335.85 234.06 319.443 238.015 303.952 242.39 296.957 251.186 292.445 260.501 287.666 275.82 291.067 289.951 290.771 304.083 290.475 320.355 290.669 335.975 290.668 351.596 290.667 368.173 290.767 383.675 290.767 399.177 290.766 414.473 290.688 428.988 290.665 443.502 290.641 457.598 290.809 470.763 290.626 483.929 290.443 496.564 290.122 507.981 289.564 519.398 289.007 530.115 294.334 539.262 287.28 548.409 280.227 556.661 266.158 562.862 247.245 569.063 228.331 574.121 178.146 576.469 173.799 578.816 169.453 578.93 203.46 576.946 221.165 574.963 238.869 570.1 268.833 564.565 280.025 559.593 290.077 553.988 286.738 543.735 288.316 532.319 290.073 512.176 290.191 496.071 290.568 479.966 290.944 463.102 290.517 447.104 290.573 431.106 290.629 415.247 290.903 400.084 290.903 384.921 290.903 370.097 290.571 356.125 290.571 342.153 290.571 328.684 290.885 316.252 290.902 303.819 290.918 291.991 288.801 281.53 290.668 271.508 292.457 261.06 288.986 253.482 302.104 245.572 315.798 238.638 357.97 234.067 372.831 231.112 382.438 226.067 397 226.056 391.267 226.038 382.398 229.8 336.045 233.963 319.62 237.878 304.175 242.341 297.272 251.034 292.716 260.28 287.871 275.375 290.851 289.435 290.547 303.494 290.243 319.782 290.893 335.393 290.893 351.003 290.892 367.59 290.543 383.098 290.542 398.607 290.542 413.914 290.912 428.443 290.889 442.971 290.867 457.083 290.588 470.267 290.407 483.452 290.227 496.109 290.351 507.55 289.805 518.991 289.259 529.736 294.006 538.915 287.133 548.094 280.26 556.381 267.459 562.624 248.565 568.867 229.671 573.967 178.54 576.373 173.77 578.779 169 579 202.317 577.062 219.945 575.125 237.573 570.236 268.106 564.748 279.535 559.879 289.675 554.372 286.924 544.134 288.522 532.593 290.323 511.792 289.96 495.502 290.341 479.213 290.723 462.421 290.758 446.396 290.812 430.371 290.865 414.515 290.665 399.354 290.664 384.193 290.664 369.385 290.81 355.431 290.81 341.478 290.809 328.036 290.645 315.632 290.663 303.227 290.681 291.431 288.938 281.007 290.917 271.124 292.794 260.539 289.376 253.085 302.54 245.222 316.425 238.34 359.557 233.832 374.227 231.175 382.877 226 396.012 226.039 390.561 226.105 381.316 229.993 335.128 234.229 318.759 238.18 303.494 242.65 296.697 251.454 292.349 260.895 287.687 276.611 291.068 290.874 290.786 305.136 290.503 324 290.654 337.029 290.653 350.057 290.652 358.174 290.782 369.044 290.782 379.913 290.782 391.18 290.695 402.247 290.652" stroke="#4472C4" stroke-width="2" stroke-linecap="round" stroke-linejoin="round" stroke-miterlimit="10" fill="none"/></g><g><text fill="#595959" font-family="Calibri,Calibri_MSFontService,sans-serif" font-weight="400" font-size="12" transform="translate(360.221 423)">-0.008</text></g><g><text fill="#595959" font-family="Calibri,Calibri_MSFontService,sans-serif" font-weight="400" font-size="12" transform="translate(360.221 391)">-0.006</text></g><g><text fill="#595959" font-family="Calibri,Calibri_MSFontService,sans-serif" font-weight="400" font-size="12" transform="translate(360.221 358)">-0.004</text></g><g><text fill="#595959" font-family="Calibri,Calibri_MSFontService,sans-serif" font-weight="400" font-size="12" transform="translate(360.221 326)">-0.002</text></g><g><text fill="#595959" font-family="Calibri,Calibri_MSFontService,sans-serif" font-weight="400" font-size="12" transform="translate(385.161 294)">0</text></g><g><text fill="#595959" font-family="Calibri,Calibri_MSFontService,sans-serif" font-weight="400" font-size="12" transform="translate(363.894 261)">0.002</text></g><g><text fill="#595959" font-family="Calibri,Calibri_MSFontService,sans-serif" font-weight="400" font-size="12" transform="translate(363.894 229)">0.004</text></g><g><text fill="#595959" font-family="Calibri,Calibri_MSFontService,sans-serif" font-weight="400" font-size="12" transform="translate(363.894 197)">0.006</text></g><g><text fill="#595959" font-family="Calibri,Calibri_MSFontService,sans-serif" font-weight="400" font-size="12" transform="translate(363.894 164)">0.008</text></g><g><text fill="#595959" font-family="Calibri,Calibri_MSFontService,sans-serif" font-weight="400" font-size="12" transform="translate(177.576 309)">-1</text></g><g><text fill="#595959" font-family="Calibri,Calibri_MSFontService,sans-serif" font-weight="400" font-size="12" transform="translate(217.006 309)">-0.8</text></g><g><text fill="#595959" font-family="Calibri,Calibri_MSFontService,sans-serif" font-weight="400" font-size="12" transform="translate(260.991 309)">-0.6</text></g><g><text fill="#595959" font-family="Calibri,Calibri_MSFontService,sans-serif" font-weight="400" font-size="12" transform="translate(304.975 309)">-0.4</text></g><g><text fill="#595959" font-family="Calibri,Calibri_MSFontService,sans-serif" font-weight="400" font-size="12" transform="translate(348.959 309)">-0.2</text></g><g><text fill="#595959" font-family="Calibri,Calibri_MSFontService,sans-serif" font-weight="400" font-size="12" transform="translate(399.333 309)">0</text></g><g><text fill="#595959" font-family="Calibri,Calibri_MSFontService,sans-serif" font-weight="400" font-size="12" transform="translate(438.764 309)">0.2</text></g><g><text fill="#595959" font-family="Calibri,Calibri_MSFontService,sans-serif" font-weight="400" font-size="12" transform="translate(482.748 309)">0.4</text></g><g><text fill="#595959" font-family="Calibri,Calibri_MSFontService,sans-serif" font-weight="400" font-size="12" transform="translate(526.732 309)">0.6</text></g><g><text fill="#595959" font-family="Calibri,Calibri_MSFontService,sans-serif" font-weight="400" font-size="12" transform="translate(570.716 309)">0.8</text></g><g><text fill="#595959" font-family="Calibri,Calibri_MSFontService,sans-serif" font-weight="400" font-size="12" transform="translate(619.253 309)">1</text></g></g></svg>