<svg width="482" height="290" xmlns="http://www.w3.org/2000/svg" xmlns:xlink="http://www.w3.org/1999/xlink" overflow="hidden"><defs><clipPath id="clip0"><rect x="660" y="151" width="482" height="290"/></clipPath></defs><g clip-path="url(#clip0)" transform="translate(-660 -151)"><g><path d="M0 0 0.000104987 259" stroke="#BFBFBF" stroke-linejoin="round" stroke-miterlimit="10" fill="none" fill-rule="evenodd" transform="matrix(1 0 0 -1 901.5 425.5)"/></g><g><path d="M680.5 295.5 1123.5 295.5" stroke="#BFBFBF" stroke-linejoin="round" stroke-miterlimit="10" fill="none" fill-rule="evenodd"/></g><g><path d="M901.88 296.054C901.901 296.053 901.926 296.052 901.945 296.051 901.964 296.051 901.969 296.051 901.993 296.051 902.016 296.051 902.04 296.051 902.088 296.051 902.135 296.051 902.183 296.051 902.278 296.051 902.372 296.051 902.467 296.051 902.657 296.051 902.847 296.051 903.037 296.051 903.417 296.051 903.797 296.051 904.177 296.051 904.936 296.051 905.696 296.051 906.456 296.051 907.974 296.051 909.492 296.051 911.017 296.051 914.044 296.051 917.07 296.051 920.478 296.053 926.132 296.051 931.787 296.049 940.932 296.069 947.969 296.038 955.006 296.006 961.226 296.05 968.353 295.864 975.48 295.678 987.002 295.078 990.731 294.92M1076.54 235.931C1076.91 238.488 1078.46 245.993 1078.78 251.272 1079.1 256.55 1080 261.709 1078.44 267.604 1076.87 273.5 1073.99 282.652 1069.41 286.644 1064.82 290.635 1058.5 290.272 1050.9 291.554 1043.3 292.835 1034.29 293.597 1023.81 294.331 1013.33 295.065 1000.86 295.671 988.031 295.959 975.203 296.246 961.042 296.038 946.84 296.055 932.639 296.072 917.472 296.059 902.825 296.059 888.177 296.059 872.99 296.054 858.953 296.055 844.917 296.056 831.226 295.558 818.608 296.066 805.989 296.573 792.583 291.082 783.242 299.101 773.9 307.12 768.954 327.154 762.558 344.182 756.162 361.21 749.599 394.535 744.867 401.267 740.134 408 737.035 391.532 734.164 384.579 731.294 377.625 729.165 367.135 727.644 359.548 726.123 351.961 724.969 347.76 725.039 339.057 725.11 330.353 725.241 314.345 728.065 307.326 730.89 300.307 736.124 298.826 741.987 296.943 747.85 295.06 754.859 296.169 763.243 296.028 771.627 295.888 781.11 296.102 792.293 296.098 803.475 296.095 816.907 296.007 830.338 296.007 843.769 296.006 858.395 296.098 872.879 296.097 887.362 296.097 902.722 296.102 917.242 296.003 931.761 295.903 946.418 296.117 959.993 295.501 973.569 294.885 986.716 295.488 998.695 292.309 1010.67 289.13 1025.12 282.674 1031.87 276.427 1037.68 271.043 1036.26 265.846 1039.16 254.822 1042.54 242.026 1048.31 210.611 1052.11 199.655 1054.47 192.833 1060.68 189.769 1061.95 189.088 1063.99 188 1063.27 191.035 1064.4 193.094 1065.52 195.151 1067.1 197.065 1068.74 201.507 1070.38 205.976 1072.58 211.478 1074.27 219.911 1075.97 228.343 1078.84 241.897 1078.91 252.1 1078.98 262.303 1077.9 274.831 1074.68 281.13 1071.46 287.429 1065.82 287.858 1059.59 289.895 1053.37 291.932 1046.32 292.464 1037.33 293.353 1028.33 294.241 1017.4 294.734 1005.63 295.226 993.85 295.718 980.333 296.21 966.669 296.307 953.004 296.403 938.211 295.803 923.64 295.804 909.069 295.804 893.675 296.311 879.244 296.311 864.812 296.311 850.4 295.77 837.051 295.804 823.702 295.837 805.466 296.393 799.149 296.511M732.818 380.639C732.433 379.362 731.334 376.671 730.386 372.561 729.386 368.228 727.72 362.739 726.818 354.638 725.916 346.538 724 333.013 724.971 323.956 725.943 314.899 728.484 304.859 732.647 300.296 736.809 295.733 743.073 297.334 749.946 296.576 756.819 295.817 764.152 295.779 773.886 295.743 783.621 295.708 795.884 296.366 808.352 296.365 820.82 296.365 837.591 295.739 848.694 295.739 859.798 295.739 866.111 296.365 874.975 296.365 883.839 296.364 892.911 295.947 901.88 295.738" stroke="#4472C4" stroke-width="2" stroke-linecap="round" stroke-linejoin="round" stroke-miterlimit="10" fill="none"/></g><g><text fill="#595959" font-family="Calibri,Calibri_MSFontService,sans-serif" font-weight="400" font-size="12" transform="translate(859.766 428)">-0.003</text></g><g><text fill="#595959" font-family="Calibri,Calibri_MSFontService,sans-serif" font-weight="400" font-size="12" transform="translate(859.766 385)">-0.002</text></g><g><text fill="#595959" font-family="Calibri,Calibri_MSFontService,sans-serif" font-weight="400" font-size="12" transform="translate(859.766 342)">-0.001</text></g><g><text fill="#595959" font-family="Calibri,Calibri_MSFontService,sans-serif" font-weight="400" font-size="12" transform="translate(884.706 299)">0</text></g><g><text fill="#595959" font-family="Calibri,Calibri_MSFontService,sans-serif" font-weight="400" font-size="12" transform="translate(863.439 256)">0.001</text></g><g><text fill="#595959" font-family="Calibri,Calibri_MSFontService,sans-serif" font-weight="400" font-size="12" transform="translate(863.439 213)">0.002</text></g><g><text fill="#595959" font-family="Calibri,Calibri_MSFontService,sans-serif" font-weight="400" font-size="12" transform="translate(863.439 170)">0.003</text></g><g><text fill="#595959" font-family="Calibri,Calibri_MSFontService,sans-serif" font-weight="400" font-size="12" transform="translate(675.667 315)">-1</text></g><g><text fill="#595959" font-family="Calibri,Calibri_MSFontService,sans-serif" font-weight="400" font-size="12" transform="translate(715.388 315)">-0.8</text></g><g><text fill="#595959" font-family="Calibri,Calibri_MSFontService,sans-serif" font-weight="400" font-size="12" transform="translate(759.663 315)">-0.6</text></g><g><text fill="#595959" font-family="Calibri,Calibri_MSFontService,sans-serif" font-weight="400" font-size="12" transform="translate(803.938 315)">-0.4</text></g><g><text fill="#595959" font-family="Calibri,Calibri_MSFontService,sans-serif" font-weight="400" font-size="12" transform="translate(848.213 315)">-0.2</text></g><g><text fill="#595959" font-family="Calibri,Calibri_MSFontService,sans-serif" font-weight="400" font-size="12" transform="translate(898.878 315)">0</text></g><g><text fill="#595959" font-family="Calibri,Calibri_MSFontService,sans-serif" font-weight="400" font-size="12" transform="translate(938.6 315)">0.2</text></g><g><text fill="#595959" font-family="Calibri,Calibri_MSFontService,sans-serif" font-weight="400" font-size="12" transform="translate(982.875 315)">0.4</text></g><g><text fill="#595959" font-family="Calibri,Calibri_MSFontService,sans-serif" font-weight="400" font-size="12" transform="translate(1027.15 315)">0.6</text></g><g><text fill="#595959" font-family="Calibri,Calibri_MSFontService,sans-serif" font-weight="400" font-size="12" transform="translate(1071.43 315)">0.8</text></g><g><text fill="#595959" font-family="Calibri,Calibri_MSFontService,sans-serif" font-weight="400" font-size="12" transform="translate(1120.25 315)">1</text></g></g></svg>