<svg width="482" height="290" xmlns="http://www.w3.org/2000/svg" xmlns:xlink="http://www.w3.org/1999/xlink" overflow="hidden"><defs><clipPath id="clip0"><rect x="550" y="54" width="482" height="290"/></clipPath></defs><g clip-path="url(#clip0)" transform="translate(-550 -54)"><g><path d="M0 0 0.000104987 259" stroke="#BFBFBF" stroke-linejoin="round" stroke-miterlimit="10" fill="none" fill-rule="evenodd" transform="matrix(1 0 0 -1 791.5 328.5)"/></g><g><path d="M570.5 199.5 1013.5 199.5" stroke="#BFBFBF" stroke-linejoin="round" stroke-miterlimit="10" fill="none" fill-rule="evenodd"/></g><g><path d="M792.028 198.938C792.056 198.938 792.086 198.937 792.113 198.936 792.139 198.936 792.151 198.936 792.19 198.936 792.228 198.936 792.266 198.936 792.344 198.936 792.42 198.936 792.497 198.936 792.652 198.936 792.805 198.936 792.96 198.936 793.268 198.936 793.576 198.936 793.884 198.936 794.5 198.936 795.116 198.936 795.732 198.936 796.963 198.936 798.195 198.936 799.43 198.937 801.887 198.936 804.345 198.936 806.833 198.94 811.708 198.936 816.583 198.932 823.889 199.04 831.138 198.912 838.386 198.783 851.188 198.291 855.199 198.167M960.53 121.175C961.468 122.908 964.747 127.852 966.159 131.575 967.57 135.297 968.648 139.267 968.998 143.512 969.348 147.757 971 151.504 968.257 157.045 965.515 162.587 958.807 171.287 952.543 176.759 946.279 182.232 940.813 186.235 930.674 189.88 920.534 193.526 906.256 197.118 891.706 198.633 877.155 200.148 859.259 198.926 843.372 198.972 827.485 199.018 811.63 198.908 796.383 198.908 781.136 198.908 766.092 198.804 751.888 198.973 737.685 199.141 717.951 199.761 711.164 199.919M683.771 248.756C681.477 255.988 674.57 285.629 670.004 292.152 665.911 298 660.01 290.031 656.372 287.898 652.314 285.518 648.875 281.068 645.657 277.875 642.439 274.681 640.651 273.423 637.063 268.738 633.475 264.052 627.839 258.01 624.128 249.763 620.416 241.515 616.296 225.465 614.794 219.254 614 215.967 614.689 213.901 615.12 212.499 615.935 209.851 616.74 205.563 619.684 203.364 622.628 201.165 627.123 200.022 632.784 199.306 638.446 198.589 644.857 199.133 653.653 199.064 662.45 198.995 672.496 198.899 685.564 198.892 698.631 198.886 716.506 199.03 732.06 199.026 747.614 199.022 763.591 199.047 778.886 198.87 794.181 198.693 809.416 200.494 823.831 197.965 838.245 195.436 852.309 191.666 865.373 183.695 878.437 175.724 894.796 159.329 902.213 150.139 909.407 141.226 906.348 138.416 909.879 128.555 913.52 118.387 919.677 95.9568 924.059 89.1334 927.355 84 933.417 86.6014 936.17 87.6146 939.828 88.9612 943.048 94.0097 946.007 97.2134 948.967 100.417 951.08 102.536 953.925 106.836 956.77 111.136 960.539 115.45 963.077 123.013 965.614 130.575 970.111 143.836 969.149 152.211 968.188 160.587 962.876 167.423 957.309 173.265 951.741 179.108 944.622 183.164 935.747 187.266 926.872 191.369 917.373 195.959 904.059 197.88 890.744 199.801 871.79 198.593 855.86 198.794 839.93 198.995 823.92 199.086 808.479 199.086 793.038 199.086 777.732 198.764 763.214 198.794 748.696 198.824 729.975 199.101 721.37 199.264 716.472 199.357 714.281 198.02 711.585 199.772 706.848 202.849 696.903 211.936 692.949 217.727 689.402 222.924 690.086 226.034 687.862 234.52 685.384 243.978 681.38 264.937 678.078 274.475 674.81 283.912 670.173 288.978 668.047 291.749 667.166 292.898 665.761 291.453 665.188 291.279 663.792 290.855 662.017 290.644 659.669 289.207 657.321 287.771 654.782 285.939 651.099 282.661 647.416 279.383 642.183 275.267 637.571 269.539 632.958 263.812 627.221 256.673 623.424 248.296 619.627 239.919 616.172 225.276 614.789 219.28 614.006 215.884 614.669 213.806 615.128 212.318 615.937 209.691 616.725 205.708 619.646 203.519 622.566 201.33 627.02 199.907 632.65 199.187 638.28 198.466 644.662 199.265 653.425 199.194 662.188 199.124 672.182 198.769 685.23 198.763 698.278 198.756 716.16 199.16 731.713 199.156 747.266 199.152 763.249 198.911 778.549 198.741 793.849 198.57 809.092 200.634 823.515 198.131 837.938 195.628 852.012 191.619 865.088 183.721 878.163 175.823 894.534 159.867 901.967 150.742 909.262 141.788 906.089 139.019 909.686 128.975 913.352 118.739 919.566 96.2588 923.962 89.3322 927.243 84.1623 933.324 86.425 936.061 87.4146 939.728 88.7403 942.994 94.0816 945.964 97.2869 948.933 100.492 951.034 102.357 953.878 106.646 956.721 110.935 960.478 115.475 963.025 123.021 965.573 130.568 970.106 143.542 969.164 151.924 968.221 160.307 962.923 167.457 957.371 173.317 951.818 179.177 944.714 182.974 935.85 187.085 926.987 191.197 917.501 196.055 904.188 197.986 890.875 199.917 871.908 198.465 855.974 198.669 840.04 198.873 824.029 199.21 808.585 199.21 793.142 199.21 777.833 198.642 763.312 198.672 748.791 198.701 730.065 199.225 721.458 199.386 716.564 199.477 714.365 197.901 711.671 199.634 706.932 202.683 696.987 211.917 693.029 217.675 689.539 222.753 690.116 225.827 687.923 234.183 685.435 243.661 681.411 264.967 678.103 274.539 674.869 283.899 670.177 288.871 668.075 291.62 667.201 292.763 665.774 291.581 665.204 291.409 663.802 290.986 662.015 290.518 659.664 289.08 657.312 287.642 654.776 286.06 651.095 282.783 647.414 279.506 642.186 275.143 637.575 269.419 632.964 263.695 627.229 256.815 623.432 248.436 619.634 240.058 616.174 225.144 614.79 219.151 614.037 215.893 614.687 213.901 615.126 212.473 615.935 209.847 616.72 205.583 619.64 203.39 622.559 201.196 627.013 200.034 632.642 199.314 638.27 198.594 644.65 199.14 653.411 199.069 662.172 198.998 672.161 198.894 685.208 198.888 698.254 198.882 716.137 199.034 731.69 199.031 747.244 199.027 763.226 199.036 778.527 198.866 793.828 198.695 809.071 200.505 823.495 198.007 837.918 195.508 851.993 191.769 865.069 183.876 878.145 175.983 894.517 159.771 901.951 150.647 909.171 141.787 906.112 139.079 909.673 129.135 913.341 118.896 919.558 96.1447 923.955 89.2114 927.224 84.0556 933.326 86.5503 936.054 87.5351 939.721 88.8595 942.99 93.9524 945.961 97.1578 948.931 100.363 951.031 102.479 953.875 106.768 956.718 111.056 960.474 115.343 963.022 122.888 965.57 130.434 970.106 143.656 969.165 152.039 968.224 160.422 962.926 167.325 957.375 173.188 951.824 179.05 944.72 183.103 935.857 187.215 926.994 191.327 917.509 195.929 904.197 197.859 890.884 199.789 871.915 198.592 855.981 198.796 840.047 199 824.036 199.083 808.592 199.083 793.148 199.083 777.84 198.767 763.318 198.796 748.797 198.826 730.071 199.099 721.464 199.259 716.565 199.35 714.373 198.024 711.676 199.759 706.938 202.806 696.992 211.79 693.034 217.546 689.497 222.689 690.15 225.827 687.927 234.295 685.439 243.772 681.413 264.835 678.105 274.41 674.835 283.874 670.202 288.966 668.077 291.745 667.194 292.9 665.781 291.458 665.205 291.284 663.803 290.861 662.015 290.643 659.663 289.205 657.312 287.767 654.776 285.934 651.095 282.657 647.414 279.38 642.186 275.269 637.575 269.545 632.965 263.821 627.23 256.689 623.432 248.312 619.634 239.934 616.174 225.274 614.79 219.28 614.008 215.897 614.67 213.826 615.126 212.344 615.934 209.717 616.72 205.712 619.639 203.519 622.558 201.326 627.013 199.908 632.641 199.187 638.27 198.466 644.65 199.265 653.411 199.195 662.171 199.124 672.16 198.769 685.206 198.763 698.253 198.756 716.136 199.16 731.689 199.156 747.242 199.152 763.225 198.91 778.525 198.74 793.826 198.57 809.069 200.632 823.493 198.133 837.917 195.635 851.992 191.64 865.068 183.747 878.144 175.854 894.516 159.897 901.95 150.775 909.245 141.823 906.074 139.06 909.673 129.012 913.34 118.772 919.558 96.2708 923.955 89.3371 927.234 84.1656 933.318 86.4213 936.053 87.4091 939.721 88.7334 942.99 94.0778 945.96 97.2833 948.931 100.489 951.031 102.353 953.875 106.642 956.718 110.93 960.473 115.468 963.022 123.013 965.57 130.559 970.106 143.529 969.165 151.913 968.224 160.297 962.926 167.455 957.375 173.317 951.824 179.179 944.72 182.974 935.857 187.085 926.994 191.197 917.51 196.055 904.197 197.986 890.885 199.917 871.916 198.468 855.982 198.672 840.048 198.876 824.037 199.21 808.593 199.21 793.149 199.21 777.84 198.642 763.319 198.672 748.797 198.701 730.071 199.226 721.464 199.386 716.57 199.477 714.371 197.901 711.677 199.632 706.938 202.676 696.993 211.893 693.034 217.649 689.543 222.726 690.122 225.806 687.927 234.168 685.439 243.649 681.414 264.96 678.105 274.535 674.871 283.897 670.179 288.87 668.077 291.62 667.203 292.763 665.775 291.582 665.205 291.41 663.803 290.986 662.015 290.517 659.663 289.079 657.311 287.641 654.776 286.059 651.095 282.783 647.414 279.506 642.186 275.143 637.576 269.419 632.965 263.695 627.23 256.816 623.432 248.438 619.635 240.06 616.174 225.145 614.79 219.151 614.037 215.893 614.687 213.901 615.126 212.473 615.934 209.847 616.72 205.583 619.639 203.39 622.558 201.196 627.013 200.034 632.641 199.314 638.27 198.594 644.65 199.14 653.411 199.069 662.171 198.998 672.16 198.894 685.206 198.888 698.253 198.882 718.99 199.034 731.689 199.03 744.387 199.027 751.341 198.872 761.398 198.869 771.454 198.866 781.818 198.963 792.028 199.01" stroke="#4472C4" stroke-width="2" stroke-linecap="round" stroke-linejoin="round" stroke-miterlimit="10" fill="none"/></g><g><text fill="#595959" font-family="Calibri,Calibri_MSFontService,sans-serif" font-weight="400" font-size="12" transform="translate(743.686 331)">-0.0005</text></g><g><text fill="#595959" font-family="Calibri,Calibri_MSFontService,sans-serif" font-weight="400" font-size="12" transform="translate(743.686 305)">-0.0004</text></g><g><text fill="#595959" font-family="Calibri,Calibri_MSFontService,sans-serif" font-weight="400" font-size="12" transform="translate(743.686 280)">-0.0003</text></g><g><text fill="#595959" font-family="Calibri,Calibri_MSFontService,sans-serif" font-weight="400" font-size="12" transform="translate(743.686 254)">-0.0002</text></g><g><text fill="#595959" font-family="Calibri,Calibri_MSFontService,sans-serif" font-weight="400" font-size="12" transform="translate(743.686 228)">-0.0001</text></g><g><text fill="#595959" font-family="Calibri,Calibri_MSFontService,sans-serif" font-weight="400" font-size="12" transform="translate(774.706 202)">0</text></g><g><text fill="#595959" font-family="Calibri,Calibri_MSFontService,sans-serif" font-weight="400" font-size="12" transform="translate(747.359 176)">0.0001</text></g><g><text fill="#595959" font-family="Calibri,Calibri_MSFontService,sans-serif" font-weight="400" font-size="12" transform="translate(747.359 150)">0.0002</text></g><g><text fill="#595959" font-family="Calibri,Calibri_MSFontService,sans-serif" font-weight="400" font-size="12" transform="translate(747.359 124)">0.0003</text></g><g><text fill="#595959" font-family="Calibri,Calibri_MSFontService,sans-serif" font-weight="400" font-size="12" transform="translate(747.359 99)">0.0004</text></g><g><text fill="#595959" font-family="Calibri,Calibri_MSFontService,sans-serif" font-weight="400" font-size="12" transform="translate(747.359 73)">0.0005</text></g><g><text fill="#595959" font-family="Calibri,Calibri_MSFontService,sans-serif" font-weight="400" font-size="12" transform="translate(565.667 218)">-1</text></g><g><text fill="#595959" font-family="Calibri,Calibri_MSFontService,sans-serif" font-weight="400" font-size="12" transform="translate(605.388 218)">-0.8</text></g><g><text fill="#595959" font-family="Calibri,Calibri_MSFontService,sans-serif" font-weight="400" font-size="12" transform="translate(649.663 218)">-0.6</text></g><g><text fill="#595959" font-family="Calibri,Calibri_MSFontService,sans-serif" font-weight="400" font-size="12" transform="translate(693.938 218)">-0.4</text></g><g><text fill="#595959" font-family="Calibri,Calibri_MSFontService,sans-serif" font-weight="400" font-size="12" transform="translate(738.213 218)">-0.2</text></g><g><text fill="#595959" font-family="Calibri,Calibri_MSFontService,sans-serif" font-weight="400" font-size="12" transform="translate(788.878 218)">0</text></g><g><text fill="#595959" font-family="Calibri,Calibri_MSFontService,sans-serif" font-weight="400" font-size="12" transform="translate(828.6 218)">0.2</text></g><g><text fill="#595959" font-family="Calibri,Calibri_MSFontService,sans-serif" font-weight="400" font-size="12" transform="translate(872.875 218)">0.4</text></g><g><text fill="#595959" font-family="Calibri,Calibri_MSFontService,sans-serif" font-weight="400" font-size="12" transform="translate(917.15 218)">0.6</text></g><g><text fill="#595959" font-family="Calibri,Calibri_MSFontService,sans-serif" font-weight="400" font-size="12" transform="translate(961.425 218)">0.8</text></g><g><text fill="#595959" font-family="Calibri,Calibri_MSFontService,sans-serif" font-weight="400" font-size="12" transform="translate(1010.25 218)">1</text></g></g></svg>