<svg width="503" height="326" xmlns="http://www.w3.org/2000/svg" xmlns:xlink="http://www.w3.org/1999/xlink" overflow="hidden"><defs><clipPath id="clip0"><rect x="639" y="179" width="503" height="326"/></clipPath></defs><g clip-path="url(#clip0)" transform="translate(-639 -179)"><g><path d="M0 0 0.000104987 295" stroke="#BFBFBF" stroke-linejoin="round" stroke-miterlimit="10" fill="none" fill-rule="evenodd" transform="matrix(1 0 0 -1 891.5 489.5)"/></g><g><path d="M659.5 363.5 1123.5 363.5" stroke="#BFBFBF" stroke-linejoin="round" stroke-miterlimit="10" fill="none" fill-rule="evenodd"/></g><g><path d="M891.748 362.962C891.778 362.961 891.808 362.961 891.837 362.96 891.865 362.96 891.877 362.96 891.917 362.96 891.958 362.96 891.998 362.96 892.079 362.96 892.16 362.96 892.241 362.96 892.402 362.96 892.564 362.96 892.726 362.96 893.049 362.96 893.372 362.96 893.696 362.96 894.342 362.96 894.989 362.96 895.636 362.96 896.928 362.96 898.22 362.96 899.517 362.96 902.096 362.96 904.675 362.96 907.287 362.966 912.404 362.959 917.521 362.953 925.241 363.121 932.798 362.92 940.354 362.72 953.586 361.949 957.744 361.755M1073.05 283.603C1073.81 286.047 1077.03 293.844 1077.63 298.267 1078.18 302.365 1079 304.667 1076.64 310.139 1074.09 316.044 1068.85 326.405 1062.34 333.695 1055.83 340.985 1049.66 348.991 1037.57 353.879 1025.47 358.767 1006.34 361.525 989.774 363.022 973.205 364.519 954.996 362.856 938.151 362.863 921.305 362.869 904.653 363.06 888.699 363.064 872.744 363.068 857.137 360.284 842.422 362.888 827.708 365.492 808.948 371.481 800.41 378.688 791.872 385.896 793.478 398.945 791.195 406.133 788.911 413.322 788.908 416.062 786.711 421.82 784.514 427.577 780.011 437.168 778.011 440.677 777.031 442.396 775.504 442.657 774.71 442.871 773.089 443.308 770.841 443.745 768.289 443.298 765.735 442.85 762.991 441.878 759.391 440.187 755.791 438.496 751.349 436.265 746.689 433.151 742.029 430.037 736.743 426.481 731.432 421.504 726.122 416.527 719.113 410.388 714.825 403.287 710.537 396.186 707.157 383.783 705.704 378.899 705 376.532 705.69 374.984 706.108 373.979 706.97 371.904 707.812 368.189 710.877 366.452 713.943 364.715 718.585 364.134 724.5 363.555 730.414 362.976 737.126 363.043 746.364 362.978 755.602 362.913 766.199 363.18 779.928 363.165 793.657 363.151 812.409 362.901 828.737 362.891 845.065 362.88 861.839 363.521 877.896 363.101 893.953 362.681 909.947 364.859 925.079 360.372 940.21 355.884 959.721 341.744 968.688 336.176 974.526 332.552 975.672 330.429 978.88 326.967 983.808 321.65 993.982 310.108 998.253 304.273 1002.33 298.696 1001.61 298.118 1004.51 291.954 1007.53 285.503 1012.2 272.881 1016.42 265.57 1020.63 258.258 1026.91 250.879 1029.82 248.085 1031.29 246.666 1032.87 248.59 1033.85 248.805 1035.79 249.229 1038.62 249.204 1041.46 250.627 1044.29 252.051 1047.12 254.306 1050.86 257.346 1054.61 260.385 1059.87 263.708 1063.92 268.866 1067.97 274.024 1073.24 280.845 1075.18 288.292 1077.12 295.738 1078.16 305.393 1075.54 313.542 1072.93 321.691 1066.87 329.951 1059.46 337.185 1052.05 344.42 1043.09 352.601 1031.08 356.949 1019.07 361.296 1003.16 362.325 987.399 363.271 971.636 364.218 953.168 362.622 936.503 362.627 919.837 362.632 903.27 363.294 887.406 363.299 871.543 363.304 849.001 362.765 841.321 362.659M790.589 407.65C789.872 410.204 788.396 417.545 786.287 422.976 784.178 428.408 779.842 436.92 777.932 440.239 776.916 442.005 775.642 442.642 774.831 442.89 773.307 443.358 771.276 443.413 768.789 443.043 766.301 442.674 763.472 442.291 759.904 440.675 756.337 439.058 751.981 436.37 747.384 433.345 742.788 430.32 737.588 427.337 732.325 422.524 727.062 417.711 720.231 411.476 715.808 404.465 711.385 397.453 706.091 387.071 705.789 380.454 705.487 373.838 708.981 367.627 713.995 364.766 719.009 361.905 727.542 363.593 735.873 363.289 744.203 362.985 752.8 362.964 763.98 362.943 775.159 362.922 788.239 363.176 802.951 363.164 817.663 363.151 835.986 362.901 852.251 362.868 868.515 362.835 884.888 364.863 900.539 362.966 916.189 361.068 931.641 358.97 946.151 351.482 960.662 343.995 979.11 325.786 987.602 318.04 993.563 312.602 995.451 307.472 997.101 305.006 999.206 301.861 999.691 301.136 1001.71 296.965 1003.96 292.307 1006.95 284.503 1010.61 277.058 1014.27 269.613 1020.47 256.984 1023.66 252.296 1025.61 249.425 1027.98 249.113 1029.75 248.932 1032.63 248.636 1037.54 249.255 1040.97 250.524 1044.4 251.792 1046.85 253.79 1050.35 256.542 1053.86 259.295 1058.26 262.714 1062 267.037 1065.73 271.36 1070.26 275.56 1072.78 282.48 1075.3 289.399 1078.62 300.283 1077.13 308.553 1075.64 316.823 1070.33 324.578 1063.85 332.097 1057.37 339.617 1049.13 348.544 1038.22 353.669 1027.32 358.793 1013.58 361.301 998.426 362.844 983.269 364.387 964.072 362.898 947.284 362.925 930.495 362.951 913.766 363.001 897.696 363.002 881.626 363.003 865.818 361.872 850.863 362.931 835.907 363.99 816.779 365.192 807.965 369.353 799.151 373.514 800.452 382.059 797.977 387.897 795.501 393.735 795.497 396.636 793.111 404.381 790.725 412.125 787.323 427.451 783.661 434.364 780 441.276 774.915 444.711 771.142 445.856 767.368 447 764.351 442.889 761.021 441.229 757.69 439.57 754.773 438.141 751.158 435.898 747.544 433.656 744.414 431.923 739.333 427.777 734.252 423.63 726.081 417.947 720.672 411.02 715.263 404.093 708.724 393.489 706.879 386.215 705.034 378.941 708.532 370.891 709.604 367.377 710.236 365.307 711.875 365.509 713.315 365.132 715.761 364.49 719.254 363.881 724.277 363.529 729.299 363.178 734.034 363.087 743.449 363.021 752.864 362.956 766.422 363.153 780.768 363.137 795.114 363.12 813.184 362.933 829.524 362.922 845.863 362.911 862.727 363.536 878.808 363.071 894.888 362.606 910.888 364.768 926.008 360.132 941.129 355.495 960.584 340.933 969.532 335.251 975.326 331.573 976.519 329.569 979.7 326.042 984.614 320.594 994.784 308.496 999.016 302.563 1002.95 297.041 1002.35 296.346 1005.09 290.441 1008.03 284.095 1012.51 271.561 1016.67 264.488 1020.83 257.415 1027.18 250.654 1030.05 248.002 1031.46 246.693 1032.96 248.369 1033.87 248.578 1035.7 249.003 1038.31 249.154 1041.08 250.548 1043.86 251.942 1046.74 253.902 1050.52 256.942 1054.29 259.983 1059.64 263.612 1063.74 268.793 1067.84 273.973 1073.15 280.571 1075.13 288.024 1077.11 295.477 1078.21 305.353 1075.61 313.512 1073.01 321.67 1066.94 329.729 1059.54 336.975 1052.15 344.222 1043.22 352.631 1031.23 356.991 1019.24 361.351 1003.37 362.172 987.618 363.134 971.865 364.096 953.38 362.759 936.712 362.764 920.043 362.768 903.473 363.157 887.606 363.162 871.738 363.167 856.175 359.926 841.505 362.794 826.835 365.662 808.054 372.916 799.586 380.37 791.118 387.824 792.9 400.463 790.698 407.518 788.495 414.572 788.492 417.214 786.37 422.696 784.248 428.177 779.888 437.056 777.965 440.405 776.987 442.109 775.618 442.553 774.835 442.79 773.298 443.254 771.236 443.572 768.739 443.192 766.242 442.813 763.424 442.14 759.853 440.514 756.281 438.888 751.913 436.472 747.308 433.436 742.702 430.399 737.491 427.132 732.221 422.297 726.95 417.461 720.092 411.452 715.685 404.423 711.277 397.393 706.033 386.712 705.775 380.118 705.518 373.524 709.093 367.686 714.139 364.858 719.186 362.03 727.706 363.446 736.054 363.149 744.401 362.853 753.011 363.102 764.224 363.081 775.436 363.06 788.595 363.037 803.329 363.025 818.062 363.012 836.364 363.041 852.626 363.007 868.888 362.972 885.256 364.747 900.899 362.819 916.543 360.891 931.986 358.981 946.486 351.44 960.986 343.899 979.419 325.356 987.899 317.572 993.777 312.175 994.22 310.489 997.363 304.732 1001.9 296.428 1009.57 277.316 1015.1 267.746 1020.62 258.176 1026.77 250.441 1030.5 247.309 1033.26 245 1035.18 247.917 1037.51 248.956 1040.66 250.366 1045.93 253.343 1049.44 255.769 1052.95 258.196 1054.87 259.403 1058.58 263.515 1062.29 267.627 1068.54 273.299 1071.7 280.44 1074.86 287.582 1078.69 297.935 1077.52 306.362 1076.35 314.789 1070.97 323.26 1064.69 331.004 1058.42 338.749 1050.53 347.547 1039.85 352.828 1029.18 358.108 1015.73 360.988 1000.64 362.688 985.552 364.387 966.143 362.987 949.303 363.023 932.463 363.059 915.718 362.903 899.606 362.903 883.493 362.904 860.458 363.007 852.628 363.027M794.623 399.545C793.039 404.859 788.599 423.772 785.116 431.432 781.633 439.091 776.087 443.242 773.727 445.501 772.709 446.475 771.541 445.161 770.953 444.988 769.588 444.588 768.034 444.154 765.542 443.1 763.05 442.045 760.409 441.224 756 438.662 751.591 436.099 745.045 432.42 739.088 427.723 733.131 423.026 725.64 417.446 720.26 410.479 714.879 403.512 708.565 393.119 706.804 385.921 705.042 378.723 708.597 370.761 709.69 367.293 710.331 365.26 711.953 365.482 713.365 365.115 715.774 364.489 719.164 363.887 724.143 363.538 729.121 363.189 733.854 363.09 743.237 363.023 752.62 362.956 766.12 363.152 780.443 363.136 794.765 363.119 815.914 362.933 829.172 362.924 842.431 362.914 849.565 363.09 859.994 363.08 870.424 363.069 881.164 362.934 891.748 362.86" stroke="#4472C4" stroke-width="2" stroke-linecap="round" stroke-linejoin="round" stroke-miterlimit="10" fill="none"/></g><g><text fill="#595959" font-family="Calibri,Calibri_MSFontService,sans-serif" font-weight="400" font-size="12" transform="translate(843.436 492)">-0.0003</text></g><g><text fill="#595959" font-family="Calibri,Calibri_MSFontService,sans-serif" font-weight="400" font-size="12" transform="translate(843.436 450)">-0.0002</text></g><g><text fill="#595959" font-family="Calibri,Calibri_MSFontService,sans-serif" font-weight="400" font-size="12" transform="translate(843.436 408)">-0.0001</text></g><g><text fill="#595959" font-family="Calibri,Calibri_MSFontService,sans-serif" font-weight="400" font-size="12" transform="translate(874.456 366)">0</text></g><g><text fill="#595959" font-family="Calibri,Calibri_MSFontService,sans-serif" font-weight="400" font-size="12" transform="translate(847.109 324)">0.0001</text></g><g><text fill="#595959" font-family="Calibri,Calibri_MSFontService,sans-serif" font-weight="400" font-size="12" transform="translate(847.109 282)">0.0002</text></g><g><text fill="#595959" font-family="Calibri,Calibri_MSFontService,sans-serif" font-weight="400" font-size="12" transform="translate(847.109 240)">0.0003</text></g><g><text fill="#595959" font-family="Calibri,Calibri_MSFontService,sans-serif" font-weight="400" font-size="12" transform="translate(847.109 198)">0.0004</text></g><g><text fill="#595959" font-family="Calibri,Calibri_MSFontService,sans-serif" font-weight="400" font-size="12" transform="translate(654.667 382)">-1</text></g><g><text fill="#595959" font-family="Calibri,Calibri_MSFontService,sans-serif" font-weight="400" font-size="12" transform="translate(696.538 382)">-0.8</text></g><g><text fill="#595959" font-family="Calibri,Calibri_MSFontService,sans-serif" font-weight="400" font-size="12" transform="translate(742.963 382)">-0.6</text></g><g><text fill="#595959" font-family="Calibri,Calibri_MSFontService,sans-serif" font-weight="400" font-size="12" transform="translate(789.388 382)">-0.4</text></g><g><text fill="#595959" font-family="Calibri,Calibri_MSFontService,sans-serif" font-weight="400" font-size="12" transform="translate(835.813 382)">-0.2</text></g><g><text fill="#595959" font-family="Calibri,Calibri_MSFontService,sans-serif" font-weight="400" font-size="12" transform="translate(888.628 382)">0</text></g><g><text fill="#595959" font-family="Calibri,Calibri_MSFontService,sans-serif" font-weight="400" font-size="12" transform="translate(930.5 382)">0.2</text></g><g><text fill="#595959" font-family="Calibri,Calibri_MSFontService,sans-serif" font-weight="400" font-size="12" transform="translate(976.925 382)">0.4</text></g><g><text fill="#595959" font-family="Calibri,Calibri_MSFontService,sans-serif" font-weight="400" font-size="12" transform="translate(1023.35 382)">0.6</text></g><g><text fill="#595959" font-family="Calibri,Calibri_MSFontService,sans-serif" font-weight="400" font-size="12" transform="translate(1069.78 382)">0.8</text></g><g><text fill="#595959" font-family="Calibri,Calibri_MSFontService,sans-serif" font-weight="400" font-size="12" transform="translate(1120.75 382)">1</text></g></g></svg>