<svg width="483" height="287" xmlns="http://www.w3.org/2000/svg" xmlns:xlink="http://www.w3.org/1999/xlink" overflow="hidden"><defs><clipPath id="clip0"><rect x="93" y="154" width="483" height="287"/></clipPath></defs><g clip-path="url(#clip0)" transform="translate(-93 -154)"><g><path d="M0 0 0.000104987 256" stroke="#BFBFBF" stroke-linejoin="round" stroke-miterlimit="10" fill="none" fill-rule="evenodd" transform="matrix(1 0 0 -1 335.5 425.5)"/></g><g><path d="M113.5 297.5 557.5 297.5" stroke="#BFBFBF" stroke-linejoin="round" stroke-miterlimit="10" fill="none" fill-rule="evenodd"/></g><g><path d="M335.851 297.601C335.869 297.599 335.888 297.596 335.906 297.595 335.923 297.594 335.931 297.595 335.957 297.595 335.983 297.595 336.009 297.595 336.061 297.595 336.113 297.595 336.165 297.595 336.269 297.595 336.373 297.595 336.476 297.595 336.684 297.595 336.892 297.595 337.1 297.595 337.515 297.595 337.93 297.595 338.345 297.595 339.176 297.595 340.006 297.595 340.837 297.595 342.496 297.595 344.155 297.595 345.824 297.595 349.13 297.595 352.435 297.595 356.389 297.596 362.331 297.594 368.274 297.593 376.776 297.611 384.784 297.586 392.791 297.561 401.855 297.563 410.377 297.443 418.899 297.324 427.011 297.152 435.914 296.868 444.817 296.583 459.146 295.926 463.793 295.737M513.142 235.364C513.177 236.92 513.689 240.485 513.369 245.588 513.018 251.179 512.761 261.676 511.036 268.91 509.311 276.144 508.799 284.518 503.018 288.993 497.237 293.467 485.976 294.4 476.351 295.756 466.726 297.111 458.387 296.832 445.268 297.124 432.15 297.416 413.486 297.413 397.641 297.509 381.796 297.604 365.628 297.698 350.197 297.699 334.765 297.699 319.531 297.513 305.053 297.512 290.576 297.512 276.456 297.693 263.331 297.698 250.207 297.703 237.628 296.516 226.306 297.544 214.984 298.572 204.381 292.376 195.398 303.866 186.414 315.357 178.138 352.259 172.404 366.486 167.649 378.286 162.827 387.177 160.996 389.228 159.413 391 159.445 385.372 159.155 381.324 158.75 375.676 158 364.985 158.568 355.339 159.137 345.693 158.978 332.837 162.565 323.446 166.152 314.055 172.345 303.32 180.092 298.993 187.838 294.667 198.193 297.699 209.044 297.486 219.895 297.273 231.239 297.718 245.197 297.716 259.155 297.714 277.113 297.476 292.792 297.476 308.472 297.476 324.209 297.719 339.274 297.715 354.34 297.711 369.191 297.556 383.185 297.452 397.18 297.348 410.755 297.436 423.241 297.091 435.727 296.746 447.607 298.626 458.101 295.381 468.096 292.289 478.667 292.447 486.202 277.616 494.111 262.046 501.124 212.797 505.559 201.963 508 196 512.158 208.292 512.812 212.61 514 220.454 513.582 237.899 512.688 249.031 511.793 260.164 511.012 271.866 507.446 279.404 503.881 286.943 498.025 291.445 491.295 294.263 484.566 297.08 476.879 295.81 467.07 296.308 457.261 296.805 446.036 297.02 432.442 297.248 418.847 297.476 401.089 297.63 385.503 297.677 369.917 297.725 354.08 297.534 338.925 297.534 323.77 297.534 308.746 297.677 294.574 297.677 280.401 297.677 266.618 297.515 253.889 297.534 241.16 297.552 224.149 297.746 218.201 297.789M159.285 344.741C160.296 339.564 160.396 321.483 165.347 313.683 170.299 305.883 180.312 300.632 188.994 297.939 197.675 295.246 205.888 297.569 217.435 297.524 228.982 297.479 243.563 297.671 258.277 297.671 272.992 297.67 290.173 297.521 305.723 297.521 321.273 297.521 336.772 297.683 351.579 297.669 366.386 297.655 380.939 297.595 394.566 297.437 408.192 297.279 421.345 297.216 433.338 296.721 445.33 296.226 460.991 294.843 466.521 294.468M513.389 230.962C512.595 238.369 511.138 265.234 508.626 275.405 506.284 284.887 504.592 288.779 498.317 291.988 491.585 295.43 478.388 295.169 468.236 296.06 458.083 296.951 450.401 297.098 437.402 297.335 424.403 297.572 402.581 297.414 390.244 297.48 377.907 297.546 372.446 297.731 363.38 297.731 354.315 297.731 345.028 297.564 335.851 297.481" stroke="#4472C4" stroke-width="2" stroke-linecap="round" stroke-linejoin="round" stroke-miterlimit="10" fill="none"/></g><g><text fill="#595959" font-family="Calibri,Calibri_MSFontService,sans-serif" font-weight="400" font-size="12" transform="translate(293.433 428)">-0.008</text></g><g><text fill="#595959" font-family="Calibri,Calibri_MSFontService,sans-serif" font-weight="400" font-size="12" transform="translate(293.433 396)">-0.006</text></g><g><text fill="#595959" font-family="Calibri,Calibri_MSFontService,sans-serif" font-weight="400" font-size="12" transform="translate(293.433 364)">-0.004</text></g><g><text fill="#595959" font-family="Calibri,Calibri_MSFontService,sans-serif" font-weight="400" font-size="12" transform="translate(293.433 332)">-0.002</text></g><g><text fill="#595959" font-family="Calibri,Calibri_MSFontService,sans-serif" font-weight="400" font-size="12" transform="translate(318.373 300)">0</text></g><g><text fill="#595959" font-family="Calibri,Calibri_MSFontService,sans-serif" font-weight="400" font-size="12" transform="translate(297.106 268)">0.002</text></g><g><text fill="#595959" font-family="Calibri,Calibri_MSFontService,sans-serif" font-weight="400" font-size="12" transform="translate(297.106 236)">0.004</text></g><g><text fill="#595959" font-family="Calibri,Calibri_MSFontService,sans-serif" font-weight="400" font-size="12" transform="translate(297.106 204)">0.006</text></g><g><text fill="#595959" font-family="Calibri,Calibri_MSFontService,sans-serif" font-weight="400" font-size="12" transform="translate(297.106 172)">0.008</text></g><g><text fill="#595959" font-family="Calibri,Calibri_MSFontService,sans-serif" font-weight="400" font-size="12" transform="translate(108.73 316)">-1</text></g><g><text fill="#595959" font-family="Calibri,Calibri_MSFontService,sans-serif" font-weight="400" font-size="12" transform="translate(148.572 316)">-0.8</text></g><g><text fill="#595959" font-family="Calibri,Calibri_MSFontService,sans-serif" font-weight="400" font-size="12" transform="translate(192.968 316)">-0.6</text></g><g><text fill="#595959" font-family="Calibri,Calibri_MSFontService,sans-serif" font-weight="400" font-size="12" transform="translate(237.363 316)">-0.4</text></g><g><text fill="#595959" font-family="Calibri,Calibri_MSFontService,sans-serif" font-weight="400" font-size="12" transform="translate(281.759 316)">-0.2</text></g><g><text fill="#595959" font-family="Calibri,Calibri_MSFontService,sans-serif" font-weight="400" font-size="12" transform="translate(332.545 316)">0</text></g><g><text fill="#595959" font-family="Calibri,Calibri_MSFontService,sans-serif" font-weight="400" font-size="12" transform="translate(372.388 316)">0.2</text></g><g><text fill="#595959" font-family="Calibri,Calibri_MSFontService,sans-serif" font-weight="400" font-size="12" transform="translate(416.783 316)">0.4</text></g><g><text fill="#595959" font-family="Calibri,Calibri_MSFontService,sans-serif" font-weight="400" font-size="12" transform="translate(461.179 316)">0.6</text></g><g><text fill="#595959" font-family="Calibri,Calibri_MSFontService,sans-serif" font-weight="400" font-size="12" transform="translate(505.575 316)">0.8</text></g><g><text fill="#595959" font-family="Calibri,Calibri_MSFontService,sans-serif" font-weight="400" font-size="12" transform="translate(554.524 316)">1</text></g></g></svg>