<svg width="483" height="285" xmlns="http://www.w3.org/2000/svg" xmlns:xlink="http://www.w3.org/1999/xlink" overflow="hidden"><defs><clipPath id="clip0"><rect x="673" y="150" width="483" height="285"/></clipPath></defs><g clip-path="url(#clip0)" transform="translate(-673 -150)"><g><path d="M0 0 0.000104987 255" stroke="#BFBFBF" stroke-linejoin="round" stroke-miterlimit="10" fill="none" fill-rule="evenodd" transform="matrix(1 0 0 -1 914.5 420.5)"/></g><g><path d="M692.5 292.5 1137.5 292.5" stroke="#BFBFBF" stroke-linejoin="round" stroke-miterlimit="10" fill="none" fill-rule="evenodd"/></g><g><path d="M914.66 292.889C914.684 292.886 914.709 292.882 914.733 292.88 914.756 292.879 914.767 292.88 914.801 292.88 914.834 292.88 914.868 292.88 914.936 292.881 915.004 292.881 915.072 292.881 915.207 292.881 915.343 292.881 915.479 292.88 915.75 292.881 916.021 292.881 916.292 292.881 916.835 292.881 917.377 292.881 917.92 292.881 919.004 292.881 920.088 292.881 921.175 292.881 923.34 292.881 925.505 292.881 927.692 292.881 931.995 292.88 936.298 292.88 942.26 292.884 949.16 292.879 956.059 292.873 964.781 292.908 973.392 292.85 982.003 292.791 991.524 292.727 1000.83 292.528 1010.13 292.328 1020.03 292.121 1029.2 291.655 1038.37 291.189 1051.4 290.052 1055.84 289.732M1090.64 209.389C1090.68 215.027 1093 230.547 1090.89 243.216 1088.79 255.884 1083.74 277.465 1078 285.401 1072.56 292.919 1067.5 289.673 1056.45 290.83 1044.78 292.051 1024.28 292.397 1008 292.727 991.71 293.057 974.809 292.768 958.726 292.811 942.643 292.854 926.727 292.985 911.502 292.985 896.275 292.985 881.396 292.81 867.37 292.81 853.344 292.809 839.823 292.957 827.345 292.984 814.867 293.011 802.997 290.316 792.501 292.971 782.423 295.519 771.984 294.662 764.369 308.909 756.439 323.746 749.464 368.301 744.918 381.994 743.031 387.677 737.639 391.411 737.09 391.066 736 390.382 736.539 384.025 736.978 377.01 737.511 368.496 738.02 352.381 740.289 339.978 742.557 327.574 745.071 310.38 750.588 302.59 756.105 294.8 764.07 294.88 773.391 293.237 782.712 291.594 793.285 292.765 806.512 292.731 819.739 292.697 837.171 293.035 852.754 293.035 868.336 293.034 884.602 292.729 900.01 292.729 915.419 292.728 930.708 293.064 945.204 293.031 959.701 292.998 973.84 292.736 986.988 292.53 1000.14 292.324 1012.74 292.506 1024.1 291.796 1035.45 291.086 1046.08 297.216 1055.09 288.271 1064.11 279.327 1072.2 255.898 1078.18 238.129 1084.16 220.36 1088.98 181 1090.96 181.657 1092.94 182.313 1092.09 225.165 1090.06 242.069 1088.03 258.973 1084.09 274.938 1078.78 283.081 1073.47 291.223 1067.77 289.425 1058.21 290.925 1048.64 292.425 1035.28 291.72 1021.39 292.082 1007.5 292.445 990.519 293.001 974.869 293.102 959.219 293.203 942.915 292.687 927.492 292.688 912.069 292.689 896.794 293.107 882.33 293.107 867.866 293.106 853.793 292.684 840.709 292.687 827.624 292.69 815.088 292.524 803.821 293.123 792.555 293.723 782.016 286.396 773.112 296.284 764.207 306.172 756.229 336.359 750.393 352.453 744.558 368.546 739.806 394.814 738.099 392.844 736.391 390.873 737.701 356.194 740.15 340.63 742.599 325.066 746.719 307.37 752.792 299.461 758.865 291.552 765.578 294.303 776.585 293.177 787.593 292.05 803.736 292.723 818.839 292.703 833.942 292.684 851.285 293.061 867.204 293.061 883.124 293.061 899.1 292.704 914.356 292.702 929.611 292.7 944.598 293.123 958.739 293.049 972.88 292.975 986.565 292.539 999.202 292.257 1011.84 291.975 1028.67 291.506 1034.56 291.356M1092.42 205.264C1091.96 212.043 1091.58 233.416 1089.69 245.941 1087.8 258.466 1085.94 273.037 1081.08 280.413 1076.22 287.789 1068.89 288.212 1060.51 290.198 1052.14 292.183 1043.21 291.937 1030.82 292.327 1018.42 292.716 1001.47 292.384 986.128 292.535 970.784 292.685 954.263 293.223 938.747 293.229 923.232 293.234 907.75 292.567 893.034 292.566 878.318 292.566 863.91 293.227 850.452 293.228 836.994 293.228 824.043 292.374 812.288 292.569 800.532 292.765 789.457 287.677 779.919 294.4 770.382 301.123 761.723 316.472 755.062 332.909 748.402 349.345 742.855 388.037 739.956 393.019 737.057 398 736.295 377.092 737.669 362.797 739.043 348.502 743.376 318.842 748.2 307.247 752.643 296.57 758.624 295.386 766.615 293.226 775.292 290.881 787.756 293.282 800.266 293.176 812.777 293.07 826.887 292.592 841.679 292.591 856.47 292.591 873.498 293.173 889.017 293.173 904.536 293.172 920.049 292.604 934.791 292.589 949.533 292.574 963.967 293.241 977.47 293.085 990.973 292.929 1003.99 292.118 1015.81 291.653 1027.63 291.188 1038.78 295.959 1048.4 290.295 1058.03 284.632 1066.78 275.562 1073.55 257.669 1080.32 239.775 1086.46 195.389 1089.04 182.934M1082.73 277.266C1080.08 279.267 1074.52 286.781 1066.81 289.272 1059.11 291.763 1047.89 291.699 1036.48 292.212 1025.06 292.725 1012.56 292.166 998.332 292.35 984.109 292.535 966.708 293.298 951.138 293.319 935.568 293.34 919.867 292.477 904.914 292.477 889.962 292.477 875.248 293.317 861.422 293.317 847.596 293.317 834.213 292.427 821.958 292.476 809.703 292.526 798.078 290.015 787.892 293.613 777.731 297.202 768.326 298.86 760.841 314.062 753.337 329.303 746.864 373.951 742.87 385.054 741.616 388.541 736.987 383.266 736.881 380.678 736.545 372.439 738.208 349.206 740.852 335.618 743.497 322.03 746.14 306.186 752.747 299.149 759.354 292.112 769.784 294.518 780.494 293.397 791.204 292.277 802.95 292.436 817.008 292.426 831.066 292.416 852.76 293.339 864.841 293.339 876.923 293.338 881.194 292.425 889.497 292.425 897.8 292.425 906.272 293.033 914.66 293.338" stroke="#4472C4" stroke-width="2" stroke-linecap="round" stroke-linejoin="round" stroke-miterlimit="10" fill="none"/></g><g><text fill="#595959" font-family="Calibri,Calibri_MSFontService,sans-serif" font-weight="400" font-size="12" transform="translate(872.766 423)">-0.008</text></g><g><text fill="#595959" font-family="Calibri,Calibri_MSFontService,sans-serif" font-weight="400" font-size="12" transform="translate(872.766 391)">-0.006</text></g><g><text fill="#595959" font-family="Calibri,Calibri_MSFontService,sans-serif" font-weight="400" font-size="12" transform="translate(872.766 359)">-0.004</text></g><g><text fill="#595959" font-family="Calibri,Calibri_MSFontService,sans-serif" font-weight="400" font-size="12" transform="translate(872.766 327)">-0.002</text></g><g><text fill="#595959" font-family="Calibri,Calibri_MSFontService,sans-serif" font-weight="400" font-size="12" transform="translate(897.706 296)">0</text></g><g><text fill="#595959" font-family="Calibri,Calibri_MSFontService,sans-serif" font-weight="400" font-size="12" transform="translate(876.439 264)">0.002</text></g><g><text fill="#595959" font-family="Calibri,Calibri_MSFontService,sans-serif" font-weight="400" font-size="12" transform="translate(876.439 232)">0.004</text></g><g><text fill="#595959" font-family="Calibri,Calibri_MSFontService,sans-serif" font-weight="400" font-size="12" transform="translate(876.439 200)">0.006</text></g><g><text fill="#595959" font-family="Calibri,Calibri_MSFontService,sans-serif" font-weight="400" font-size="12" transform="translate(876.439 168)">0.008</text></g><g><text fill="#595959" font-family="Calibri,Calibri_MSFontService,sans-serif" font-weight="400" font-size="12" transform="translate(687.877 311)">-1</text></g><g><text fill="#595959" font-family="Calibri,Calibri_MSFontService,sans-serif" font-weight="400" font-size="12" transform="translate(727.756 311)">-0.8</text></g><g><text fill="#595959" font-family="Calibri,Calibri_MSFontService,sans-serif" font-weight="400" font-size="12" transform="translate(772.189 311)">-0.6</text></g><g><text fill="#595959" font-family="Calibri,Calibri_MSFontService,sans-serif" font-weight="400" font-size="12" transform="translate(816.622 311)">-0.4</text></g><g><text fill="#595959" font-family="Calibri,Calibri_MSFontService,sans-serif" font-weight="400" font-size="12" transform="translate(861.055 311)">-0.2</text></g><g><text fill="#595959" font-family="Calibri,Calibri_MSFontService,sans-serif" font-weight="400" font-size="12" transform="translate(911.878 311)">0</text></g><g><text fill="#595959" font-family="Calibri,Calibri_MSFontService,sans-serif" font-weight="400" font-size="12" transform="translate(951.758 311)">0.2</text></g><g><text fill="#595959" font-family="Calibri,Calibri_MSFontService,sans-serif" font-weight="400" font-size="12" transform="translate(996.191 311)">0.4</text></g><g><text fill="#595959" font-family="Calibri,Calibri_MSFontService,sans-serif" font-weight="400" font-size="12" transform="translate(1040.62 311)">0.6</text></g><g><text fill="#595959" font-family="Calibri,Calibri_MSFontService,sans-serif" font-weight="400" font-size="12" transform="translate(1085.06 311)">0.8</text></g><g><text fill="#595959" font-family="Calibri,Calibri_MSFontService,sans-serif" font-weight="400" font-size="12" transform="translate(1134.04 311)">1</text></g></g></svg>