<svg width="534" height="342" xmlns="http://www.w3.org/2000/svg" xmlns:xlink="http://www.w3.org/1999/xlink" overflow="hidden"><defs><clipPath id="clip0"><rect x="56" y="181" width="534" height="342"/></clipPath></defs><g clip-path="url(#clip0)" transform="translate(-56 -181)"><g><path d="M0 0 0.000104987 311" stroke="#BFBFBF" stroke-linejoin="round" stroke-miterlimit="10" fill="none" fill-rule="evenodd" transform="matrix(1 0 0 -1 323.5 507.5)"/></g><g><path d="M76.5001 369.5 571.5 369.5" stroke="#BFBFBF" stroke-linejoin="round" stroke-miterlimit="10" fill="none" fill-rule="evenodd"/></g><g><path d="M323.949 369.108C323.98 369.108 324.013 369.106 324.043 369.106 324.073 369.106 324.086 369.106 324.129 369.106 324.173 369.106 324.216 369.106 324.302 369.106 324.388 369.106 324.474 369.106 324.647 369.106 324.819 369.106 324.992 369.106 325.337 369.106 325.682 369.106 326.027 369.106 326.717 369.106 327.406 369.106 328.097 369.106 329.476 369.106 330.855 369.106 332.238 369.106 334.99 369.106 337.743 369.106 340.53 369.111 345.99 369.105 351.45 369.1 359.632 369.244 367.75 369.073 375.868 368.902 390.206 368.246 394.698 368.081M519.631 281.506C520.107 284.859 522.816 294.85 522.49 301.624 522.163 308.397 523.354 313.885 517.673 322.147 511.992 330.408 495.362 345.209 488.404 351.19 483.008 355.828 481.382 356.104 475.922 358.036 468.88 360.527 457.562 364.323 446.152 366.14 434.741 367.958 422.399 368.448 407.458 368.943 392.517 369.438 373.456 369.085 356.507 369.112 339.557 369.14 322.204 369.005 305.762 369.108 289.32 369.21 267.724 369.57 257.857 369.726 252.206 369.815 248.166 369.995 246.559 370.04 243.787 370.117 243.713 369.865 241.015 370.197 238.283 370.533 232.739 371.351 230.165 372.055 228.607 372.48 226.942 372.233 225.574 374.419 223.313 378.03 219.741 385.594 216.601 393.723 213.46 401.853 210.808 409.697 206.731 423.195 202.654 436.694 197.674 463.843 192.14 474.714 186.903 485.003 180.377 490.773 173.529 488.421 166.294 485.935 156.008 470.923 148.731 459.798 141.454 448.673 133.626 434.051 129.867 421.671 126.108 409.292 126.405 392.593 126.177 385.519 126.07 382.167 127.591 380.287 128.504 379.227 130.431 376.988 133.293 373.716 137.742 372.087 142.192 370.458 147.321 369.94 155.202 369.453 163.082 368.967 172.024 369.217 185.026 369.167 198.029 369.116 216.381 369.158 233.218 369.148 250.056 369.138 268.642 369.243 286.051 369.108 303.459 368.973 320.995 370.33 337.667 368.337 354.34 366.343 370.721 364.567 386.086 357.146 401.451 349.725 417.578 339.494 429.856 323.812 442.134 308.129 450.433 280.191 459.755 263.053 469.076 245.914 478.397 224.1 485.786 220.981 493.176 217.862 499.38 237.16 504.092 244.339 508.805 251.517 511.166 256.673 514.062 264.052 516.958 271.43 521.037 278.618 521.469 288.607 521.9 298.596 522.689 313.198 516.649 323.985 510.608 334.772 499.125 345.98 485.226 353.33 471.327 360.681 450.385 365.472 433.255 368.086 416.126 370.7 399.868 368.828 382.448 369.013 365.028 369.199 346.015 369.189 328.737 369.201 311.459 369.212 289.068 369.078 278.78 369.085 272.897 369.088 270.314 369.193 267.014 369.241 261.246 369.324 248.743 369.479 244.168 369.583 241.863 369.635 240.711 369.499 239.566 369.864 237.293 370.589 232.639 372.572 230.529 373.93 228.42 375.289 228.697 375.972 226.907 378.015 225.118 380.057 222.594 381.601 219.791 386.183 217.665 389.658 213.02 395.102 210.091 405.503 206.229 419.218 201.663 454.152 196.617 468.472 191.892 481.879 185.976 491.046 179.813 491.424 173.23 491.828 164.67 480.526 157.119 470.897 149.568 461.267 139.792 446.223 134.509 433.647 129.227 421.072 125.279 405.546 125.424 395.442 125.569 385.338 129.755 377.357 135.381 373.025 141.007 368.692 150.144 370.101 159.18 369.446 168.216 368.792 177.371 369.142 189.597 369.096 201.822 369.05 216.609 369.17 232.534 369.169 248.459 369.168 267.812 369.219 285.148 369.091 302.484 368.962 319.911 370.316 336.551 368.397 353.19 366.479 369.598 364.811 384.986 357.578 400.374 350.346 416.56 340.323 428.88 325.003 441.2 309.682 449.564 283.099 458.906 265.656 468.248 248.212 477.48 224.036 484.932 220.343 492.384 216.651 498.821 236.341 503.618 243.501 508.414 250.662 510.768 255.962 513.714 263.306 516.66 270.65 520.725 277.596 521.295 287.565 521.865 297.534 522.917 312.326 517.132 323.118 511.347 333.911 500.356 344.821 486.584 352.32 472.813 359.818 451.632 365.345 434.505 368.111 417.377 370.877 401.237 368.717 383.82 368.914 366.402 369.111 347.313 369.281 330 369.293 312.687 369.305 290.25 368.998 279.941 368.986 274.046 368.98 271.459 369.156 268.152 369.223 262.37 369.342 249.856 369.595 245.247 369.697 242.871 369.75 241.705 369.54 240.495 369.837 238.149 370.412 233.292 371.955 231.168 373.151 229.044 374.347 229.441 375.081 227.751 377.01 226.062 378.94 223.743 380.86 221.03 384.729 219.14 387.424 214.1 391.512 211.473 400.222 207.702 412.726 203.287 444.37 198.403 459.755 193.518 475.141 188.523 490.071 182.166 492.536 175.808 495 167.827 483.505 160.258 474.541 152.689 465.578 142.517 451.137 136.753 438.755 130.989 426.374 126.344 411.021 125.672 400.252 125 389.482 130.815 378.796 132.721 374.14 133.619 371.944 135.843 372.677 137.109 372.316 139.793 371.551 143.171 370.061 148.825 369.552 154.229 369.066 159.927 369.338 171.031 369.266 182.648 369.19 201.847 369.113 218.527 369.097 235.207 369.08 253.625 369.238 271.11 369.168 288.596 369.099 306.461 369.805 323.44 368.68 340.418 367.555 357.188 367.813 372.979 362.417 388.77 357.021 405.235 347.908 418.186 336.304 431.136 324.701 440.923 311.867 450.683 292.796 460.442 273.725 469.939 232.774 476.742 221.877 480.91 215.201 488.62 224.983 491.5 227.413 496.201 231.381 501.061 239.262 504.947 245.683 508.832 252.104 511.892 256.421 514.814 265.938 517.736 275.455 523.446 291.297 522.48 302.787 521.513 314.277 518.547 325.032 509.014 334.876 499.481 344.719 480.946 356.245 465.281 361.848 449.616 367.451 432.323 367.274 415.024 368.494 397.726 369.713 379.137 369.075 361.49 369.167 343.843 369.26 325.931 369.025 309.141 369.051 292.351 369.077 270.711 369.252 260.75 369.323 255.064 369.363 250.992 369.449 249.379 369.476 246.586 369.522 246.516 369.285 243.795 369.604 241.041 369.927 236.928 368.581 232.856 371.414 228.784 374.248 222.097 383.51 219.361 386.604 217.883 388.277 217.224 388.494 216.444 389.983 215.499 391.787 212.542 396.199 210.708 403.132 207.91 413.716 204.872 438.799 199.653 453.483 194.435 468.167 187.741 489.938 179.396 491.238 171.05 492.537 157.749 472.626 149.581 461.28 141.413 449.934 134.33 435.623 130.386 423.163 126.443 410.703 126.332 393.628 125.918 386.519 125.735 383.361 127.137 381.539 127.906 380.511 129.639 378.197 132.102 374.48 136.314 372.635 140.525 370.791 145.644 370.012 153.175 369.444 160.706 368.876 169.23 369.282 181.499 369.227 193.769 369.171 210.461 369.124 226.792 369.111 243.123 369.099 262.063 369.255 279.484 369.15 296.906 369.046 314.534 370.084 331.322 368.483 348.109 366.881 364.655 366.038 380.208 359.542 395.761 353.047 412.063 343.442 424.639 329.51 437.214 315.577 446.181 294.027 455.66 275.945 465.14 257.862 474.683 228.03 481.517 221.015 488.351 214 492.143 228.643 496.664 233.856 501.185 239.07 505.106 245.568 508.643 252.295 512.179 259.022 515.752 264.281 517.882 274.219 520.012 284.157 524 300.791 521.421 311.923 518.843 323.055 507.239 334.923 502.411 341.014 498.548 345.886 497.14 345.79 492.449 348.468 486.584 351.815 477.436 357.814 467.223 361.098 457.01 364.381 445.322 366.862 431.17 368.168 417.019 369.475 399.073 368.747 382.314 368.935 365.555 369.124 347.51 369.296 330.616 369.302 313.722 369.307 291.195 368.983 280.951 368.966 275.05 368.957 272.486 369.135 269.151 369.203 263.362 369.322 250.866 369.575 246.214 369.677 243.724 369.731 242.551 369.534 241.236 369.814 238.779 370.337 235.211 369.895 231.47 372.816 227.729 375.736 222.743 380.375 218.79 387.336 214.838 394.297 211.482 400.866 207.756 414.581 204.03 428.296 200.744 456.636 196.433 469.624 192.165 482.483 188.369 492.284 181.894 492.505 175.354 492.728 165.123 480.817 157.195 470.964 149.267 461.112 139.621 446.048 134.325 433.39 129.029 420.732 125.22 405.094 125.418 395.018 125.616 384.941 129.869 377.201 135.515 372.932 141.162 368.663 150.256 370.035 159.296 369.402 168.336 368.768 177.5 369.176 189.753 369.133 202.005 369.091 216.866 369.164 232.811 369.149 248.756 369.134 270.233 369.033 285.423 369.043 300.612 369.052 311.107 369.151 323.949 369.205" stroke="#4472C4" stroke-width="2" stroke-linecap="round" stroke-linejoin="round" stroke-miterlimit="10" fill="none"/></g><g><text fill="#595959" font-family="Calibri,Calibri_MSFontService,sans-serif" font-weight="400" font-size="12" transform="translate(275.686 510)">-0.0004</text></g><g><text fill="#595959" font-family="Calibri,Calibri_MSFontService,sans-serif" font-weight="400" font-size="12" transform="translate(275.686 476)">-0.0003</text></g><g><text fill="#595959" font-family="Calibri,Calibri_MSFontService,sans-serif" font-weight="400" font-size="12" transform="translate(275.686 441)">-0.0002</text></g><g><text fill="#595959" font-family="Calibri,Calibri_MSFontService,sans-serif" font-weight="400" font-size="12" transform="translate(275.686 407)">-0.0001</text></g><g><text fill="#595959" font-family="Calibri,Calibri_MSFontService,sans-serif" font-weight="400" font-size="12" transform="translate(306.706 372)">0</text></g><g><text fill="#595959" font-family="Calibri,Calibri_MSFontService,sans-serif" font-weight="400" font-size="12" transform="translate(279.359 337)">0.0001</text></g><g><text fill="#595959" font-family="Calibri,Calibri_MSFontService,sans-serif" font-weight="400" font-size="12" transform="translate(279.359 303)">0.0002</text></g><g><text fill="#595959" font-family="Calibri,Calibri_MSFontService,sans-serif" font-weight="400" font-size="12" transform="translate(279.359 268)">0.0003</text></g><g><text fill="#595959" font-family="Calibri,Calibri_MSFontService,sans-serif" font-weight="400" font-size="12" transform="translate(279.359 234)">0.0004</text></g><g><text fill="#595959" font-family="Calibri,Calibri_MSFontService,sans-serif" font-weight="400" font-size="12" transform="translate(279.359 199)">0.0005</text></g><g><text fill="#595959" font-family="Calibri,Calibri_MSFontService,sans-serif" font-weight="400" font-size="12" transform="translate(71.1666 388)">-1</text></g><g><text fill="#595959" font-family="Calibri,Calibri_MSFontService,sans-serif" font-weight="400" font-size="12" transform="translate(116.188 388)">-0.8</text></g><g><text fill="#595959" font-family="Calibri,Calibri_MSFontService,sans-serif" font-weight="400" font-size="12" transform="translate(165.763 388)">-0.6</text></g><g><text fill="#595959" font-family="Calibri,Calibri_MSFontService,sans-serif" font-weight="400" font-size="12" transform="translate(215.338 388)">-0.4</text></g><g><text fill="#595959" font-family="Calibri,Calibri_MSFontService,sans-serif" font-weight="400" font-size="12" transform="translate(264.913 388)">-0.2</text></g><g><text fill="#595959" font-family="Calibri,Calibri_MSFontService,sans-serif" font-weight="400" font-size="12" transform="translate(320.878 388)">0</text></g><g><text fill="#595959" font-family="Calibri,Calibri_MSFontService,sans-serif" font-weight="400" font-size="12" transform="translate(365.9 388)">0.2</text></g><g><text fill="#595959" font-family="Calibri,Calibri_MSFontService,sans-serif" font-weight="400" font-size="12" transform="translate(415.475 388)">0.4</text></g><g><text fill="#595959" font-family="Calibri,Calibri_MSFontService,sans-serif" font-weight="400" font-size="12" transform="translate(465.05 388)">0.6</text></g><g><text fill="#595959" font-family="Calibri,Calibri_MSFontService,sans-serif" font-weight="400" font-size="12" transform="translate(514.625 388)">0.8</text></g><g><text fill="#595959" font-family="Calibri,Calibri_MSFontService,sans-serif" font-weight="400" font-size="12" transform="translate(568.753 388)">1</text></g></g></svg>