<svg width="499" height="310" xmlns="http://www.w3.org/2000/svg" xmlns:xlink="http://www.w3.org/1999/xlink" overflow="hidden"><defs><clipPath id="clip0"><rect x="106" y="241" width="499" height="310"/></clipPath></defs><g clip-path="url(#clip0)" transform="translate(-106 -241)"><g><path d="M0 0 0.000104987 279" stroke="#BFBFBF" stroke-linejoin="round" stroke-miterlimit="10" fill="none" fill-rule="evenodd" transform="matrix(1 0 0 -1 356.5 535.5)"/></g><g><path d="M125.5 415.5 587.5 415.5" stroke="#BFBFBF" stroke-linejoin="round" stroke-miterlimit="10" fill="none" fill-rule="evenodd"/></g><g><path d="M356.489 416.267C356.518 416.265 356.548 416.262 356.576 416.261 356.604 416.26 356.616 416.261 356.656 416.261 356.696 416.261 356.736 416.261 356.816 416.261 356.896 416.261 356.976 416.261 357.136 416.261 357.296 416.261 357.456 416.261 357.776 416.262 358.096 416.262 358.416 416.262 359.056 416.262 359.695 416.262 360.335 416.262 361.614 416.262 362.893 416.261 364.176 416.262 366.728 416.261 369.28 416.261 371.865 416.272 376.928 416.26 381.991 416.247 393.743 416.197 397.107 416.185M540.599 340.47C539.855 344.56 541.401 353.884 536.133 365.009 530.865 376.133 515.444 399.192 508.991 407.218 504.907 412.297 501.549 412.216 497.416 413.166 490.886 414.667 480.391 415.711 469.81 416.225 459.228 416.739 447.783 416.236 433.928 416.248 420.074 416.26 402.398 416.295 386.68 416.296 370.963 416.297 347.467 416.26 339.624 416.253M284.724 441.385C283.867 443.955 282.117 450.34 279.583 456.806 277.049 463.271 271.908 475.72 269.522 480.179 268.237 482.578 266.392 483.143 265.264 483.556 263.168 484.324 259.855 484.898 256.943 484.785 254.031 484.672 251.571 483.9 247.791 482.877 244.01 481.854 239.392 480.547 234.261 478.65 229.129 476.752 223.711 474.867 217.002 471.491 210.293 468.115 200.754 463.62 194.006 458.395 187.258 453.169 179.999 445.86 176.514 440.138 173.028 434.416 173.303 427.277 173.092 424.064 172.965 422.135 174.176 421.482 175.249 420.861 177.037 419.827 179.69 418.547 183.816 417.862 187.942 417.177 192.699 416.925 200.007 416.751 207.314 416.576 215.606 416.872 227.664 416.813 239.721 416.753 256.739 416.439 272.353 416.392 287.966 416.346 305.202 416.714 321.345 416.534 337.488 416.353 353.749 420.249 369.21 415.31 384.671 410.372 399.862 400.725 414.11 386.902 428.358 373.078 443.313 347.528 454.699 332.368 466.084 317.208 473.78 302.965 482.424 295.943 491.068 288.921 499.711 289.282 506.564 290.237 513.416 291.192 519.169 298.114 523.539 301.673 527.909 305.232 530.099 307.134 532.784 311.59 535.442 316 539.257 319.328 539.652 328.409 540.052 337.584 540.784 353.194 535.183 366.643 529.581 380.092 518.932 400.849 506.044 409.101 493.155 417.353 473.735 414.941 457.851 416.154 441.966 417.367 426.89 416.38 410.736 416.382 394.583 416.383 376.951 416.11 360.929 416.162 344.907 416.215 324.143 416.377 314.604 416.699 309.107 416.884 306.775 415.148 303.693 418.091 298.343 423.198 286.749 440.359 282.507 447.343 279.044 453.043 279.96 455.661 278.239 459.992 276.131 465.297 271.816 475.488 269.859 479.174 268.813 481.146 267.389 481.611 266.501 482.107 264.841 483.033 262.501 484.495 259.902 484.733 257.302 484.971 254.488 484.292 250.906 483.537 247.325 482.782 243.091 481.793 238.412 480.203 233.732 478.614 228.934 476.763 222.829 474 216.725 471.238 208.787 468.285 201.785 463.627 194.783 458.97 185.717 451.871 180.818 446.055 175.92 440.238 172.259 433.411 172.393 428.728 172.528 424.044 176.409 419.913 181.626 417.956 186.844 415.998 195.317 417.211 203.696 416.982 212.075 416.753 220.564 416.638 231.902 416.584 243.239 416.529 256.95 416.7 271.718 416.654 286.486 416.608 304.432 416.481 320.508 416.307 336.584 416.134 352.745 420.454 368.175 415.611 383.605 410.769 398.82 400.995 413.09 387.25 427.359 373.505 442.369 348.378 453.793 333.142 465.218 317.907 472.974 303.006 481.637 295.838 490.3 288.67 498.862 289.278 505.772 290.136 512.682 290.993 518.651 297.436 523.099 300.983 527.547 304.529 529.729 307.029 532.462 311.417 535.084 315.629 538.984 318.629 539.492 327.309 540.02 336.351 540.996 352.23 535.631 365.668 530.267 379.107 520.074 399.473 507.304 407.939 494.533 416.404 474.892 415.107 459.009 416.462 443.127 417.818 428.16 416.069 412.008 416.071 395.857 416.073 378.155 416.429 362.101 416.473 346.046 416.517 325.239 416.065 315.68 416.336 310.146 416.493 307.852 415.396 304.748 418.098 299.385 422.766 287.782 437.689 283.507 444.342 279.628 450.38 281.076 452.892 279.101 458.015 276.925 463.659 272.421 474.223 270.451 478.208 269.368 480.401 268.145 481.37 267.283 481.928 265.716 482.942 263.566 483.92 261.05 484.292 258.535 484.664 255.686 484.804 252.189 484.159 248.691 483.513 244.597 481.905 240.068 480.419 235.538 478.933 230.906 477.809 225.011 475.243 219.115 472.677 211.714 469.442 204.695 465.023 197.677 460.605 188.244 454.492 182.899 448.731 177.553 442.971 173.246 435.429 172.623 430.461 172 425.493 177.392 421.067 179.16 418.922 180.524 417.266 181.308 417.809 183.229 417.591 185.718 417.309 188.85 417.399 194.093 417.228 199.106 417.064 204.384 416.632 214.686 416.562 225.458 416.488 243.262 416.84 258.729 416.785 274.197 416.73 291.276 416.292 307.491 416.232 323.705 416.171 340.273 419.263 356.017 416.423 371.761 413.582 387.312 410.683 401.956 399.188 416.599 387.693 431.867 363.222 443.877 347.451 455.886 331.68 464.961 314.325 474.011 304.56 483.061 294.796 491.868 290.73 498.177 288.865 504.485 287 507.503 291.101 511.862 293.371 516.222 295.64 520.728 299.253 524.331 302.48 527.935 305.707 530.772 306.506 533.482 312.734 536.191 318.962 541.487 328.209 540.59 339.851 539.694 351.493 536.943 369.978 528.103 382.586 519.263 395.194 502.075 409.913 487.549 415.499 473.022 421.084 456.986 415.943 440.945 416.101 424.904 416.258 407.666 416.442 391.302 416.443 374.937 416.443 350.848 416.161 342.757 416.104M287.339 436.006C286.476 438.484 284.714 443.996 282.161 450.871 279.607 457.745 275.793 471.344 272.017 477.252 268.241 483.16 262.04 485.002 259.503 486.321 258.199 487 257.486 485.342 256.798 485.169 255.462 484.833 254.071 485.042 251.479 484.303 248.884 483.562 246.067 482.401 241.228 480.727 236.388 479.053 230.181 477.925 222.442 474.257 214.703 470.589 202.369 464.228 194.794 458.721 187.22 453.213 180.652 446.932 176.995 441.213 173.338 435.494 173.235 427.647 172.852 424.406 172.662 422.805 173.901 422.315 174.695 421.765 176.302 420.654 178.586 418.508 182.492 417.735 186.397 416.962 191.144 417.338 198.128 417.128 205.111 416.919 213.015 416.54 224.393 416.478 235.771 416.417 251.25 416.805 266.393 416.758 281.537 416.711 299.101 416.297 315.256 416.196 331.412 416.095 347.759 420.061 363.326 416.152 378.893 412.242 394.236 405.507 408.659 392.74 423.081 379.972 438.199 355.079 449.861 339.545 461.522 324.011 469.837 307.874 478.627 299.534 487.418 291.194 496.268 290.082 502.605 289.505 508.942 288.929 512.458 293.361 516.651 296.074 520.843 298.787 524.48 302.153 527.759 305.784 530.928 309.294 534.418 310.699 536.327 317.861 538.302 325.27 542 337.795 539.609 350.243 537.218 362.69 526.457 383.642 521.98 392.545 518.73 399.006 516.688 400.973 512.742 403.659 507.303 407.361 498.82 412.62 489.35 414.755 479.879 416.889 469.04 416.248 455.917 416.467 442.794 416.686 426.153 416.069 410.612 416.07 395.071 416.071 378.337 416.439 362.672 416.474 347.005 416.508 326.115 416.064 316.616 416.276 311.098 416.399 308.792 415.392 305.674 417.744 300.305 421.793 288.718 434.43 284.404 440.571 280.166 446.604 282.026 448.614 279.788 454.59 277.509 460.673 274.201 471.867 270.732 477.071 267.263 482.276 262.639 484.814 258.974 485.814 255.308 486.815 252.196 484.003 248.741 483.074 245.286 482.145 242.238 481.646 238.241 480.242 234.244 478.838 230.823 477.381 224.759 474.65 218.695 471.92 209.207 468.686 201.855 463.859 194.503 459.032 185.559 451.542 180.647 445.689 175.736 439.835 172.204 433.388 172.388 428.738 172.571 424.087 176.515 419.72 181.751 417.785 186.987 415.85 195.421 417.352 203.803 417.127 212.186 416.902 220.684 416.491 232.046 416.436 243.408 416.382 257.189 416.845 271.975 416.799 286.761 416.753 306.677 416.217 320.763 416.16 334.849 416.103 344.58 416.359 356.489 416.458" stroke="#4472C4" stroke-width="2" stroke-linecap="round" stroke-linejoin="round" stroke-miterlimit="10" fill="none"/></g><g><text fill="#595959" font-family="Calibri,Calibri_MSFontService,sans-serif" font-weight="400" font-size="12" transform="translate(302.106 539)">-0.00015</text></g><g><text fill="#595959" font-family="Calibri,Calibri_MSFontService,sans-serif" font-weight="400" font-size="12" transform="translate(308.186 499)">-0.0001</text></g><g><text fill="#595959" font-family="Calibri,Calibri_MSFontService,sans-serif" font-weight="400" font-size="12" transform="translate(302.106 459)">-0.00005</text></g><g><text fill="#595959" font-family="Calibri,Calibri_MSFontService,sans-serif" font-weight="400" font-size="12" transform="translate(339.206 419)">0</text></g><g><text fill="#595959" font-family="Calibri,Calibri_MSFontService,sans-serif" font-weight="400" font-size="12" transform="translate(305.78 379)">0.00005</text></g><g><text fill="#595959" font-family="Calibri,Calibri_MSFontService,sans-serif" font-weight="400" font-size="12" transform="translate(311.86 339)">0.0001</text></g><g><text fill="#595959" font-family="Calibri,Calibri_MSFontService,sans-serif" font-weight="400" font-size="12" transform="translate(305.78 299)">0.00015</text></g><g><text fill="#595959" font-family="Calibri,Calibri_MSFontService,sans-serif" font-weight="400" font-size="12" transform="translate(311.86 259)">0.0002</text></g><g><text fill="#595959" font-family="Calibri,Calibri_MSFontService,sans-serif" font-weight="400" font-size="12" transform="translate(120.917 435)">-1</text></g><g><text fill="#595959" font-family="Calibri,Calibri_MSFontService,sans-serif" font-weight="400" font-size="12" transform="translate(162.488 435)">-0.8</text></g><g><text fill="#595959" font-family="Calibri,Calibri_MSFontService,sans-serif" font-weight="400" font-size="12" transform="translate(208.613 435)">-0.6</text></g><g><text fill="#595959" font-family="Calibri,Calibri_MSFontService,sans-serif" font-weight="400" font-size="12" transform="translate(254.738 435)">-0.4</text></g><g><text fill="#595959" font-family="Calibri,Calibri_MSFontService,sans-serif" font-weight="400" font-size="12" transform="translate(300.863 435)">-0.2</text></g><g><text fill="#595959" font-family="Calibri,Calibri_MSFontService,sans-serif" font-weight="400" font-size="12" transform="translate(353.378 435)">0</text></g><g><text fill="#595959" font-family="Calibri,Calibri_MSFontService,sans-serif" font-weight="400" font-size="12" transform="translate(394.95 435)">0.2</text></g><g><text fill="#595959" font-family="Calibri,Calibri_MSFontService,sans-serif" font-weight="400" font-size="12" transform="translate(441.075 435)">0.4</text></g><g><text fill="#595959" font-family="Calibri,Calibri_MSFontService,sans-serif" font-weight="400" font-size="12" transform="translate(487.2 435)">0.6</text></g><g><text fill="#595959" font-family="Calibri,Calibri_MSFontService,sans-serif" font-weight="400" font-size="12" transform="translate(533.325 435)">0.8</text></g><g><text fill="#595959" font-family="Calibri,Calibri_MSFontService,sans-serif" font-weight="400" font-size="12" transform="translate(584.003 435)">1</text></g></g></svg>