<svg width="521" height="336" xmlns="http://www.w3.org/2000/svg" xmlns:xlink="http://www.w3.org/1999/xlink" overflow="hidden"><defs><clipPath id="clip0"><rect x="618" y="229" width="521" height="336"/></clipPath></defs><g clip-path="url(#clip0)" transform="translate(-618 -229)"><g><path d="M0 0 0.000104987 300" stroke="#BFBFBF" stroke-linejoin="round" stroke-miterlimit="10" fill="none" fill-rule="evenodd" transform="matrix(1 0 0 -1 886.5 538.5)"/></g><g><path d="M647.5 418.5 1126.5 418.5" stroke="#BFBFBF" stroke-linejoin="round" stroke-miterlimit="10" fill="none" fill-rule="evenodd"/></g><g><path d="M886.968 418.518C886.999 418.516 887.03 418.514 887.059 418.513 887.088 418.513 887.101 418.513 887.142 418.513 887.184 418.513 887.226 418.513 887.309 418.513 887.392 418.513 887.475 418.513 887.642 418.513 887.808 418.513 887.975 418.513 888.307 418.513 888.64 418.513 888.973 418.513 889.639 418.513 890.304 418.513 890.971 418.513 892.301 418.513 893.632 418.513 894.966 418.513 897.622 418.513 900.278 418.513 902.967 418.521 908.236 418.512 913.504 418.502 921.399 418.752 929.232 418.456 937.065 418.16 950.901 417.024 955.235 416.737M1075.78 322.447C1076.24 325.156 1078.86 332.271 1078.54 338.698 1078.24 344.975 1079.25 350.947 1073.9 361.004 1068.41 371.299 1052.37 392.363 1045.65 400.468 1040.83 406.296 1038.49 407.884 1033.61 409.636 1026.81 412.072 1015.89 413.615 1004.88 415.087 993.873 416.56 981.964 417.889 967.547 418.471 953.13 419.053 934.738 418.575 918.384 418.577 902.029 418.58 885.284 418.405 869.42 418.485 853.555 418.565 832.716 417.745 823.195 419.056 816.697 419.951 814.142 425.057 812.294 426.349 810.216 427.802 808.967 427.733 806.945 430.414 804.308 433.909 798.958 441.967 796.475 447.317 794.134 452.362 794.102 454.871 792.045 462.514 789.864 470.62 786.417 487.753 783.387 495.949 780.356 504.145 777.797 509.079 773.863 511.692 769.93 514.306 765.124 513.366 759.785 511.631 754.445 509.895 748.807 506.347 741.826 501.279 734.845 496.212 724.919 488.993 717.898 481.225 710.876 473.457 703.323 463.109 699.697 454.672 696.07 446.236 696.355 435.576 696.136 430.606 696 427.52 697.226 425.897 698.381 424.85 700.241 423.163 703.002 421.457 707.295 420.486 711.589 419.514 716.538 419.326 724.142 419.02 731.746 418.714 740.374 418.705 752.92 418.652 765.467 418.598 783.175 418.724 799.421 418.699 815.668 418.675 833.602 418.799 850.4 418.504 867.197 418.209 884.117 420.896 900.205 416.929 916.293 412.962 932.099 406.465 946.925 394.701 961.751 382.938 977.312 363.33 989.16 346.349 1001.01 329.367 1009.01 303.832 1018.01 292.811 1026.89 281.931 1036.09 279.738 1043.13 280.226 1050.26 280.721 1056.24 290.881 1060.79 295.779 1065.34 300.677 1067.62 304.155 1070.41 309.615 1073.2 315.075 1077.14 319.538 1077.56 328.541 1077.97 337.543 1078.73 351.024 1072.91 363.63 1067.08 376.236 1056 395.053 1042.59 404.176 1029.18 413.299 1008.97 415.989 992.439 418.366 975.911 420.744 960.223 418.4 943.415 418.439 926.606 418.479 908.26 418.42 891.589 418.602 874.917 418.784 853.311 418.982 843.385 419.53 837.595 419.85 835.278 421.202 832.031 421.89 826.465 423.07 814.401 425.66 809.987 426.61 807.764 427.088 806.651 425.983 805.546 427.589 803.353 430.78 798.862 441.166 796.827 445.752 795.169 449.485 794.737 450.314 793.332 455.104 791.605 460.988 789.169 472.204 786.465 481.056 783.761 489.909 780.832 502.94 777.105 508.22 773.378 513.5 768.973 513.248 764.104 512.737 759.235 512.225 754.242 509.075 747.89 505.15 741.538 501.225 733.278 496.124 725.992 489.186 718.706 482.249 709.273 471.999 704.176 463.526 699.078 455.052 695.269 445.462 695.409 438.346 695.549 431.229 699.588 424.067 705.017 420.827 710.445 417.587 719.262 419.266 727.981 418.908 736.7 418.55 745.533 418.726 757.33 418.681 769.127 418.635 783.394 418.654 798.761 418.636 814.127 418.617 832.801 418.972 849.529 418.571 866.256 418.169 883.072 420.066 899.128 416.227 915.184 412.389 931.015 406.743 945.864 395.54 960.712 384.337 976.33 366.389 988.217 349.01 1000.11 331.63 1008.18 302.838 1017.19 291.263 1025.7 280.337 1035.52 278.914 1042.3 279.562 1049.49 280.249 1055.7 290.459 1060.33 295.383 1064.96 300.306 1067.23 303.714 1070.07 309.104 1072.92 314.493 1076.84 318.813 1077.39 327.719 1077.94 336.625 1078.96 350.273 1073.37 362.539 1067.79 374.805 1057.19 392.183 1043.9 401.318 1030.61 410.452 1010.17 414.485 993.645 417.347 977.118 420.209 961.545 418.287 944.738 418.488 927.932 418.688 909.513 418.536 892.807 418.552 876.102 418.568 854.451 418.58 844.505 418.585 838.817 418.588 836.32 417.731 833.129 418.586 827.55 420.08 815.475 425.447 811.028 427.554 808.373 428.811 807.794 429.551 806.443 431.227 804.179 434.034 799.492 440.476 797.443 444.398 795.599 447.926 795.613 449.524 794.146 454.759 792.516 460.578 790.278 470.986 787.66 479.314 785.043 487.641 782.078 498.991 778.439 504.725 774.8 510.459 770.54 513.48 765.827 513.72 761.114 513.96 756.294 509.784 750.16 506.167 744.025 502.551 736.324 498.581 729.021 492.021 721.718 485.46 711.903 475.241 706.341 466.803 700.779 458.365 696.297 448.808 695.648 441.395 695 433.981 700.611 425.781 702.45 422.321 703.519 420.31 705.179 420.963 706.684 420.637 709.274 420.076 712.533 419.224 717.989 418.953 723.203 418.694 728.703 419.076 739.416 419.01 750.626 418.942 769.151 418.595 785.245 418.543 801.34 418.491 819.112 418.876 835.984 418.697 852.856 418.518 870.094 419.964 886.477 417.467 902.859 414.97 919.041 412.948 934.278 403.715 949.515 394.482 965.402 377.755 977.899 362.071 990.395 346.388 999.838 323.444 1009.26 309.615 1018.67 295.785 1027.84 283.276 1034.4 279.094 1040.83 275 1044.2 281.69 1048.64 284.524 1053.18 287.42 1057.87 292.008 1061.62 296.467 1065.36 300.925 1068.32 304.133 1071.14 311.273 1073.96 318.413 1079.47 328.314 1078.53 339.305 1077.6 350.297 1074.74 365.198 1065.54 377.222 1056.34 389.246 1038.46 404.594 1023.34 411.45 1008.23 418.306 991.539 417.178 974.848 418.358 958.156 419.539 940.22 418.504 923.192 418.53 906.164 418.556 888.881 417.757 872.68 418.516 856.479 419.275 835.598 421.913 825.987 423.083 820.407 423.762 816.598 425.18 815.015 425.536 812.937 426.003 811.651 424.883 809.627 426.762 807.365 428.862 802.415 432.418 799.072 440.338 795.142 449.644 788.69 474.048 786.051 482.602 784.652 487.135 783.973 489.477 783.236 491.663 781.844 495.788 780.401 503.757 777.701 507.354 775.001 510.95 772.07 513.538 767.034 513.242 761.998 512.947 755.54 510.697 747.487 505.581 739.435 500.464 726.6 490.941 718.718 482.542 710.837 474.143 704.003 463.644 700.197 455.187 696.392 446.731 696.285 436.68 695.886 431.803 695.634 428.723 696.748 427.054 697.804 425.928 699.476 424.145 701.853 422.299 705.917 421.107 709.981 419.914 714.92 419.131 722.187 418.773 729.453 418.416 737.678 419.023 749.517 418.962 761.356 418.9 777.462 418.433 793.22 418.406 808.978 418.379 827.253 418.96 844.064 418.8 860.874 418.639 877.884 420.712 894.082 417.443 910.28 414.174 926.246 409.723 941.253 399.185 956.26 388.647 971.991 370.855 984.125 354.215 996.259 337.574 1004.91 311.963 1014.06 299.341 1023.21 286.718 1032.41 280.276 1039.01 278.478 1045.6 276.679 1049.26 284.728 1053.62 288.55 1057.99 292.372 1061.77 296.662 1065.18 301.411 1068.59 306.159 1072.04 309.046 1074.1 317.04 1076.15 325.035 1080 337.842 1077.51 349.377 1075.02 360.912 1063.83 378.125 1059.17 386.249 1055.37 392.874 1054.17 394.788 1049.56 398.121 1043.9 402.207 1035.07 407.458 1025.22 410.769 1015.36 414.081 1004.08 416.654 990.427 417.99 976.773 419.327 959.456 418.748 943.285 418.787 927.114 418.826 909.702 418.065 893.401 418.223 877.1 418.38 855.363 419.346 845.479 419.731 839.776 419.953 837.316 420.301 834.093 420.532 828.507 420.933 816.45 421.123 811.961 422.135 808.759 422.857 808.849 424.058 807.158 426.607 805.068 429.758 800.917 434.412 797.735 443.583 794.125 453.986 789.313 477.793 785.5 489.029 781.686 500.264 778.448 506.992 774.852 510.996 771.257 515 768.086 513.807 763.927 513.052 759.768 512.296 756.208 510.446 749.898 506.465 743.587 502.483 733.715 496.41 726.065 489.164 718.415 481.918 709.108 471.591 703.998 462.99 698.888 454.388 695.212 444.555 695.403 437.555 695.595 430.554 699.698 424.12 705.146 420.985 710.595 417.849 719.37 419.106 728.093 418.741 736.815 418.375 745.658 418.833 757.481 418.793 769.303 418.752 783.643 418.512 799.028 418.496 814.414 418.479 835.137 418.721 849.794 418.695 864.451 418.669 874.577 418.459 886.968 418.341" stroke="#4472C4" stroke-width="2" stroke-linecap="round" stroke-linejoin="round" stroke-miterlimit="10" fill="none"/></g><g><text fill="#595959" font-family="Calibri,Calibri_MSFontService,sans-serif" font-weight="400" font-size="12" transform="translate(838.727 541)">-0.0002</text></g><g><text fill="#595959" font-family="Calibri,Calibri_MSFontService,sans-serif" font-weight="400" font-size="12" transform="translate(832.647 511)">-0.00015</text></g><g><text fill="#595959" font-family="Calibri,Calibri_MSFontService,sans-serif" font-weight="400" font-size="12" transform="translate(838.727 481)">-0.0001</text></g><g><text fill="#595959" font-family="Calibri,Calibri_MSFontService,sans-serif" font-weight="400" font-size="12" transform="translate(832.647 451)">-0.00005</text></g><g><text fill="#595959" font-family="Calibri,Calibri_MSFontService,sans-serif" font-weight="400" font-size="12" transform="translate(869.747 421)">0</text></g><g><text fill="#595959" font-family="Calibri,Calibri_MSFontService,sans-serif" font-weight="400" font-size="12" transform="translate(836.32 391)">0.00005</text></g><g><text fill="#595959" font-family="Calibri,Calibri_MSFontService,sans-serif" font-weight="400" font-size="12" transform="translate(842.4 361)">0.0001</text></g><g><text fill="#595959" font-family="Calibri,Calibri_MSFontService,sans-serif" font-weight="400" font-size="12" transform="translate(836.32 331)">0.00015</text></g><g><text fill="#595959" font-family="Calibri,Calibri_MSFontService,sans-serif" font-weight="400" font-size="12" transform="translate(842.4 301)">0.0002</text></g><g><text fill="#595959" font-family="Calibri,Calibri_MSFontService,sans-serif" font-weight="400" font-size="12" transform="translate(836.32 271)">0.00025</text></g><g><text fill="#595959" font-family="Calibri,Calibri_MSFontService,sans-serif" font-weight="400" font-size="12" transform="translate(842.4 241)">0.0003</text></g><g><text fill="#595959" font-family="Calibri,Calibri_MSFontService,sans-serif" font-weight="400" font-size="12" transform="translate(642.49 437)">-1</text></g><g><text fill="#595959" font-family="Calibri,Calibri_MSFontService,sans-serif" font-weight="400" font-size="12" transform="translate(685.855 437)">-0.8</text></g><g><text fill="#595959" font-family="Calibri,Calibri_MSFontService,sans-serif" font-weight="400" font-size="12" transform="translate(733.774 437)">-0.6</text></g><g><text fill="#595959" font-family="Calibri,Calibri_MSFontService,sans-serif" font-weight="400" font-size="12" transform="translate(781.692 437)">-0.4</text></g><g><text fill="#595959" font-family="Calibri,Calibri_MSFontService,sans-serif" font-weight="400" font-size="12" transform="translate(829.611 437)">-0.2</text></g><g><text fill="#595959" font-family="Calibri,Calibri_MSFontService,sans-serif" font-weight="400" font-size="12" transform="translate(883.919 437)">0</text></g><g><text fill="#595959" font-family="Calibri,Calibri_MSFontService,sans-serif" font-weight="400" font-size="12" transform="translate(927.284 437)">0.2</text></g><g><text fill="#595959" font-family="Calibri,Calibri_MSFontService,sans-serif" font-weight="400" font-size="12" transform="translate(975.203 437)">0.4</text></g><g><text fill="#595959" font-family="Calibri,Calibri_MSFontService,sans-serif" font-weight="400" font-size="12" transform="translate(1023.12 437)">0.6</text></g><g><text fill="#595959" font-family="Calibri,Calibri_MSFontService,sans-serif" font-weight="400" font-size="12" transform="translate(1071.04 437)">0.8</text></g><g><text fill="#595959" font-family="Calibri,Calibri_MSFontService,sans-serif" font-weight="400" font-size="12" transform="translate(1123.51 437)">1</text></g></g></svg>