<svg width="544" height="330" xmlns="http://www.w3.org/2000/svg" xmlns:xlink="http://www.w3.org/1999/xlink" overflow="hidden"><defs><clipPath id="clip0"><rect x="36" y="215" width="544" height="330"/></clipPath></defs><g clip-path="url(#clip0)" transform="translate(-36 -215)"><g><path d="M0 0 0.000104987 299" stroke="#BFBFBF" stroke-linejoin="round" stroke-miterlimit="10" fill="none" fill-rule="evenodd" transform="matrix(1 0 0 -1 308.5 529.5)"/></g><g><path d="M56.5001 401.5 561.5 401.5" stroke="#BFBFBF" stroke-linejoin="round" stroke-miterlimit="10" fill="none" fill-rule="evenodd"/></g><g><path d="M308.941 401.825C308.972 401.824 309.006 401.822 309.036 401.822 309.067 401.821 309.08 401.822 309.124 401.822 309.168 401.822 309.211 401.822 309.299 401.822 309.387 401.822 309.474 401.822 309.649 401.822 309.824 401.822 309.999 401.822 310.349 401.822 310.7 401.822 311.05 401.822 311.75 401.822 312.45 401.822 313.151 401.822 314.551 401.822 315.95 401.822 317.354 401.822 320.148 401.822 322.942 401.822 325.771 401.828 331.313 401.821 336.855 401.814 345.16 401.992 353.4 401.781 361.64 401.57 376.194 400.759 380.753 400.555M507.565 318.82C508.049 321.488 510.798 329.041 510.467 334.831 510.151 340.36 511.084 345.606 505.578 353.561 499.812 361.893 482.932 378.467 475.869 384.821 470.51 389.642 464.801 390.821 463.199 391.689M341.988 401.823C333.403 401.825 307.169 401.348 290.48 401.836 273.791 402.325 251.87 403.939 241.855 404.755 236.056 405.227 232.036 406.445 230.387 406.731 227.572 407.219 227.5 407.231 224.76 407.719 221.987 408.213 216.359 407.842 213.747 409.696 211.493 411.296 211.066 414.107 209.086 418.844 206.792 424.333 203.166 432.737 199.978 442.634 196.79 452.53 194.098 468.772 189.96 478.223 185.822 487.674 180.767 497.303 175.15 499.34 169.533 501.377 163.602 495.534 156.259 490.446 148.915 485.359 138.474 477.119 131.087 468.815 123.701 460.511 115.756 449.419 111.941 440.623 108.125 431.826 108.426 421.066 108.195 416.039 108.056 413.011 109.378 411.746 110.557 410.457 112.513 408.317 115.417 404.577 119.934 403.199 124.45 401.82 129.657 402.409 137.656 402.186 145.655 401.963 154.731 401.9 167.929 401.861 181.127 401.821 199.755 401.962 216.846 401.949 233.936 401.935 252.803 402.093 270.472 401.78 288.142 401.467 305.942 402.691 322.865 400.07 339.788 397.449 356.416 394.409 372.012 386.056 387.608 377.703 403.978 366.281 416.441 349.954 428.903 333.627 437.327 300.674 446.789 288.095 455.728 276.21 466.124 273.922 473.212 274.481 480.712 275.073 487.009 286.455 491.793 291.646 496.576 296.838 498.973 299.966 501.913 305.63 504.852 311.293 508.993 317.331 509.43 325.627 509.868 333.923 510.669 345.272 504.538 355.406 498.407 365.54 486.75 378.877 472.643 386.43 458.535 393.982 437.278 398.185 419.891 400.722 402.504 403.258 386.001 401.433 368.319 401.649 350.638 401.864 331.339 402.008 313.801 402.013 296.263 402.017 273.535 401.765 263.093 401.674 257.121 401.622 252.288 401.488 251.15 401.468M214.116 418.978C213.564 419.27 212.076 419.638 210.44 420.922 209.235 421.868 205.104 423.012 203.216 427.534 200.372 434.349 197.291 450.686 193.37 461.814 189.45 472.941 184.816 488.891 179.694 494.298 174.572 499.704 169.319 497.099 162.637 494.252 155.955 491.405 147.266 484.577 139.602 477.216 131.938 469.855 122.014 459.371 116.652 450.086 111.29 440.8 107.283 429.248 107.43 421.504 107.578 413.76 111.826 406.838 117.537 403.623 123.247 400.407 132.522 402.527 141.694 402.211 150.866 401.894 160.158 401.738 172.568 401.723 184.977 401.708 199.986 402.143 216.151 402.122 232.316 402.101 251.959 401.884 269.556 401.598 287.153 401.311 304.842 402.788 321.732 400.403 338.622 398.018 355.276 395.199 370.895 387.286 386.515 379.373 402.944 368.386 415.45 352.926 427.955 337.466 436.445 307.726 445.927 294.525 455.41 281.325 464.781 274.303 472.345 273.724 479.909 273.144 486.442 285.791 491.311 291.046 496.18 296.301 498.569 299.805 501.559 305.251 504.55 310.698 508.676 315.446 509.254 323.728 509.833 332.009 510.901 344.447 505.029 354.939 499.157 365.431 488 378.985 474.022 386.681 460.043 394.376 438.544 398.507 421.159 401.113 403.774 403.719 387.391 402.277 369.712 402.318 352.033 402.359 332.656 401.326 315.083 401.359 297.51 401.391 274.734 402.246 264.271 402.513 258.286 402.665 255.662 402.831 252.305 402.959 246.435 403.183 233.734 403.672 229.055 403.853 226.644 403.946 225.46 403.43 224.232 404.044 221.85 405.234 216.92 409.208 214.764 410.996 213.181 412.31 212.556 412.54 211.296 414.774 209.775 417.472 206.917 421.626 204.474 429.243 201.72 437.83 198.602 454.975 194.774 466.294 190.946 477.612 186.465 492.308 181.506 497.154 176.548 502 171.478 498.284 165.025 495.37 158.572 492.455 150.471 486.613 142.788 479.667 135.106 472.72 124.781 462.641 118.93 453.691 113.079 444.741 108.364 434.079 107.682 425.966 107 417.852 112.902 408.668 114.837 405.011 115.905 402.993 117.787 404.259 119.291 404.027 122.015 403.605 125.444 402.862 131.183 402.483 136.671 402.12 142.448 401.836 153.724 401.753 165.515 401.666 185.003 401.958 201.933 401.963 218.864 401.968 237.559 401.877 255.307 401.782 273.056 401.686 291.19 403.062 308.424 401.389 325.657 399.716 342.68 398.467 358.708 391.742 374.737 385.016 391.449 373.894 404.595 361.037 417.74 348.179 427.674 329.233 437.58 314.597 447.486 299.962 457.126 279.213 464.031 273.224 470.054 268 476.834 277.87 479.012 278.66M502.676 306.93C503.973 311.808 511.438 326.364 510.457 336.2 509.476 346.036 506.465 356.097 496.789 365.946 487.112 375.795 459.796 390.403 452.398 395.294M347.047 401.693C338.19 401.738 310.953 401.864 293.91 401.966 276.868 402.067 254.902 402.244 244.792 402.303 239.021 402.337 234.887 402.264 233.249 402.323 230.497 402.424 230.263 401.964 227.581 402.93 225.127 403.814 220.108 403.354 216.478 408.362 212.344 414.065 205.557 430.735 202.78 437.147 200.768 441.794 200.88 443.111 199.819 446.835 198.355 451.972 196.838 460.24 193.997 467.974 191.157 475.707 188.073 488.851 182.776 493.236 177.479 497.621 170.685 498.103 162.214 494.282 153.743 490.462 140.242 479.091 131.951 470.315 123.659 461.539 116.47 450.982 112.467 441.627 108.464 432.273 108.352 419.414 107.932 414.188 107.756 411.99 109.21 410.943 109.95 410.268 111.709 408.663 114.209 405.943 118.484 404.56 122.759 403.176 127.955 402.371 135.599 401.967 143.243 401.562 151.895 402.167 164.349 402.133 176.803 402.1 193.746 401.793 210.322 401.767 226.899 401.74 246.124 402.16 263.807 401.975 281.491 401.79 299.384 402.803 316.424 400.656 333.464 398.509 350.259 396.331 366.046 389.094 381.832 381.857 403.628 362.544 411.145 357.233M468.879 272.955C471.441 274.712 479.664 279.375 484.253 283.498 488.842 287.621 492.822 292.686 496.412 297.693 500.001 302.701 503.628 305.817 505.79 313.544 507.952 321.27 512 334.171 509.383 344.053 506.765 353.934 494.987 366.597 490.086 372.833 485.976 378.062 484.965 378.258 479.974 381.468 474.021 385.296 464.736 392.536 454.369 395.803 444.003 399.069 432.139 400.01 417.774 401.066 403.41 402.121 385.194 402.06 368.183 402.137 351.172 402.214 332.856 401.529 315.708 401.528 298.56 401.527 275.694 401.874 265.296 402.13 259.291 402.277 256.712 402.54 253.319 403.061 247.442 403.963 234.759 406.627 230.037 407.54 227.508 408.029 226.319 408.273 224.984 408.542 222.822 408.975 218.363 406.7 215.071 410.544 211.274 414.978 206.213 424.641 202.201 435.148 198.189 445.656 194.783 463.394 191 473.589 187.218 483.783 183.883 492.75 179.507 496.314 175.132 499.878 171.388 498.175 164.75 494.975 158.111 491.775 147.726 484.623 139.679 477.115 131.631 469.607 121.841 459.187 116.465 449.927 111.09 440.668 107.223 429.13 107.424 421.559 107.626 413.987 111.942 407.816 117.673 404.499 123.405 401.182 132.636 402.027 141.812 401.657 150.987 401.288 160.29 402.302 172.726 402.283 185.163 402.263 200.247 401.555 216.432 401.538 232.617 401.521 254.417 402.21 269.835 402.181 285.253 402.152 295.905 401.637 308.941 401.365" stroke="#4472C4" stroke-width="2" stroke-linecap="round" stroke-linejoin="round" stroke-miterlimit="10" fill="none"/></g><g><text fill="#595959" font-family="Calibri,Calibri_MSFontService,sans-serif" font-weight="400" font-size="12" transform="translate(260.686 533)">-0.0003</text></g><g><text fill="#595959" font-family="Calibri,Calibri_MSFontService,sans-serif" font-weight="400" font-size="12" transform="translate(260.686 490)">-0.0002</text></g><g><text fill="#595959" font-family="Calibri,Calibri_MSFontService,sans-serif" font-weight="400" font-size="12" transform="translate(260.686 447)">-0.0001</text></g><g><text fill="#595959" font-family="Calibri,Calibri_MSFontService,sans-serif" font-weight="400" font-size="12" transform="translate(291.706 405)">0</text></g><g><text fill="#595959" font-family="Calibri,Calibri_MSFontService,sans-serif" font-weight="400" font-size="12" transform="translate(264.359 362)">0.0001</text></g><g><text fill="#595959" font-family="Calibri,Calibri_MSFontService,sans-serif" font-weight="400" font-size="12" transform="translate(264.359 319)">0.0002</text></g><g><text fill="#595959" font-family="Calibri,Calibri_MSFontService,sans-serif" font-weight="400" font-size="12" transform="translate(264.359 276)">0.0003</text></g><g><text fill="#595959" font-family="Calibri,Calibri_MSFontService,sans-serif" font-weight="400" font-size="12" transform="translate(264.359 234)">0.0004</text></g><g><text fill="#595959" font-family="Calibri,Calibri_MSFontService,sans-serif" font-weight="400" font-size="12" transform="translate(51.6667 420)">-1</text></g><g><text fill="#595959" font-family="Calibri,Calibri_MSFontService,sans-serif" font-weight="400" font-size="12" transform="translate(97.5882 420)">-0.8</text></g><g><text fill="#595959" font-family="Calibri,Calibri_MSFontService,sans-serif" font-weight="400" font-size="12" transform="translate(148.063 420)">-0.6</text></g><g><text fill="#595959" font-family="Calibri,Calibri_MSFontService,sans-serif" font-weight="400" font-size="12" transform="translate(198.538 420)">-0.4</text></g><g><text fill="#595959" font-family="Calibri,Calibri_MSFontService,sans-serif" font-weight="400" font-size="12" transform="translate(249.013 420)">-0.2</text></g><g><text fill="#595959" font-family="Calibri,Calibri_MSFontService,sans-serif" font-weight="400" font-size="12" transform="translate(305.878 420)">0</text></g><g><text fill="#595959" font-family="Calibri,Calibri_MSFontService,sans-serif" font-weight="400" font-size="12" transform="translate(351.8 420)">0.2</text></g><g><text fill="#595959" font-family="Calibri,Calibri_MSFontService,sans-serif" font-weight="400" font-size="12" transform="translate(402.275 420)">0.4</text></g><g><text fill="#595959" font-family="Calibri,Calibri_MSFontService,sans-serif" font-weight="400" font-size="12" transform="translate(452.75 420)">0.6</text></g><g><text fill="#595959" font-family="Calibri,Calibri_MSFontService,sans-serif" font-weight="400" font-size="12" transform="translate(503.225 420)">0.8</text></g><g><text fill="#595959" font-family="Calibri,Calibri_MSFontService,sans-serif" font-weight="400" font-size="12" transform="translate(558.253 420)">1</text></g></g></svg>