<svg width="568" height="385" xmlns="http://www.w3.org/2000/svg" xmlns:xlink="http://www.w3.org/1999/xlink" overflow="hidden"><defs><clipPath id="clip0"><rect x="615" y="183" width="568" height="385"/></clipPath></defs><g clip-path="url(#clip0)" transform="translate(-615 -183)"><g><path d="M0 0 0.000104987 355" stroke="#BFBFBF" stroke-linejoin="round" stroke-miterlimit="10" fill="none" fill-rule="evenodd" transform="matrix(1 0 0 -1 899.5 552.5)"/></g><g><path d="M635.5 394.5 1164.5 394.5" stroke="#BFBFBF" stroke-linejoin="round" stroke-miterlimit="10" fill="none" fill-rule="evenodd"/></g><g><path d="M899.913 394.888C899.946 394.887 899.981 394.886 900.013 394.885 900.045 394.885 900.059 394.885 900.105 394.885 900.151 394.885 900.197 394.885 900.289 394.885 900.381 394.885 900.473 394.885 900.656 394.885 900.84 394.885 901.024 394.885 901.391 394.885 901.759 394.885 902.126 394.885 902.861 394.885 903.596 394.885 904.331 394.885 905.8 394.885 907.269 394.885 908.742 394.885 911.674 394.885 914.605 394.885 917.574 394.891 923.39 394.885 929.206 394.878 937.921 395.042 946.568 394.848 955.215 394.653 970.488 393.906 975.272 393.717M1108.35 305.992C1108.85 309.22 1111.74 318.788 1111.39 325.361 1111.05 331.879 1112.26 336.986 1106.26 345.43 1100.21 353.944 1082.5 370.204 1075.08 376.448 1069.44 381.207 1067.51 380.833 1061.79 382.893 1054.29 385.594 1042.23 390.696 1030.08 392.658 1017.92 394.62 1004.78 394.289 988.864 394.665 972.949 395.04 952.646 394.874 934.592 394.91 916.538 394.946 898.054 394.746 880.541 394.88 863.028 395.015 840.024 395.497 829.514 395.717 823.494 395.843 819.193 396.13 817.48 396.199 814.528 396.318 814.449 395.81 811.575 396.44 808.665 397.078 802.759 398.993 800.018 400.028 798.413 400.634 796.537 400.262 795.128 402.652 792.719 406.733 788.915 414.644 785.57 424.517 782.224 434.389 779.399 448.617 775.057 461.886 770.715 475.155 765.41 497.19 759.516 504.131 753.621 511.072 747.397 508.005 739.691 503.53 731.984 499.056 721.028 487.466 713.277 477.286 705.526 467.105 697.188 453.834 693.185 442.445 689.181 431.055 689.496 415.449 689.254 408.949 689.142 405.934 690.78 404.406 691.732 403.446 693.785 401.377 696.833 397.865 701.573 396.531 706.312 395.197 711.776 395.757 720.17 395.445 728.564 395.133 738.088 394.695 751.938 394.658 765.788 394.621 785.336 395.23 803.27 395.223 821.205 395.214 841.003 394.652 859.545 394.61 878.088 394.567 896.766 396.975 914.525 394.969 932.284 392.963 949.733 390.135 966.099 382.574 982.465 375.012 1004.95 355.094 1012.72 349.598M1091.8 272.93C1093.56 275.868 1099.33 283.867 1102.41 290.559 1105.5 297.25 1109.84 303.542 1110.3 313.079 1110.76 322.616 1111.6 336.825 1105.17 347.78 1098.74 358.735 1086.5 371.018 1071.7 378.807 1056.89 386.597 1034.59 391.844 1016.34 394.515 998.096 397.185 980.779 394.76 962.224 394.832 943.669 394.904 923.417 394.923 905.013 394.946 886.609 394.97 862.759 394.904 851.801 394.972 845.532 395.01 842.784 395.243 839.269 395.351 833.124 395.541 819.806 395.958 814.934 396.111 812.482 396.187 811.25 395.958 810.032 396.268 807.61 396.885 802.653 398.913 800.406 399.815 799.228 400.288 797.547 399.785 796.548 401.679 794.642 405.292 791.953 413.4 788.968 421.493 785.982 429.586 782.75 438.272 778.636 450.237 774.522 462.202 769.659 483.697 764.284 493.281 758.909 502.866 753.397 508.669 746.385 507.743 739.373 506.817 730.255 496.689 722.212 487.723 714.169 478.757 703.756 465.256 698.129 453.946 692.502 442.637 688.297 429.277 688.452 419.867 688.607 410.458 693.065 401.604 699.057 397.49 705.05 393.376 714.783 395.628 724.408 395.183 734.032 394.738 743.784 394.84 756.806 394.82 769.828 394.799 785.578 395.068 802.541 395.06 819.504 395.052 840.118 394.922 858.584 394.77 877.049 394.619 895.612 396.094 913.336 394.152 931.06 392.21 948.536 390.469 964.927 383.116 981.318 375.764 998.559 366.929 1011.68 350.037 1024.8 333.145 1038.33 293.145 1043.66 281.766M1091.29 272.149C1093.08 275.084 1098.91 283.109 1102.04 289.763 1105.18 296.418 1109.51 302.494 1110.12 312.076 1110.73 321.658 1111.85 336.288 1105.68 347.255 1099.52 358.221 1087.81 370.029 1073.15 377.875 1058.48 385.721 1035.92 391.454 1017.67 394.333 999.429 397.212 982.238 395.1 963.685 395.149 945.133 395.197 924.8 394.619 906.359 394.624 887.918 394.63 864.018 395.025 853.038 395.181 846.757 395.27 844.004 395.451 840.48 395.56 834.321 395.748 820.992 396.163 816.083 396.316 813.552 396.394 812.31 396.204 811.021 396.477 808.522 397.008 803.348 398.541 801.086 399.499 799.128 400.328 799.005 400.569 797.447 402.225 796.102 403.654 792.447 405.751 790.288 410.974 787.398 417.965 784.125 429.796 780.108 444.17 776.091 458.544 771.389 485.893 766.186 497.218 761.422 507.586 755.091 513 748.891 512.115 742.119 511.148 733.617 500.36 725.555 491.417 717.493 482.474 706.659 469.687 700.519 458.456 694.379 447.224 689.432 433.879 688.716 424.03 688 414.18 694.193 403.878 696.224 399.357 697.305 396.95 699.376 397.227 700.898 396.903 703.757 396.294 707.355 396.038 713.377 395.702 719.136 395.381 725.197 394.973 737.031 394.887 749.405 394.798 769.854 395.201 787.621 395.165 805.388 395.129 825.006 394.681 843.631 394.671 862.256 394.662 881.286 396.125 899.371 395.11 917.455 394.094 935.318 394.218 952.138 388.576 968.958 382.933 986.496 374.654 1000.29 361.255 1014.09 347.856 1024.51 326.688 1034.9 308.181 1045.3 289.673 1055.42 258.766 1062.66 250.21 1068.17 243.701 1074.57 253.854 1078.38 256.844 1083.39 260.775 1088.57 267.902 1092.71 273.795 1096.84 279.688 1100.1 283.637 1103.22 292.203 1106.33 300.769 1112.41 314.127 1111.38 325.192 1110.35 336.258 1107.19 348.174 1097.04 358.596 1086.88 369.018 1067.14 381.657 1050.45 387.722 1033.77 393.788 1015.35 393.826 996.923 394.987 978.497 396.148 958.698 394.673 939.901 394.689 921.103 394.705 902.024 394.865 884.14 395.084 866.256 395.303 843.206 395.629 832.596 396.002 826.508 396.215 822.211 397.129 820.484 397.318 817.509 397.643 817.434 397.651 814.536 397.976 811.603 398.305 807.222 396.756 802.884 399.293 798.547 401.829 791.424 409.292 788.51 413.196 785.919 416.668 786.769 417.899 785.403 422.717 783.867 428.133 782.274 434.669 779.293 445.696 776.312 456.722 773.077 478.5 767.518 488.875 761.959 499.251 754.83 509.666 745.94 507.946 737.051 506.226 722.883 489.173 714.183 478.555 705.482 467.937 697.938 455.34 693.737 444.237 689.537 433.135 689.418 418.219 688.978 411.94 688.776 409.057 690.248 407.715 691.096 406.562 692.941 404.05 695.565 398.639 700.051 396.869 704.537 395.099 709.99 396.364 718.011 395.941 726.033 395.517 735.112 394.365 748.181 394.328 761.25 394.29 779.03 395.753 796.425 395.714 813.82 395.675 833.994 394.113 852.551 394.096 871.108 394.078 889.885 397.157 907.766 395.611 925.647 394.065 943.271 391.489 959.838 384.82 976.404 378.152 993.769 371.452 1007.16 355.598 1020.56 339.745 1030.11 307.894 1040.21 289.697 1050.3 271.5 1060.47 250.832 1067.75 246.416 1075.03 242 1079.07 257.578 1083.88 263.2 1088.7 268.822 1092.88 274.153 1096.64 280.148 1100.41 286.142 1104.21 289.864 1106.48 299.167 1108.75 308.47 1113 325.033 1110.25 335.963 1107.51 346.894 1095.15 358.409 1090 364.752 1085.57 370.223 1084.78 370.848 1079.39 374.02 1073.15 377.698 1063.4 383.515 1052.52 386.817 1041.64 390.119 1029.19 392.375 1014.12 393.834 999.048 395.292 979.932 395.512 962.081 395.568 944.23 395.624 925.009 394.143 907.015 394.171 889.02 394.198 865.024 395.517 854.113 395.735 847.828 395.86 845.096 395.551 841.544 395.477 835.378 395.348 822.068 395.067 817.112 394.962 814.461 394.906 813.21 394.442 811.81 394.847 809.502 395.513 804.923 395.014 801.408 399.495 797.424 404.576 792.112 416.061 787.902 425.333 783.692 434.604 780.118 442.857 776.149 455.122 772.18 467.386 768.679 490.165 764.088 498.922 759.961 506.794 754.864 509.329 748.602 507.662 741.635 505.808 730.737 496.983 722.293 487.797 713.848 478.612 703.574 463.956 697.933 452.55 692.291 441.144 688.234 428.348 688.445 419.363 688.656 410.377 693.186 402.628 699.2 398.638 705.215 394.648 714.902 396.074 724.531 395.423 734.159 394.772 743.921 394.799 756.972 394.733 770.023 394.668 785.852 395.143 802.836 395.032 819.82 394.921 842.697 393.896 858.876 394.068 875.056 394.239 886.234 395.396 899.913 396.06" stroke="#4472C4" stroke-width="2" stroke-linecap="round" stroke-linejoin="round" stroke-miterlimit="10" fill="none"/></g><g><text fill="#595959" font-family="Calibri,Calibri_MSFontService,sans-serif" font-weight="400" font-size="12" transform="translate(851.686 555)">-0.0004</text></g><g><text fill="#595959" font-family="Calibri,Calibri_MSFontService,sans-serif" font-weight="400" font-size="12" transform="translate(851.686 516)">-0.0003</text></g><g><text fill="#595959" font-family="Calibri,Calibri_MSFontService,sans-serif" font-weight="400" font-size="12" transform="translate(851.686 477)">-0.0002</text></g><g><text fill="#595959" font-family="Calibri,Calibri_MSFontService,sans-serif" font-weight="400" font-size="12" transform="translate(851.686 437)">-0.0001</text></g><g><text fill="#595959" font-family="Calibri,Calibri_MSFontService,sans-serif" font-weight="400" font-size="12" transform="translate(882.706 398)">0</text></g><g><text fill="#595959" font-family="Calibri,Calibri_MSFontService,sans-serif" font-weight="400" font-size="12" transform="translate(855.359 358)">0.0001</text></g><g><text fill="#595959" font-family="Calibri,Calibri_MSFontService,sans-serif" font-weight="400" font-size="12" transform="translate(855.359 319)">0.0002</text></g><g><text fill="#595959" font-family="Calibri,Calibri_MSFontService,sans-serif" font-weight="400" font-size="12" transform="translate(855.359 280)">0.0003</text></g><g><text fill="#595959" font-family="Calibri,Calibri_MSFontService,sans-serif" font-weight="400" font-size="12" transform="translate(855.359 240)">0.0004</text></g><g><text fill="#595959" font-family="Calibri,Calibri_MSFontService,sans-serif" font-weight="400" font-size="12" transform="translate(855.359 201)">0.0005</text></g><g><text fill="#595959" font-family="Calibri,Calibri_MSFontService,sans-serif" font-weight="400" font-size="12" transform="translate(630.667 413)">-1</text></g><g><text fill="#595959" font-family="Calibri,Calibri_MSFontService,sans-serif" font-weight="400" font-size="12" transform="translate(678.988 413)">-0.8</text></g><g><text fill="#595959" font-family="Calibri,Calibri_MSFontService,sans-serif" font-weight="400" font-size="12" transform="translate(731.863 413)">-0.6</text></g><g><text fill="#595959" font-family="Calibri,Calibri_MSFontService,sans-serif" font-weight="400" font-size="12" transform="translate(784.738 413)">-0.4</text></g><g><text fill="#595959" font-family="Calibri,Calibri_MSFontService,sans-serif" font-weight="400" font-size="12" transform="translate(837.613 413)">-0.2</text></g><g><text fill="#595959" font-family="Calibri,Calibri_MSFontService,sans-serif" font-weight="400" font-size="12" transform="translate(896.878 413)">0</text></g><g><text fill="#595959" font-family="Calibri,Calibri_MSFontService,sans-serif" font-weight="400" font-size="12" transform="translate(945.2 413)">0.2</text></g><g><text fill="#595959" font-family="Calibri,Calibri_MSFontService,sans-serif" font-weight="400" font-size="12" transform="translate(998.075 413)">0.4</text></g><g><text fill="#595959" font-family="Calibri,Calibri_MSFontService,sans-serif" font-weight="400" font-size="12" transform="translate(1050.95 413)">0.6</text></g><g><text fill="#595959" font-family="Calibri,Calibri_MSFontService,sans-serif" font-weight="400" font-size="12" transform="translate(1103.83 413)">0.8</text></g><g><text fill="#595959" font-family="Calibri,Calibri_MSFontService,sans-serif" font-weight="400" font-size="12" transform="translate(1161.25 413)">1</text></g></g></svg>