<svg width="552" height="401" xmlns="http://www.w3.org/2000/svg" xmlns:xlink="http://www.w3.org/1999/xlink" overflow="hidden"><defs><clipPath id="clip0"><rect x="585" y="126" width="552" height="401"/></clipPath></defs><g clip-path="url(#clip0)" transform="translate(-585 -126)"><g><path d="M0 0 0.000104987 371" stroke="#BFBFBF" stroke-linejoin="round" stroke-miterlimit="10" fill="none" fill-rule="evenodd" transform="matrix(1 0 0 -1 861.5 512.5)"/></g><g><path d="M604.5 300.5 1118.5 300.5" stroke="#BFBFBF" stroke-linejoin="round" stroke-miterlimit="10" fill="none" fill-rule="evenodd"/></g><g><path d="M861.861 300.558C861.894 300.555 861.927 300.552 861.959 300.55 861.99 300.549 862.003 300.55 862.048 300.55 862.093 300.55 862.137 300.55 862.226 300.55 862.316 300.55 862.405 300.55 862.583 300.55 862.762 300.55 862.94 300.55 863.297 300.551 863.654 300.551 864.011 300.551 864.725 300.551 865.439 300.551 866.153 300.551 867.58 300.551 869.007 300.55 870.439 300.55 873.287 300.55 876.135 300.55 879.019 300.551 884.669 300.55 890.319 300.549 898.604 300.591 907.187 300.543 915.769 300.494 925.974 300.801 936.164 300.259 946.353 299.717 957.525 298.912 968.325 297.29 979.125 295.669 990.537 293.189 1000.96 290.527 1011.39 287.866 1022 289.573 1030.89 281.321 1039.78 273.069 1048.37 255.537 1054.31 241.016 1060.25 226.496 1065.09 191 1066.54 194.198 1068 197.396 1065.97 244.081 1063.05 260.203 1060.13 276.326 1055.85 284.283 1049.02 290.933 1042.18 297.583 1032.89 298.836 1022.06 300.104 1011.22 301.372 999.415 298.454 983.995 298.541 968.574 298.628 947.673 300.299 929.534 300.624 911.396 300.949 892.88 300.49 875.161 300.492 857.443 300.494 839.866 300.636 823.221 300.636 806.577 300.636 790.354 300.488 775.294 300.491 760.234 300.495 742.385 299.424 732.859 300.658 729.425 301.103 720.271 299.979 718.133 307.896 712.202 329.866 705.235 405.32 697.268 432.478 690.67 454.967 674.757 468.584 670.33 470.846 668.071 472 666.174 460.108 665.194 448.864 662.875 422.255 647 335.91 656.417 311.195 665.833 286.479 701.88 302.326 721.693 300.571 741.506 298.816 757.427 300.635 775.294 300.667" stroke="#4472C4" stroke-width="2" stroke-linecap="round" stroke-linejoin="round" stroke-miterlimit="10" fill="none"/></g><g><text fill="#595959" font-family="Calibri,Calibri_MSFontService,sans-serif" font-weight="400" font-size="12" transform="translate(819.433 515)">-0.002</text></g><g><text fill="#595959" font-family="Calibri,Calibri_MSFontService,sans-serif" font-weight="400" font-size="12" transform="translate(813.353 462)">-0.0015</text></g><g><text fill="#595959" font-family="Calibri,Calibri_MSFontService,sans-serif" font-weight="400" font-size="12" transform="translate(819.433 409)">-0.001</text></g><g><text fill="#595959" font-family="Calibri,Calibri_MSFontService,sans-serif" font-weight="400" font-size="12" transform="translate(813.353 356)">-0.0005</text></g><g><text fill="#595959" font-family="Calibri,Calibri_MSFontService,sans-serif" font-weight="400" font-size="12" transform="translate(844.373 303)">0</text></g><g><text fill="#595959" font-family="Calibri,Calibri_MSFontService,sans-serif" font-weight="400" font-size="12" transform="translate(817.026 250)">0.0005</text></g><g><text fill="#595959" font-family="Calibri,Calibri_MSFontService,sans-serif" font-weight="400" font-size="12" transform="translate(823.106 197)">0.001</text></g><g><text fill="#595959" font-family="Calibri,Calibri_MSFontService,sans-serif" font-weight="400" font-size="12" transform="translate(817.026 144)">0.0015</text></g><g><text fill="#595959" font-family="Calibri,Calibri_MSFontService,sans-serif" font-weight="400" font-size="12" transform="translate(600 319)">-1</text></g><g><text fill="#595959" font-family="Calibri,Calibri_MSFontService,sans-serif" font-weight="400" font-size="12" transform="translate(646.788 319)">-0.8</text></g><g><text fill="#595959" font-family="Calibri,Calibri_MSFontService,sans-serif" font-weight="400" font-size="12" transform="translate(698.13 319)">-0.6</text></g><g><text fill="#595959" font-family="Calibri,Calibri_MSFontService,sans-serif" font-weight="400" font-size="12" transform="translate(749.472 319)">-0.4</text></g><g><text fill="#595959" font-family="Calibri,Calibri_MSFontService,sans-serif" font-weight="400" font-size="12" transform="translate(800.813 319)">-0.2</text></g><g><text fill="#595959" font-family="Calibri,Calibri_MSFontService,sans-serif" font-weight="400" font-size="12" transform="translate(858.545 319)">0</text></g><g><text fill="#595959" font-family="Calibri,Calibri_MSFontService,sans-serif" font-weight="400" font-size="12" transform="translate(905.333 319)">0.2</text></g><g><text fill="#595959" font-family="Calibri,Calibri_MSFontService,sans-serif" font-weight="400" font-size="12" transform="translate(956.675 319)">0.4</text></g><g><text fill="#595959" font-family="Calibri,Calibri_MSFontService,sans-serif" font-weight="400" font-size="12" transform="translate(1008.02 319)">0.6</text></g><g><text fill="#595959" font-family="Calibri,Calibri_MSFontService,sans-serif" font-weight="400" font-size="12" transform="translate(1059.36 319)">0.8</text></g><g><text fill="#595959" font-family="Calibri,Calibri_MSFontService,sans-serif" font-weight="400" font-size="12" transform="translate(1115.25 319)">1</text></g></g></svg>