<svg width="507" height="364" xmlns="http://www.w3.org/2000/svg" xmlns:xlink="http://www.w3.org/1999/xlink" overflow="hidden"><defs><clipPath id="clip0"><rect x="690" y="173" width="507" height="364"/></clipPath></defs><g clip-path="url(#clip0)" transform="translate(-690 -173)"><g><path d="M0 0 0.000104987 333" stroke="#BFBFBF" stroke-linejoin="round" stroke-miterlimit="10" fill="none" fill-rule="evenodd" transform="matrix(1 0 0 -1 944.5 521.5)"/></g><g><path d="M710.5 336.5 1178.5 336.5" stroke="#BFBFBF" stroke-linejoin="round" stroke-miterlimit="10" fill="none" fill-rule="evenodd"/></g><g><path d="M944.285 336.172C944.315 336.168 944.346 336.162 944.374 336.16 944.402 336.158 944.415 336.16 944.455 336.16 944.496 336.16 944.537 336.16 944.618 336.16 944.699 336.16 944.78 336.16 944.943 336.16 945.106 336.16 945.268 336.16 945.593 336.16 945.918 336.16 946.243 336.16 946.893 336.16 947.543 336.16 948.194 336.16 949.493 336.16 950.793 336.16 952.096 336.16 954.69 336.16 957.283 336.16 959.91 336.161 965.055 336.159 970.2 336.158 977.745 336.222 985.56 336.15 993.375 336.079 1002.67 336.678 1011.95 335.731 1021.23 334.785 1031.4 333.433 1041.23 330.471 1051.07 327.509 1061.46 322.588 1070.96 317.959 1080.45 313.33 1090.11 309.596 1098.21 302.699 1106.3 295.801 1114.12 290.344 1119.53 276.574 1124.94 262.804 1129.35 220.159 1130.67 220.08 1132 220 1130.15 262.133 1127.49 276.095 1124.83 290.058 1120.94 295.773 1114.71 303.855 1108.49 311.936 1100.03 319.195 1090.16 324.585 1080.29 329.976 1069.54 334.288 1055.5 336.2 1041.46 338.111 1022.43 336.035 1005.91 336.054 989.392 336.073 972.532 336.312 956.397 336.312 940.262 336.312 924.256 336.053 909.099 336.053 893.942 336.052 879.17 336.248 865.455 336.31 851.741 336.372 838.606 330.497 826.813 336.425 816.525 341.597 802.806 349.372 794.695 371.881 785.395 397.685 777.103 486.506 771.017 491.253 764.931 496 756 425.227 758.18 400.364 760.36 375.501 774.353 352.741 784.097 342.076 793.841 331.411 810.981 337.362 816.645 336.372 817.152 336.283 817.353 336.134 818.081 336.131 826.216 336.101 849.664 336.173 865.455 336.194" stroke="#4472C4" stroke-width="2" stroke-linecap="round" stroke-linejoin="round" stroke-miterlimit="10" fill="none"/></g><g><text fill="#595959" font-family="Calibri,Calibri_MSFontService,sans-serif" font-weight="400" font-size="12" transform="translate(901.933 525)">-0.001</text></g><g><text fill="#595959" font-family="Calibri,Calibri_MSFontService,sans-serif" font-weight="400" font-size="12" transform="translate(895.853 487)">-0.0008</text></g><g><text fill="#595959" font-family="Calibri,Calibri_MSFontService,sans-serif" font-weight="400" font-size="12" transform="translate(895.853 450)">-0.0006</text></g><g><text fill="#595959" font-family="Calibri,Calibri_MSFontService,sans-serif" font-weight="400" font-size="12" transform="translate(895.853 413)">-0.0004</text></g><g><text fill="#595959" font-family="Calibri,Calibri_MSFontService,sans-serif" font-weight="400" font-size="12" transform="translate(895.853 376)">-0.0002</text></g><g><text fill="#595959" font-family="Calibri,Calibri_MSFontService,sans-serif" font-weight="400" font-size="12" transform="translate(926.873 339)">0</text></g><g><text fill="#595959" font-family="Calibri,Calibri_MSFontService,sans-serif" font-weight="400" font-size="12" transform="translate(899.526 302)">0.0002</text></g><g><text fill="#595959" font-family="Calibri,Calibri_MSFontService,sans-serif" font-weight="400" font-size="12" transform="translate(899.526 265)">0.0004</text></g><g><text fill="#595959" font-family="Calibri,Calibri_MSFontService,sans-serif" font-weight="400" font-size="12" transform="translate(899.526 228)">0.0006</text></g><g><text fill="#595959" font-family="Calibri,Calibri_MSFontService,sans-serif" font-weight="400" font-size="12" transform="translate(899.526 191)">0.0008</text></g><g><text fill="#595959" font-family="Calibri,Calibri_MSFontService,sans-serif" font-weight="400" font-size="12" transform="translate(705.167 355)">-1</text></g><g><text fill="#595959" font-family="Calibri,Calibri_MSFontService,sans-serif" font-weight="400" font-size="12" transform="translate(747.422 355)">-0.8</text></g><g><text fill="#595959" font-family="Calibri,Calibri_MSFontService,sans-serif" font-weight="400" font-size="12" transform="translate(794.23 355)">-0.6</text></g><g><text fill="#595959" font-family="Calibri,Calibri_MSFontService,sans-serif" font-weight="400" font-size="12" transform="translate(841.039 355)">-0.4</text></g><g><text fill="#595959" font-family="Calibri,Calibri_MSFontService,sans-serif" font-weight="400" font-size="12" transform="translate(887.847 355)">-0.2</text></g><g><text fill="#595959" font-family="Calibri,Calibri_MSFontService,sans-serif" font-weight="400" font-size="12" transform="translate(941.045 355)">0</text></g><g><text fill="#595959" font-family="Calibri,Calibri_MSFontService,sans-serif" font-weight="400" font-size="12" transform="translate(983.3 355)">0.2</text></g><g><text fill="#595959" font-family="Calibri,Calibri_MSFontService,sans-serif" font-weight="400" font-size="12" transform="translate(1030.11 355)">0.4</text></g><g><text fill="#595959" font-family="Calibri,Calibri_MSFontService,sans-serif" font-weight="400" font-size="12" transform="translate(1076.92 355)">0.6</text></g><g><text fill="#595959" font-family="Calibri,Calibri_MSFontService,sans-serif" font-weight="400" font-size="12" transform="translate(1123.73 355)">0.8</text></g><g><text fill="#595959" font-family="Calibri,Calibri_MSFontService,sans-serif" font-weight="400" font-size="12" transform="translate(1175.09 355)">1</text></g></g></svg>