<svg width="491" height="330" xmlns="http://www.w3.org/2000/svg" xmlns:xlink="http://www.w3.org/1999/xlink" overflow="hidden"><defs><clipPath id="clip0"><rect x="34" y="157" width="491" height="330"/></clipPath></defs><g clip-path="url(#clip0)" transform="translate(-34 -157)"><g><path d="M0 0 0.000104987 300" stroke="#BFBFBF" stroke-linejoin="round" stroke-miterlimit="10" fill="none" fill-rule="evenodd" transform="matrix(1 0 0 -1 280.5 472.5)"/></g><g><path d="M54.5001 322.5 506.5 322.5" stroke="#BFBFBF" stroke-linejoin="round" stroke-miterlimit="10" fill="none" fill-rule="evenodd"/></g><g><path d="M280.263 321.957C280.292 321.955 280.322 321.953 280.349 321.953 280.376 321.952 280.388 321.953 280.428 321.953 280.467 321.953 280.506 321.953 280.585 321.953 280.663 321.953 280.742 321.953 280.898 321.953 281.055 321.953 281.212 321.953 281.526 321.953 281.84 321.953 282.154 321.953 282.781 321.953 283.409 321.953 284.037 321.953 285.291 321.953 286.546 321.953 287.804 321.953 290.308 321.953 292.812 321.953 295.347 321.953 300.314 321.953 305.281 321.951 312.564 321.979 320.109 321.947 327.654 321.915 336.625 322.069 345.583 321.761 354.54 321.453 364.361 320.389 373.855 320.101 383.35 319.813 393.382 320.043 402.549 320.032 411.716 320.02 419.499 323.7 428.857 320.032 438.216 316.363 453.402 313.096 458.701 298.022 464 282.948 460.913 243.855 460.651 229.589 460.49 220.83 458.75 212 457.127 212.427 454.822 213.034 450.031 222.608 444.792 233.765 438.786 246.556 430.617 275.763 421.091 289.173 411.564 302.584 401.187 309.393 387.631 314.228 374.075 319.062 355.701 316.956 339.755 318.182 323.809 319.409 307.532 320.948 291.956 321.585 276.379 322.222 260.927 321.951 246.295 322.006 231.663 322.061 217.402 321.915 204.162 321.915 190.923 321.915 178.243 322.005 166.857 322.006 155.472 322.007 144.829 317.268 135.851 321.919 126.874 326.57 118.492 335.835 112.993 349.911 107.494 363.986 104.893 389.367 102.858 406.37 100.824 423.373 99 445.861 100.786 451.931 102.572 458 110.196 447.857 113.574 442.787 116.953 437.716 118.203 429.393 121.059 421.506 123.915 413.619 126.96 407.292 130.712 395.465 134.465 383.637 140.501 360.31 143.573 350.541 145.792 343.488 147.052 339.991 149.149 336.848 151.634 333.124 152.696 326.557 161.004 324.418 170.718 321.918 191.695 322.217 207.43 321.844 223.164 321.471 239.417 322.067 255.411 322.179" stroke="#4472C4" stroke-width="2" stroke-linecap="round" stroke-linejoin="round" stroke-miterlimit="10" fill="none"/></g><g><text fill="#595959" font-family="Calibri,Calibri_MSFontService,sans-serif" font-weight="400" font-size="12" transform="translate(232.019 475)">-0.0025</text></g><g><text fill="#595959" font-family="Calibri,Calibri_MSFontService,sans-serif" font-weight="400" font-size="12" transform="translate(238.099 445)">-0.002</text></g><g><text fill="#595959" font-family="Calibri,Calibri_MSFontService,sans-serif" font-weight="400" font-size="12" transform="translate(232.019 415)">-0.0015</text></g><g><text fill="#595959" font-family="Calibri,Calibri_MSFontService,sans-serif" font-weight="400" font-size="12" transform="translate(238.099 385)">-0.001</text></g><g><text fill="#595959" font-family="Calibri,Calibri_MSFontService,sans-serif" font-weight="400" font-size="12" transform="translate(232.019 355)">-0.0005</text></g><g><text fill="#595959" font-family="Calibri,Calibri_MSFontService,sans-serif" font-weight="400" font-size="12" transform="translate(263.039 325)">0</text></g><g><text fill="#595959" font-family="Calibri,Calibri_MSFontService,sans-serif" font-weight="400" font-size="12" transform="translate(235.693 295)">0.0005</text></g><g><text fill="#595959" font-family="Calibri,Calibri_MSFontService,sans-serif" font-weight="400" font-size="12" transform="translate(241.773 265)">0.001</text></g><g><text fill="#595959" font-family="Calibri,Calibri_MSFontService,sans-serif" font-weight="400" font-size="12" transform="translate(235.693 235)">0.0015</text></g><g><text fill="#595959" font-family="Calibri,Calibri_MSFontService,sans-serif" font-weight="400" font-size="12" transform="translate(241.773 205)">0.002</text></g><g><text fill="#595959" font-family="Calibri,Calibri_MSFontService,sans-serif" font-weight="400" font-size="12" transform="translate(235.693 175)">0.0025</text></g><g><text fill="#595959" font-family="Calibri,Calibri_MSFontService,sans-serif" font-weight="400" font-size="12" transform="translate(49.3333 341)">-1</text></g><g><text fill="#595959" font-family="Calibri,Calibri_MSFontService,sans-serif" font-weight="400" font-size="12" transform="translate(89.9882 341)">-0.8</text></g><g><text fill="#595959" font-family="Calibri,Calibri_MSFontService,sans-serif" font-weight="400" font-size="12" transform="translate(135.197 341)">-0.6</text></g><g><text fill="#595959" font-family="Calibri,Calibri_MSFontService,sans-serif" font-weight="400" font-size="12" transform="translate(180.405 341)">-0.4</text></g><g><text fill="#595959" font-family="Calibri,Calibri_MSFontService,sans-serif" font-weight="400" font-size="12" transform="translate(225.613 341)">-0.2</text></g><g><text fill="#595959" font-family="Calibri,Calibri_MSFontService,sans-serif" font-weight="400" font-size="12" transform="translate(277.212 341)">0</text></g><g><text fill="#595959" font-family="Calibri,Calibri_MSFontService,sans-serif" font-weight="400" font-size="12" transform="translate(317.867 341)">0.2</text></g><g><text fill="#595959" font-family="Calibri,Calibri_MSFontService,sans-serif" font-weight="400" font-size="12" transform="translate(363.075 341)">0.4</text></g><g><text fill="#595959" font-family="Calibri,Calibri_MSFontService,sans-serif" font-weight="400" font-size="12" transform="translate(408.283 341)">0.6</text></g><g><text fill="#595959" font-family="Calibri,Calibri_MSFontService,sans-serif" font-weight="400" font-size="12" transform="translate(453.492 341)">0.8</text></g><g><text fill="#595959" font-family="Calibri,Calibri_MSFontService,sans-serif" font-weight="400" font-size="12" transform="translate(503.253 341)">1</text></g></g></svg>