<svg width="484" height="281" xmlns="http://www.w3.org/2000/svg" xmlns:xlink="http://www.w3.org/1999/xlink" overflow="hidden"><defs><clipPath id="clip0"><rect x="42" y="230" width="484" height="281"/></clipPath></defs><g clip-path="url(#clip0)" transform="translate(-42 -230)"><g><path d="M0 0 0.000104987 251" stroke="#BFBFBF" stroke-linejoin="round" stroke-miterlimit="10" fill="none" fill-rule="evenodd" transform="matrix(1 0 0 -1 284.5 496.5)"/></g><g><path d="M61.5001 384.5 507.5 384.5" stroke="#BFBFBF" stroke-linejoin="round" stroke-miterlimit="10" fill="none" fill-rule="evenodd"/></g><g><path d="M285.122 384.429C285.15 384.426 285.179 384.422 285.206 384.42 285.233 384.419 285.245 384.42 285.284 384.42 285.322 384.42 285.361 384.42 285.439 384.421 285.516 384.421 285.594 384.421 285.749 384.421 285.903 384.421 286.058 384.421 286.368 384.421 286.678 384.421 286.988 384.421 287.607 384.421 288.226 384.421 288.846 384.421 290.085 384.421 291.323 384.42 292.565 384.42 295.036 384.42 297.508 384.42 300.011 384.421 304.913 384.42 309.816 384.419 317.006 384.459 324.453 384.416 331.901 384.372 340.756 384.874 349.598 384.16 358.44 383.445 368.134 382.477 377.506 380.131 386.878 377.786 396.781 376.093 405.83 370.086 414.878 364.078 424.083 355.022 431.798 344.087 439.513 333.151 446.963 318.253 452.12 304.472 457.276 290.69 461.472 255 462.736 261.398 464 267.796 462.238 326.021 459.703 342.861 457.986 354.266 451.542 358.418 447.527 362.439 441.599 368.377 433.536 374.826 424.132 378.488 414.728 382.151 404.485 383.42 391.104 384.414 377.723 385.407 359.586 384.449 343.846 384.451 328.105 384.453 312.039 384.425 296.663 384.425 281.287 384.424 266.035 384.45 251.592 384.45 237.148 384.449 223.071 384.426 210.003 384.423 196.934 384.419 184.417 383.46 173.179 384.429 161.976 385.395 151.407 377.385 142.573 390.237 133.711 403.128 125.94 461.555 120.01 461.777 114.079 462 99 404.461 106.99 391.572 114.979 378.684 147.628 386.822 167.947 384.447" stroke="#4472C4" stroke-width="2" stroke-linecap="round" stroke-linejoin="round" stroke-miterlimit="10" fill="none"/></g><g><text fill="#595959" font-family="Calibri,Calibri_MSFontService,sans-serif" font-weight="400" font-size="12" transform="translate(236.686 499)">-0.0008</text></g><g><text fill="#595959" font-family="Calibri,Calibri_MSFontService,sans-serif" font-weight="400" font-size="12" transform="translate(236.686 471)">-0.0006</text></g><g><text fill="#595959" font-family="Calibri,Calibri_MSFontService,sans-serif" font-weight="400" font-size="12" transform="translate(236.686 443)">-0.0004</text></g><g><text fill="#595959" font-family="Calibri,Calibri_MSFontService,sans-serif" font-weight="400" font-size="12" transform="translate(236.686 415)">-0.0002</text></g><g><text fill="#595959" font-family="Calibri,Calibri_MSFontService,sans-serif" font-weight="400" font-size="12" transform="translate(267.706 388)">0</text></g><g><text fill="#595959" font-family="Calibri,Calibri_MSFontService,sans-serif" font-weight="400" font-size="12" transform="translate(240.359 360)">0.0002</text></g><g><text fill="#595959" font-family="Calibri,Calibri_MSFontService,sans-serif" font-weight="400" font-size="12" transform="translate(240.359 332)">0.0004</text></g><g><text fill="#595959" font-family="Calibri,Calibri_MSFontService,sans-serif" font-weight="400" font-size="12" transform="translate(240.359 304)">0.0006</text></g><g><text fill="#595959" font-family="Calibri,Calibri_MSFontService,sans-serif" font-weight="400" font-size="12" transform="translate(240.359 276)">0.0008</text></g><g><text fill="#595959" font-family="Calibri,Calibri_MSFontService,sans-serif" font-weight="400" font-size="12" transform="translate(246.439 248)">0.001</text></g><g><text fill="#595959" font-family="Calibri,Calibri_MSFontService,sans-serif" font-weight="400" font-size="12" transform="translate(57.0302 403)">-1</text></g><g><text fill="#595959" font-family="Calibri,Calibri_MSFontService,sans-serif" font-weight="400" font-size="12" transform="translate(97.0792 403)">-0.8</text></g><g><text fill="#595959" font-family="Calibri,Calibri_MSFontService,sans-serif" font-weight="400" font-size="12" transform="translate(141.681 403)">-0.6</text></g><g><text fill="#595959" font-family="Calibri,Calibri_MSFontService,sans-serif" font-weight="400" font-size="12" transform="translate(186.284 403)">-0.4</text></g><g><text fill="#595959" font-family="Calibri,Calibri_MSFontService,sans-serif" font-weight="400" font-size="12" transform="translate(230.886 403)">-0.2</text></g><g><text fill="#595959" font-family="Calibri,Calibri_MSFontService,sans-serif" font-weight="400" font-size="12" transform="translate(281.878 403)">0</text></g><g><text fill="#595959" font-family="Calibri,Calibri_MSFontService,sans-serif" font-weight="400" font-size="12" transform="translate(321.927 403)">0.2</text></g><g><text fill="#595959" font-family="Calibri,Calibri_MSFontService,sans-serif" font-weight="400" font-size="12" transform="translate(366.53 403)">0.4</text></g><g><text fill="#595959" font-family="Calibri,Calibri_MSFontService,sans-serif" font-weight="400" font-size="12" transform="translate(411.132 403)">0.6</text></g><g><text fill="#595959" font-family="Calibri,Calibri_MSFontService,sans-serif" font-weight="400" font-size="12" transform="translate(455.734 403)">0.8</text></g><g><text fill="#595959" font-family="Calibri,Calibri_MSFontService,sans-serif" font-weight="400" font-size="12" transform="translate(504.89 403)">1</text></g></g></svg>