<svg width="519" height="347" xmlns="http://www.w3.org/2000/svg" xmlns:xlink="http://www.w3.org/1999/xlink" overflow="hidden"><defs><clipPath id="clip0"><rect x="605" y="187" width="519" height="347"/></clipPath></defs><g clip-path="url(#clip0)" transform="translate(-605 -187)"><g><path d="M0 0 0.000104987 317" stroke="#BFBFBF" stroke-linejoin="round" stroke-miterlimit="10" fill="none" fill-rule="evenodd" transform="matrix(1 0 0 -1 865.5 518.5)"/></g><g><path d="M625.5 359.5 1105.5 359.5" stroke="#BFBFBF" stroke-linejoin="round" stroke-miterlimit="10" fill="none" fill-rule="evenodd"/></g><g><path d="M865.428 359.946C865.459 359.946 865.49 359.944 865.519 359.944 865.548 359.943 865.561 359.944 865.603 359.944 865.644 359.944 865.686 359.944 865.77 359.944 865.853 359.944 865.936 359.944 866.103 359.944 866.27 359.944 866.437 359.944 866.77 359.944 867.103 359.944 867.437 359.944 868.104 359.944 868.771 359.944 869.438 359.944 870.771 359.944 872.104 359.944 873.441 359.944 876.102 359.944 878.763 359.944 881.457 359.944 886.735 359.944 892.013 359.943 899.753 359.962 907.771 359.939 915.788 359.915 925.321 360.004 934.84 359.801 944.359 359.599 954.795 358.7 964.885 358.724 974.974 358.747 985.635 360.432 995.376 359.944 1005.12 359.456 1014.03 360.96 1023.33 355.795 1032.64 350.63 1045.66 340.464 1051.21 328.955 1056.76 317.446 1056.28 299.441 1056.64 286.742 1057 274.042 1056.1 263.981 1053.37 252.757 1050.64 241.533 1046.65 221.795 1040.27 219.398 1033.88 217 1024 225.687 1015.08 238.371 1006.16 251.055 996.396 278.811 986.721 295.504 977.045 312.197 966.703 328.482 957.024 338.529 949.575 346.26 945.026 353.04 928.647 355.784 907.365 359.349 853.346 359.302 829.332 359.919 806.951 360.493 797.67 359.842 784.559 359.482 770.49 359.096 757.015 357.526 744.916 357.599 732.818 357.672 721.507 357.564 711.967 359.918 702.427 362.273 694.062 366.126 687.677 371.726 681.292 377.325 675.32 385.227 673.66 393.513 672 401.799 675.163 408.912 677.717 421.44 680.271 433.967 684.12 458.963 688.985 468.678 693.697 478.089 698.88 485 706.906 479.729 715.191 474.288 729.174 453.84 738.697 436.031 748.219 418.223 756.516 385.564 764.04 372.879 768.311 365.677 772.069 361.145 783.839 359.919 804.569 357.759 863.322 359.919 888.419 359.919 911.419 359.919 921.094 359.848 934.419 359.919 948.958 359.997 962.948 360.422 975.653 360.386 988.357 360.35 998.98 359.93 1010.64 359.702" stroke="#4472C4" stroke-width="2" stroke-linecap="round" stroke-linejoin="round" stroke-miterlimit="10" fill="none"/></g><g><text fill="#595959" font-family="Calibri,Calibri_MSFontService,sans-serif" font-weight="400" font-size="12" transform="translate(823.392 521)">-0.004</text></g><g><text fill="#595959" font-family="Calibri,Calibri_MSFontService,sans-serif" font-weight="400" font-size="12" transform="translate(823.392 482)">-0.003</text></g><g><text fill="#595959" font-family="Calibri,Calibri_MSFontService,sans-serif" font-weight="400" font-size="12" transform="translate(823.392 442)">-0.002</text></g><g><text fill="#595959" font-family="Calibri,Calibri_MSFontService,sans-serif" font-weight="400" font-size="12" transform="translate(823.392 403)">-0.001</text></g><g><text fill="#595959" font-family="Calibri,Calibri_MSFontService,sans-serif" font-weight="400" font-size="12" transform="translate(848.332 363)">0</text></g><g><text fill="#595959" font-family="Calibri,Calibri_MSFontService,sans-serif" font-weight="400" font-size="12" transform="translate(827.066 323)">0.001</text></g><g><text fill="#595959" font-family="Calibri,Calibri_MSFontService,sans-serif" font-weight="400" font-size="12" transform="translate(827.066 284)">0.002</text></g><g><text fill="#595959" font-family="Calibri,Calibri_MSFontService,sans-serif" font-weight="400" font-size="12" transform="translate(827.066 244)">0.003</text></g><g><text fill="#595959" font-family="Calibri,Calibri_MSFontService,sans-serif" font-weight="400" font-size="12" transform="translate(827.066 205)">0.004</text></g><g><text fill="#595959" font-family="Calibri,Calibri_MSFontService,sans-serif" font-weight="400" font-size="12" transform="translate(620.419 379)">-1</text></g><g><text fill="#595959" font-family="Calibri,Calibri_MSFontService,sans-serif" font-weight="400" font-size="12" transform="translate(663.915 379)">-0.8</text></g><g><text fill="#595959" font-family="Calibri,Calibri_MSFontService,sans-serif" font-weight="400" font-size="12" transform="translate(711.965 379)">-0.6</text></g><g><text fill="#595959" font-family="Calibri,Calibri_MSFontService,sans-serif" font-weight="400" font-size="12" transform="translate(760.015 379)">-0.4</text></g><g><text fill="#595959" font-family="Calibri,Calibri_MSFontService,sans-serif" font-weight="400" font-size="12" transform="translate(808.065 379)">-0.2</text></g><g><text fill="#595959" font-family="Calibri,Calibri_MSFontService,sans-serif" font-weight="400" font-size="12" transform="translate(862.505 379)">0</text></g><g><text fill="#595959" font-family="Calibri,Calibri_MSFontService,sans-serif" font-weight="400" font-size="12" transform="translate(906.001 379)">0.2</text></g><g><text fill="#595959" font-family="Calibri,Calibri_MSFontService,sans-serif" font-weight="400" font-size="12" transform="translate(954.051 379)">0.4</text></g><g><text fill="#595959" font-family="Calibri,Calibri_MSFontService,sans-serif" font-weight="400" font-size="12" transform="translate(1002.1 379)">0.6</text></g><g><text fill="#595959" font-family="Calibri,Calibri_MSFontService,sans-serif" font-weight="400" font-size="12" transform="translate(1050.15 379)">0.8</text></g><g><text fill="#595959" font-family="Calibri,Calibri_MSFontService,sans-serif" font-weight="400" font-size="12" transform="translate(1102.75 379)">1</text></g></g></svg>