<svg width="517" height="303" xmlns="http://www.w3.org/2000/svg" xmlns:xlink="http://www.w3.org/1999/xlink" overflow="hidden"><defs><clipPath id="clip0"><rect x="54" y="185" width="517" height="303"/></clipPath></defs><g clip-path="url(#clip0)" transform="translate(-54 -185)"><g><path d="M0 0 0.000104987 272" stroke="#BFBFBF" stroke-linejoin="round" stroke-miterlimit="10" fill="none" fill-rule="evenodd" transform="matrix(1 0 0 -1 313.5 472.5)"/></g><g><path d="M74.5001 351.5 552.5 351.5" stroke="#BFBFBF" stroke-linejoin="round" stroke-miterlimit="10" fill="none" fill-rule="evenodd"/></g><g><path d="M313.228 352.006C313.258 352.005 313.29 352.004 313.319 352.003 313.348 352.003 313.36 352.003 313.402 352.003 313.443 352.003 313.485 352.003 313.568 352.003 313.651 352.003 313.734 352.003 313.9 352.003 314.066 352.003 314.232 352.003 314.564 352.003 314.896 352.003 315.228 352.003 315.892 352.003 316.556 352.003 317.221 352.003 318.548 352.003 319.876 352.003 321.208 352.033 323.857 352.003 326.507 351.974 329.19 352.063 334.446 351.828 339.702 351.592 347.41 353.446 355.394 350.588 363.378 347.73 372.871 341.463 382.35 334.678 391.83 327.893 402.222 322.538 412.269 309.88 422.316 297.221 432.933 271.307 442.634 258.727 452.334 246.146 461.207 234.792 470.473 234.396 479.74 234 492.704 249.866 498.232 256.349 503.76 262.832 503.281 267.54 503.641 273.296 504 279.051 503.106 283.407 500.389 290.881 497.672 298.355 493.692 309.026 487.336 318.139 480.98 327.253 471.141 340.319 462.254 345.561 453.367 350.804 443.649 348.58 434.014 349.595 424.378 350.609 414.08 351.29 404.441 351.648 398.016 351.887 390.312 351.677 376.183 351.744 354.99 351.845 301.196 352.251 277.282 352.254 254.988 352.256 245.757 351.76 232.696 351.761 218.686 351.762 205.267 351.869 193.219 352.258 181.171 352.648 169.908 348.114 160.408 354.098 150.907 360.083 142.577 372.452 136.219 388.166 129.861 403.88 122.719 438.484 122.26 448.381 122 454 130.894 449.453 133.468 447.553 138.002 444.207 144.622 433.617 149.467 428.305 154.311 422.993 156.275 421.727 162.535 415.681 168.794 409.636 178.737 401.315 187.025 392.03 195.313 382.746 204.77 365.959 212.263 359.976 215.902 357.07 221.951 356.683 231.98 356.131 252.623 354.995 311.13 353.874 336.122 353.16 359.027 352.506 368.662 351.989 381.931 351.848 396.409 351.693 409.305 352.104 422.992 352.232" stroke="#4472C4" stroke-width="2" stroke-linecap="round" stroke-linejoin="round" stroke-miterlimit="10" fill="none"/></g><g><text fill="#595959" font-family="Calibri,Calibri_MSFontService,sans-serif" font-weight="400" font-size="12" transform="translate(271.266 476)">-0.004</text></g><g><text fill="#595959" font-family="Calibri,Calibri_MSFontService,sans-serif" font-weight="400" font-size="12" transform="translate(271.266 446)">-0.003</text></g><g><text fill="#595959" font-family="Calibri,Calibri_MSFontService,sans-serif" font-weight="400" font-size="12" transform="translate(271.266 415)">-0.002</text></g><g><text fill="#595959" font-family="Calibri,Calibri_MSFontService,sans-serif" font-weight="400" font-size="12" transform="translate(271.266 385)">-0.001</text></g><g><text fill="#595959" font-family="Calibri,Calibri_MSFontService,sans-serif" font-weight="400" font-size="12" transform="translate(296.206 355)">0</text></g><g><text fill="#595959" font-family="Calibri,Calibri_MSFontService,sans-serif" font-weight="400" font-size="12" transform="translate(274.939 325)">0.001</text></g><g><text fill="#595959" font-family="Calibri,Calibri_MSFontService,sans-serif" font-weight="400" font-size="12" transform="translate(274.939 294)">0.002</text></g><g><text fill="#595959" font-family="Calibri,Calibri_MSFontService,sans-serif" font-weight="400" font-size="12" transform="translate(274.939 264)">0.003</text></g><g><text fill="#595959" font-family="Calibri,Calibri_MSFontService,sans-serif" font-weight="400" font-size="12" transform="translate(274.939 234)">0.004</text></g><g><text fill="#595959" font-family="Calibri,Calibri_MSFontService,sans-serif" font-weight="400" font-size="12" transform="translate(274.939 204)">0.005</text></g><g><text fill="#595959" font-family="Calibri,Calibri_MSFontService,sans-serif" font-weight="400" font-size="12" transform="translate(69.6666 370)">-1</text></g><g><text fill="#595959" font-family="Calibri,Calibri_MSFontService,sans-serif" font-weight="400" font-size="12" transform="translate(112.888 370)">-0.8</text></g><g><text fill="#595959" font-family="Calibri,Calibri_MSFontService,sans-serif" font-weight="400" font-size="12" transform="translate(160.663 370)">-0.6</text></g><g><text fill="#595959" font-family="Calibri,Calibri_MSFontService,sans-serif" font-weight="400" font-size="12" transform="translate(208.438 370)">-0.4</text></g><g><text fill="#595959" font-family="Calibri,Calibri_MSFontService,sans-serif" font-weight="400" font-size="12" transform="translate(256.213 370)">-0.2</text></g><g><text fill="#595959" font-family="Calibri,Calibri_MSFontService,sans-serif" font-weight="400" font-size="12" transform="translate(310.378 370)">0</text></g><g><text fill="#595959" font-family="Calibri,Calibri_MSFontService,sans-serif" font-weight="400" font-size="12" transform="translate(353.6 370)">0.2</text></g><g><text fill="#595959" font-family="Calibri,Calibri_MSFontService,sans-serif" font-weight="400" font-size="12" transform="translate(401.375 370)">0.4</text></g><g><text fill="#595959" font-family="Calibri,Calibri_MSFontService,sans-serif" font-weight="400" font-size="12" transform="translate(449.15 370)">0.6</text></g><g><text fill="#595959" font-family="Calibri,Calibri_MSFontService,sans-serif" font-weight="400" font-size="12" transform="translate(496.925 370)">0.8</text></g><g><text fill="#595959" font-family="Calibri,Calibri_MSFontService,sans-serif" font-weight="400" font-size="12" transform="translate(549.253 370)">1</text></g></g></svg>