<svg width="553" height="362" xmlns="http://www.w3.org/2000/svg" xmlns:xlink="http://www.w3.org/1999/xlink" overflow="hidden"><defs><clipPath id="clip0"><rect x="639" y="179" width="553" height="362"/></clipPath></defs><g clip-path="url(#clip0)" transform="translate(-639 -179)"><g><path d="M0 0 0.000104987 333" stroke="#BFBFBF" stroke-linejoin="round" stroke-miterlimit="10" fill="none" fill-rule="evenodd" transform="matrix(1 0 0 -1 916.5 526.5)"/></g><g><path d="M659.5 359.5 1173.5 359.5" stroke="#BFBFBF" stroke-linejoin="round" stroke-miterlimit="10" fill="none" fill-rule="evenodd"/></g><g><path d="M916.794 360.105C916.827 360.104 916.861 360.103 916.892 360.102 916.923 360.102 916.937 360.102 916.981 360.102 917.026 360.102 917.07 360.102 917.16 360.102 917.249 360.102 917.339 360.102 917.517 360.102 917.696 360.102 917.874 360.102 918.232 360.102 918.589 360.102 918.946 360.123 919.66 360.102 920.374 360.082 921.09 360.065 922.518 359.979 923.718 359.906 925.473 360.355 928.229 359.582 931.507 358.662 936.535 357.266 942.189 354.46 947.843 351.653 953.993 348.897 962.153 342.745 970.314 336.593 980.955 327.784 991.152 317.547 1001.35 307.309 1012.53 293.214 1023.34 281.32 1034.14 269.426 1045.57 255.517 1056 246.185 1066.44 236.853 1075.98 226.656 1085.95 225.328 1095.92 224 1109.86 232.302 1115.81 238.217 1121.76 244.133 1121.24 254.098 1121.63 260.823 1122 267.292 1120.94 269.972 1118.13 278.569 1115.21 287.506 1110.93 302.888 1104.09 314.445 1097.25 326.003 1086.67 340.683 1077.11 347.914 1067.55 355.144 1057.09 355.881 1046.73 357.83 1036.36 359.778 1025.28 359.235 1014.92 359.602 1008 359.847 999.718 359.971 984.518 360.034 961.719 360.127 903.852 360.159 878.126 360.162 854.145 360.165 844.213 360.044 830.163 360.052 815.092 360.06 800.657 357.935 787.697 360.211 774.736 362.487 762.619 361.724 752.4 373.708 742.18 385.691 733.219 411.482 726.379 432.113 719.54 452.745 711 487.993 711.364 497.496 711.727 507 722.826 495.348 728.56 489.135 734.294 482.922 740.987 467.419 745.77 460.217 750.553 453.015 751.381 452.3 757.258 445.922 763.135 439.544 772.546 431.832 781.034 421.947 789.521 412.062 800.122 395.516 808.182 386.611 816.242 377.707 817.735 372.93 829.392 368.522 840.1 364.473 853.432 361.371 878.126 360.162 905.01 358.846 964.576 360.645 990.7 360.623 1012.79 360.605 1022.42 360.2 1034.87 360.034" stroke="#4472C4" stroke-width="2" stroke-linecap="round" stroke-linejoin="round" stroke-miterlimit="10" fill="none"/></g><g><text fill="#595959" font-family="Calibri,Calibri_MSFontService,sans-serif" font-weight="400" font-size="12" transform="translate(874.266 529)">-0.005</text></g><g><text fill="#595959" font-family="Calibri,Calibri_MSFontService,sans-serif" font-weight="400" font-size="12" transform="translate(874.266 496)">-0.004</text></g><g><text fill="#595959" font-family="Calibri,Calibri_MSFontService,sans-serif" font-weight="400" font-size="12" transform="translate(874.266 463)">-0.003</text></g><g><text fill="#595959" font-family="Calibri,Calibri_MSFontService,sans-serif" font-weight="400" font-size="12" transform="translate(874.266 429)">-0.002</text></g><g><text fill="#595959" font-family="Calibri,Calibri_MSFontService,sans-serif" font-weight="400" font-size="12" transform="translate(874.266 396)">-0.001</text></g><g><text fill="#595959" font-family="Calibri,Calibri_MSFontService,sans-serif" font-weight="400" font-size="12" transform="translate(899.206 363)">0</text></g><g><text fill="#595959" font-family="Calibri,Calibri_MSFontService,sans-serif" font-weight="400" font-size="12" transform="translate(877.94 330)">0.001</text></g><g><text fill="#595959" font-family="Calibri,Calibri_MSFontService,sans-serif" font-weight="400" font-size="12" transform="translate(877.94 297)">0.002</text></g><g><text fill="#595959" font-family="Calibri,Calibri_MSFontService,sans-serif" font-weight="400" font-size="12" transform="translate(877.94 263)">0.003</text></g><g><text fill="#595959" font-family="Calibri,Calibri_MSFontService,sans-serif" font-weight="400" font-size="12" transform="translate(877.94 230)">0.004</text></g><g><text fill="#595959" font-family="Calibri,Calibri_MSFontService,sans-serif" font-weight="400" font-size="12" transform="translate(877.94 197)">0.005</text></g><g><text fill="#595959" font-family="Calibri,Calibri_MSFontService,sans-serif" font-weight="400" font-size="12" transform="translate(654.667 379)">-1</text></g><g><text fill="#595959" font-family="Calibri,Calibri_MSFontService,sans-serif" font-weight="400" font-size="12" transform="translate(701.488 379)">-0.8</text></g><g><text fill="#595959" font-family="Calibri,Calibri_MSFontService,sans-serif" font-weight="400" font-size="12" transform="translate(752.863 379)">-0.6</text></g><g><text fill="#595959" font-family="Calibri,Calibri_MSFontService,sans-serif" font-weight="400" font-size="12" transform="translate(804.238 379)">-0.4</text></g><g><text fill="#595959" font-family="Calibri,Calibri_MSFontService,sans-serif" font-weight="400" font-size="12" transform="translate(855.613 379)">-0.2</text></g><g><text fill="#595959" font-family="Calibri,Calibri_MSFontService,sans-serif" font-weight="400" font-size="12" transform="translate(913.378 379)">0</text></g><g><text fill="#595959" font-family="Calibri,Calibri_MSFontService,sans-serif" font-weight="400" font-size="12" transform="translate(960.2 379)">0.2</text></g><g><text fill="#595959" font-family="Calibri,Calibri_MSFontService,sans-serif" font-weight="400" font-size="12" transform="translate(1011.58 379)">0.4</text></g><g><text fill="#595959" font-family="Calibri,Calibri_MSFontService,sans-serif" font-weight="400" font-size="12" transform="translate(1062.95 379)">0.6</text></g><g><text fill="#595959" font-family="Calibri,Calibri_MSFontService,sans-serif" font-weight="400" font-size="12" transform="translate(1114.33 379)">0.8</text></g><g><text fill="#595959" font-family="Calibri,Calibri_MSFontService,sans-serif" font-weight="400" font-size="12" transform="translate(1170.25 379)">1</text></g></g></svg>