<svg width="482" height="289" xmlns="http://www.w3.org/2000/svg" xmlns:xlink="http://www.w3.org/1999/xlink" overflow="hidden"><defs><clipPath id="clip0"><rect x="608" y="162" width="482" height="289"/></clipPath></defs><g clip-path="url(#clip0)" transform="translate(-608 -162)"><g><path d="M0 0 0.000104987 259" stroke="#BFBFBF" stroke-linejoin="round" stroke-miterlimit="10" fill="none" fill-rule="evenodd" transform="matrix(1 0 0 -1 849.5 436.5)"/></g><g><path d="M628.5 325.5 1071.5 325.5" stroke="#BFBFBF" stroke-linejoin="round" stroke-miterlimit="10" fill="none" fill-rule="evenodd"/></g><g><path d="M849.711 325.302C849.757 325.131 849.806 324.874 849.849 324.789 849.875 324.736 849.93 324.789 849.967 324.789 850.026 324.79 850.085 324.794 850.203 324.795 850.321 324.795 850.439 324.793 850.676 324.794 850.912 324.796 851.148 324.801 851.62 324.803 852.092 324.804 852.565 324.802 853.509 324.802 854.453 324.803 855.399 324.807 857.286 324.804 859.172 324.801 861.072 324.799 864.827 324.785 868.581 324.772 877.315 324.735 879.813 324.725M1027.22 257.284C1026.51 260.602 1027.8 268.945 1022.69 278.53 1017.24 288.761 1007.77 310.794 994.509 318.668 981.243 326.542 959.306 324.599 943.095 325.774 926.885 326.949 912.905 325.717 897.246 325.718 881.586 325.719 864.556 325.699 849.138 325.782 833.719 325.865 813.873 325.73 804.735 326.214 799.384 326.497 795.826 328.082 794.306 328.686 792.492 329.407 790.944 329.776 789.168 332.403 786.627 336.159 782.556 343.303 779.065 351.224 775.574 359.144 772.021 373.47 768.22 379.926 764.419 386.381 758.816 388.397 756.261 389.956 754.793 390.852 753.843 389.507 752.889 389.284 751.227 388.896 749.125 388.414 746.293 387.628 743.461 386.842 740.773 386.256 735.895 384.568 731.017 382.881 724.381 381.006 717.025 377.502 709.67 373.998 698.663 368.675 691.763 363.544 684.863 358.413 678.742 351.982 675.625 346.716 672.508 341.451 671.934 335.307 673.063 331.948 674.192 328.589 677.433 327.617 682.399 326.563 687.365 325.509 695.145 325.837 702.86 325.624 710.575 325.411 717.33 325.362 728.69 325.285 740.05 325.208 756.103 325.229 771.019 325.163 785.934 325.097 802.668 325.134 818.183 324.891 833.699 324.648 849.272 328.429 864.112 323.704 878.952 318.979 893.55 309.253 907.221 296.541 920.892 283.83 935.157 261.199 946.137 247.435 957.116 233.671 964.683 220.245 973.097 213.956 981.511 207.667 990.073 208.658 996.622 209.7 1003.17 210.742 1008.34 216.773 1012.39 220.209 1016.44 223.644 1018.54 225.989 1020.95 230.311 1023.23 234.419 1026.88 237.705 1026.8 246.144 1026.71 255.026 1026.66 271.098 1020.41 283.6 1014.17 296.101 1002.25 314.102 989.344 321.152 976.436 328.202 958.346 325.159 942.965 325.899 927.584 326.64 912.657 325.593 897.057 325.594 881.458 325.595 864.701 325.834 849.367 325.906 834.034 325.979 814.182 325.601 805.058 326.027 799.706 326.277 796.146 327.926 794.624 328.464 792.82 329.101 791.247 329.113 789.482 331.531 786.94 335.011 782.902 341.493 779.372 349.349 775.841 357.206 772.087 371.905 768.298 378.671 764.508 385.437 759.185 388.244 756.634 389.947 755.058 391 754.1 389.121 752.994 388.893 751.202 388.523 748.792 388.514 745.886 387.732 742.98 386.951 740.403 385.883 735.558 384.203 730.713 382.524 723.94 381.019 716.815 377.657 709.691 374.295 699.599 369.021 692.812 364.033 686.025 359.046 679.422 353.036 676.092 347.733 672.762 342.429 671.866 335.682 672.831 332.21 673.796 328.739 676.975 328.041 681.883 326.903 686.79 325.765 694.596 325.609 702.275 325.382 709.955 325.155 716.779 325.617 727.958 325.54 739.137 325.463 754.594 324.986 769.35 324.92 784.106 324.855 800.972 325.358 816.493 325.147 832.015 324.935 847.609 328.1 862.479 323.652 877.348 319.203 891.99 310.904 905.71 298.456 919.431 286.008 933.746 262.849 944.802 248.964 955.857 235.078 963.599 221.795 972.046 215.143 980.493 208.491 988.822 208.23 995.482 209.052 1002.14 209.874 1007.81 216.639 1012 220.076 1016.2 223.514 1018.23 225.461 1020.67 229.677 1023.03 233.748 1026.59 236.975 1026.65 245.374 1026.71 254.072 1027.01 269.328 1021.05 281.865 1015.08 294.402 1003.65 313.288 990.862 320.597 978.07 327.905 959.691 324.853 944.297 325.716 928.903 326.58 914.099 325.776 898.498 325.777 882.897 325.778 866.061 325.664 850.69 325.723 835.319 325.781 815.418 325.78 806.272 326.129 800.978 326.331 798.777 324.897 795.812 327.819 790.69 332.867 779.584 349.775 775.538 356.417 772.432 361.518 773.056 364.176 771.539 367.673 769.565 372.226 765.581 380.604 763.69 383.738 762.541 385.641 761.238 386.007 760.189 386.478 758.462 387.255 755.946 388.32 753.328 388.397 750.709 388.475 748.017 387.777 744.478 386.943 740.939 386.109 736.731 385.015 732.093 383.396 727.455 381.776 722.666 380.05 716.649 377.227 710.633 374.404 702.504 371.048 695.994 366.456 689.484 361.864 681.529 355.078 677.59 349.676 673.651 344.274 671 337.969 672.359 334.043 673.718 330.117 679.764 327.526 685.744 326.12 691.723 324.713 699.565 325.752 708.236 325.603 716.907 325.455 725.596 325.302 737.771 325.227 749.945 325.152 766.195 325.216 781.285 325.152 796.375 325.088 812.904 325.443 828.31 324.844 843.715 324.245 859.101 328.076 873.72 321.557 888.338 315.037 903.121 299.307 916.019 285.728 928.917 272.149 940.965 252.588 951.108 240.083 961.251 227.577 968.461 215.39 976.875 210.695 985.29 206 995.325 210.017 1001.6 211.912 1007.87 213.807 1011.01 218.543 1014.5 222.066 1017.99 225.589 1020.4 228.08 1022.53 233.051 1024.65 238.022 1027.91 242.81 1027.26 251.893 1026.62 260.975 1025.77 275.697 1018.65 287.547 1011.54 299.398 997.766 316.609 984.574 322.997 971.382 329.384 954.726 325.433 939.499 325.871 924.271 326.308 908.819 325.62 893.209 325.622 877.598 325.623 861.065 325.753 845.834 325.88 830.603 326.006 810.885 325.663 801.822 326.38 796.318 326.816 793.022 329.293 791.457 330.185 789.699 331.186 788.072 332.056 786.353 335.189 783.832 339.785 779.712 349.822 776.329 357.76 772.945 365.698 770.043 377.443 766.052 382.817 762.062 388.19 755.137 389.016 752.386 390.001 750.921 390.526 750.292 388.965 749.546 388.728 748.144 388.283 746.682 388.193 743.977 387.33 741.273 386.467 738.293 385.375 733.318 383.552 728.343 381.728 721.564 380.147 714.128 376.391 706.693 372.635 695.342 366.332 688.707 361.016 682.072 355.7 676.752 349.634 674.318 344.495 671.884 339.356 672.406 333.185 674.101 330.18 675.796 327.175 679.252 327.261 684.487 326.464 689.721 325.667 697.557 325.566 705.508 325.398 713.459 325.23 719.99 325.531 732.194 325.455 744.397 325.378 763.097 325.005 778.729 324.939 794.361 324.873 810.503 325.537 825.986 325.059 841.469 324.581 856.932 328.134 871.626 322.069 886.319 316.004 901.049 302.073 914.147 288.671 927.244 275.269 939.862 254.488 950.21 241.657 960.558 228.826 967.85 216.763 976.235 211.687 984.619 206.61 994.221 209.508 1000.52 211.197 1006.81 212.886 1010.41 218.325 1014.02 221.822 1017.62 225.319 1019.96 227.395 1022.16 232.178 1024.36 236.96 1027.68 241.545 1027.2 250.517 1026.72 259.489 1026.1 273.99 1019.27 286.011 1012.44 298.031 999.292 316.031 986.21 322.643 973.129 329.255 956.038 325.156 940.78 325.683 925.522 326.211 910.262 325.808 894.662 325.81 879.063 325.811 862.448 325.589 847.181 325.692 831.913 325.794 812.144 325.832 803.058 326.422 797.687 326.771 794.194 328.502 792.666 329.23 790.844 330.099 789.329 330.879 787.547 333.818 785.018 337.99 780.921 346.319 777.49 354.261 774.059 362.203 770.819 375.54 766.962 381.473 763.105 387.405 756.962 388.576 754.349 389.856 752.937 390.547 752.1 389.375 751.284 389.152 749.772 388.74 748.064 388.204 745.281 387.383 742.498 386.562 739.585 386.013 734.586 384.226 729.586 382.438 722.795 380.372 715.285 376.657 707.774 372.943 696.295 367.23 689.524 361.937 682.752 356.643 677.284 350.071 674.657 344.895 672.029 339.72 673.421 333.66 673.761 330.884 674 328.923 675.147 328.784 676.694 328.237 678.884 327.463 682.324 326.711 686.901 326.238 691.479 325.764 696.128 325.529 704.159 325.395 712.191 325.261 722.23 325.514 735.09 325.435 747.949 325.355 765.746 324.981 781.318 324.918 796.89 324.854 813.061 325.64 828.521 325.054 843.981 324.467 859.434 327.88 874.077 321.398 888.72 314.916 903.467 299.723 916.378 286.162 929.29 272.601 941.393 252.535 951.545 240.033 961.697 227.53 968.885 215.831 977.291 211.149 985.698 206.466 995.73 210.03 1001.98 211.938 1008.24 213.845 1011.35 219.045 1014.81 222.595 1018.27 226.145 1020.66 228.23 1022.74 233.235 1024.81 238.241 1028 243.511 1027.27 252.629 1026.54 261.746 1025.61 276.136 1018.36 287.941 1011.11 299.745 997.019 317.174 983.757 323.459 970.495 329.744 954.019 325.253 938.789 325.65 923.559 326.047 908 325.841 892.378 325.842 876.755 325.844 860.266 325.517 845.054 325.66 829.841 325.802 810.153 325.897 801.103 326.7 795.615 327.186 792.313 329.494 790.752 330.477 788.904 331.64 787.465 332.95 785.658 336.423 783.141 341.259 779.014 351.583 775.653 359.492 772.292 367.401 769.62 378.849 765.491 383.875 761.362 388.902 753.769 388.833 750.877 389.651 749.496 390.041 748.786 389.009 748.14 388.782 746.789 388.307 745.381 387.677 742.773 386.799 740.165 385.921 737.297 385.305 732.493 383.515 727.689 381.725 721.271 379.792 713.948 376.061 706.624 372.33 695.169 366.451 688.552 361.128 681.936 355.805 676.643 349.256 674.248 344.12 671.853 338.985 672.45 333.298 674.182 330.314 675.914 327.33 679.387 326.999 684.641 326.218 689.896 325.436 697.736 325.79 705.707 325.624 713.678 325.458 720.253 325.301 732.467 325.225 744.681 325.148 763.362 325.232 778.99 325.166 794.619 325.1 810.757 325.318 826.235 324.83 841.713 324.341 857.171 328.342 871.859 322.235 886.546 316.127 901.281 301.603 914.359 288.184 927.437 274.765 939.999 254.519 950.327 241.721 960.655 228.923 967.939 216.434 976.325 211.395 984.711 206.356 994.353 209.776 1000.65 211.486 1006.94 213.196 1010.48 218.153 1014.08 221.653 1017.67 225.154 1020.02 227.688 1022.21 232.49 1024.4 237.291 1027.71 241.48 1027.21 250.463 1026.71 259.445 1026.07 274.382 1019.2 286.385 1012.34 298.388 999.122 315.894 986.027 322.482 972.933 329.069 955.891 325.392 940.636 325.909 925.381 326.426 910.099 325.582 894.498 325.584 878.896 325.585 862.291 325.813 847.027 325.918 831.764 326.022 811.999 325.608 802.916 326.212 797.474 326.573 794.075 328.784 792.527 329.538 790.784 330.386 789.114 330.914 787.41 333.76 784.881 337.981 780.781 346.919 777.356 354.864 773.931 362.809 770.728 375.561 766.861 381.429 762.993 387.296 756.775 388.816 754.151 390.069 752.691 390.766 751.949 389.179 751.116 388.947 749.62 388.529 747.949 388.392 745.172 387.564 742.394 386.736 739.46 385.776 734.45 383.979 729.44 382.182 722.619 380.507 715.111 376.783 707.603 373.059 696.153 366.932 689.402 361.636 682.651 356.339 677.205 350.172 674.606 345.002 672.007 339.832 672.254 333.705 673.808 330.615 675.362 327.525 678.766 327.319 683.928 326.462 689.09 325.606 696.899 325.654 704.78 325.476 712.66 325.297 719.245 325.468 731.211 325.391 743.177 325.315 761.142 325.082 776.576 325.017 792.01 324.951 808.319 325.392 823.813 324.996 839.307 324.601 854.803 328.327 869.54 322.643 884.276 316.959 898.958 304.139 912.23 290.893 925.503 277.646 938.639 256.282 949.174 243.164 959.709 230.047 967.061 217.587 975.439 212.187 983.817 206.787 993.097 209.248 999.442 210.764 1005.79 212.28 1009.78 217.813 1013.5 221.283 1017.23 224.753 1019.51 226.953 1021.78 231.587 1024.05 236.221 1027.45 240.176 1027.11 249.086 1026.77 257.995 1026.34 272.88 1019.74 285.045 1013.13 297.209 1000.49 315.285 987.496 322.073 974.498 328.86 957.04 325.162 941.75 325.77 926.46 326.378 911.347 325.722 895.753 325.723 880.159 325.725 863.482 325.69 848.186 325.778 832.89 325.865 813.082 325.737 803.978 326.246 798.623 326.545 795.09 328.194 793.566 328.828 791.759 329.58 790.205 330.025 788.437 332.712 785.901 336.565 781.828 344.031 778.354 351.943 774.881 359.854 771.406 373.844 767.597 380.182 763.786 386.52 758.06 388.486 755.494 389.972 754.02 390.826 753.134 389.328 752.202 389.099 750.579 388.698 748.575 388.37 745.76 387.571 742.945 386.772 740.208 386.016 735.312 384.304 730.416 382.591 723.816 380.899 716.384 377.299 708.952 373.698 697.592 367.92 690.722 362.701 683.852 357.483 678.057 351.216 675.163 345.989 672.268 340.762 672.046 334.58 673.356 331.338 674.667 328.095 677.98 327.502 683.026 326.536 688.073 325.57 695.857 325.739 703.636 325.541 711.414 325.343 718.095 325.427 729.695 325.35 741.294 325.274 758.111 325.147 773.233 325.081 788.356 325.016 804.923 325.251 820.431 324.956 835.94 324.662 851.485 328.417 866.285 323.314 881.085 318.211 895.665 307.345 909.232 294.339 922.799 281.332 936.841 258.83 947.688 245.275 958.535 231.719 965.927 218.852 974.314 213.006 982.701 207.16 991.574 208.913 998.009 210.199 1004.44 211.484 1009.03 217.268 1012.92 220.719 1016.81 224.17 1019 226.436 1021.34 230.903 1023.65 235.302 1027.17 238.751 1026.97 247.52 1026.75 256.426 1026.49 271.986 1020.07 284.335 1013.65 296.684 1001.4 314.697 988.45 321.613 975.497 328.53 957.696 325.161 942.356 325.835 927.015 326.509 912.005 325.657 896.409 325.658 880.812 325.659 864.093 325.763 848.778 325.843 833.462 325.922 813.631 325.668 804.516 326.134 799.163 326.407 795.616 328.052 794.093 328.636 792.291 329.327 790.721 329.555 788.957 332.102 786.418 335.768 782.361 342.74 778.86 350.633 775.359 358.526 771.745 372.916 767.95 379.46 764.156 386.003 758.644 388.286 756.094 389.893 754.6 390.835 753.644 389.331 752.65 389.105 750.955 388.721 748.766 388.371 745.919 387.585 743.073 386.799 740.425 386.076 735.572 384.39 730.718 382.705 724.064 380.935 716.797 377.472 709.529 374.009 698.812 368.703 691.964 363.613 685.116 358.522 678.865 352.203 675.707 346.928 672.55 341.653 671.92 335.341 673.021 331.961 674.122 328.582 677.354 327.718 682.312 326.65 687.271 325.581 695.061 325.768 702.772 325.553 710.484 325.337 717.251 325.435 728.583 325.358 739.914 325.281 755.871 325.158 770.762 325.092 785.653 325.026 802.411 325.202 817.929 324.964 833.447 324.726 849.025 328.348 863.871 323.664 878.716 318.979 893.323 309.531 907.002 296.857 920.681 284.182 934.955 261.4 945.947 247.616 956.938 233.832 964.531 220.497 972.951 214.155 981.37 207.813 989.898 208.552 996.462 209.565 1003.03 210.579 1008.26 216.803 1012.34 220.237 1016.41 223.672 1018.5 225.864 1020.91 230.173 1023.21 234.299 1026.84 237.606 1026.78 246.088 1026.71 254.946 1026.71 270.811 1020.5 283.318 1014.3 295.825 1002.44 314.048 989.546 321.132 976.652 328.217 958.521 325.07 943.136 325.826 927.752 326.582 912.839 325.666 897.237 325.668 881.636 325.669 864.867 325.762 849.527 325.833 834.188 325.903 814.327 325.674 805.2 326.09 799.867 326.334 796.279 327.807 794.762 328.332 792.929 328.966 791.412 329.056 789.617 331.479 787.074 334.913 783.042 341.09 779.503 348.938 775.964 356.785 772.174 371.744 768.383 378.562 764.593 385.381 759.314 388.115 756.761 389.851 755.191 390.919 754.184 389.202 753.066 388.975 751.248 388.607 748.774 388.422 745.853 387.639 742.933 386.857 740.38 385.956 735.543 384.28 730.706 382.604 723.933 380.928 716.831 377.581 709.729 374.234 699.712 369.173 692.931 364.199 686.15 359.225 679.499 353.044 676.146 347.736 672.791 342.428 671.86 335.835 672.807 332.35 673.755 328.866 676.928 327.978 681.83 326.83 686.732 325.683 694.542 325.694 702.22 325.465 709.897 325.236 716.731 325.536 727.894 325.459 739.056 325.382 754.456 325.069 769.197 325.003 783.939 324.938 802.925 325.148 816.344 325.065 829.763 324.982 838.589 324.692 849.711 324.506" stroke="#4472C4" stroke-width="2" stroke-linecap="round" stroke-linejoin="round" stroke-miterlimit="10" fill="none"/></g><g><text fill="#595959" font-family="Calibri,Calibri_MSFontService,sans-serif" font-weight="400" font-size="12" transform="translate(795.368 439)">-0.00015</text></g><g><text fill="#595959" font-family="Calibri,Calibri_MSFontService,sans-serif" font-weight="400" font-size="12" transform="translate(801.448 402)">-0.0001</text></g><g><text fill="#595959" font-family="Calibri,Calibri_MSFontService,sans-serif" font-weight="400" font-size="12" transform="translate(795.368 365)">-0.00005</text></g><g><text fill="#595959" font-family="Calibri,Calibri_MSFontService,sans-serif" font-weight="400" font-size="12" transform="translate(832.468 328)">0</text></g><g><text fill="#595959" font-family="Calibri,Calibri_MSFontService,sans-serif" font-weight="400" font-size="12" transform="translate(799.041 291)">0.00005</text></g><g><text fill="#595959" font-family="Calibri,Calibri_MSFontService,sans-serif" font-weight="400" font-size="12" transform="translate(805.121 254)">0.0001</text></g><g><text fill="#595959" font-family="Calibri,Calibri_MSFontService,sans-serif" font-weight="400" font-size="12" transform="translate(799.041 217)">0.00015</text></g><g><text fill="#595959" font-family="Calibri,Calibri_MSFontService,sans-serif" font-weight="400" font-size="12" transform="translate(805.121 180)">0.0002</text></g><g><text fill="#595959" font-family="Calibri,Calibri_MSFontService,sans-serif" font-weight="400" font-size="12" transform="translate(623.429 344)">-1</text></g><g><text fill="#595959" font-family="Calibri,Calibri_MSFontService,sans-serif" font-weight="400" font-size="12" transform="translate(663.15 344)">-0.8</text></g><g><text fill="#595959" font-family="Calibri,Calibri_MSFontService,sans-serif" font-weight="400" font-size="12" transform="translate(707.425 344)">-0.6</text></g><g><text fill="#595959" font-family="Calibri,Calibri_MSFontService,sans-serif" font-weight="400" font-size="12" transform="translate(751.7 344)">-0.4</text></g><g><text fill="#595959" font-family="Calibri,Calibri_MSFontService,sans-serif" font-weight="400" font-size="12" transform="translate(795.975 344)">-0.2</text></g><g><text fill="#595959" font-family="Calibri,Calibri_MSFontService,sans-serif" font-weight="400" font-size="12" transform="translate(846.64 344)">0</text></g><g><text fill="#595959" font-family="Calibri,Calibri_MSFontService,sans-serif" font-weight="400" font-size="12" transform="translate(886.362 344)">0.2</text></g><g><text fill="#595959" font-family="Calibri,Calibri_MSFontService,sans-serif" font-weight="400" font-size="12" transform="translate(930.637 344)">0.4</text></g><g><text fill="#595959" font-family="Calibri,Calibri_MSFontService,sans-serif" font-weight="400" font-size="12" transform="translate(974.912 344)">0.6</text></g><g><text fill="#595959" font-family="Calibri,Calibri_MSFontService,sans-serif" font-weight="400" font-size="12" transform="translate(1019.19 344)">0.8</text></g><g><text fill="#595959" font-family="Calibri,Calibri_MSFontService,sans-serif" font-weight="400" font-size="12" transform="translate(1068.02 344)">1</text></g></g></svg>