<svg width="483" height="283" xmlns="http://www.w3.org/2000/svg" xmlns:xlink="http://www.w3.org/1999/xlink" overflow="hidden"><defs><clipPath id="clip0"><rect x="639" y="231" width="483" height="283"/></clipPath></defs><g clip-path="url(#clip0)" transform="translate(-639 -231)"><g><path d="M0 0 0.000104987 252" stroke="#BFBFBF" stroke-linejoin="round" stroke-miterlimit="10" fill="none" fill-rule="evenodd" transform="matrix(1 0 0 -1 881.5 498.5)"/></g><g><path d="M659.5 390.5 1103.5 390.5" stroke="#BFBFBF" stroke-linejoin="round" stroke-miterlimit="10" fill="none" fill-rule="evenodd"/></g><g><path d="M881.029 390.665C881.057 390.648 881.086 390.623 881.113 390.615 881.14 390.607 881.152 390.615 881.19 390.615 881.229 390.615 881.267 390.615 881.345 390.615 881.422 390.615 881.499 390.615 881.653 390.615 881.807 390.615 881.962 390.616 882.27 390.616 882.579 390.616 882.888 390.616 883.505 390.616 884.122 390.616 884.74 390.617 885.973 390.617 887.207 390.617 888.445 390.617 890.907 390.616 893.369 390.615 895.863 390.625 900.748 390.612 905.633 390.599 916.971 390.55 920.216 390.538M1057.96 314.832C1057.93 317.631 1059.33 324.532 1057.79 331.628 1056.24 338.724 1050.2 353.112 1048.69 357.409M981.102 390.777C974.189 390.753 954.449 390.627 939.624 390.629 924.799 390.631 907.555 390.773 892.151 390.789 876.746 390.804 856.462 390.625 847.198 390.719 841.873 390.774 839.57 390.009 836.567 391.354 831.341 393.693 820.167 400.438 815.846 404.755 811.525 409.072 811.938 413.997 810.641 417.256 809.344 420.515 809.344 420.86 808.065 424.308 806.786 427.756 805.476 433.368 802.968 437.943 800.459 442.519 795.083 449.372 793.014 451.761 792.193 452.709 791.038 452.248 790.555 452.278 789.338 452.355 788.007 452.47 785.708 452.22 783.41 451.97 780.86 451.819 776.764 450.778 772.667 449.737 766.847 448 761.13 445.975 755.412 443.95 749.157 441.964 742.461 438.629 735.764 435.293 727.039 430.757 720.951 425.96 714.863 421.163 708.584 414.861 705.935 409.846 703.286 404.831 704.703 398.553 705.055 395.868 705.292 394.052 706.537 394.228 708.045 393.737 710.275 393.012 713.818 391.938 718.436 391.514 723.054 391.09 727.677 391.294 735.753 391.194 743.83 391.093 754.003 390.963 766.892 390.911 779.781 390.858 797.532 390.922 813.087 390.881 828.642 390.839 844.786 391.25 860.222 390.663 875.659 390.076 891.088 393.98 905.708 387.359 920.328 380.738 935.174 364.359 947.942 350.936 960.71 337.513 972.373 318.858 982.315 306.823 992.258 294.788 1000.38 283.448 1007.6 278.724 1014.81 274 1020.11 277.215 1025.62 278.48 1031.14 279.746 1036.65 283.521 1040.67 286.315 1044.69 289.11 1046.93 291.139 1049.76 295.248 1052.58 299.356 1056.93 302.643 1057.62 310.964 1058.31 319.286 1054.51 339.475 1053.89 345.177M980.097 390.896C972.549 390.832 950.371 390.511 934.808 390.512 919.245 390.514 902.191 390.869 886.719 390.905 871.247 390.942 851.19 390.508 841.976 390.732 836.653 390.861 834.423 389.942 831.436 392.246 826.266 396.234 815.087 408.852 810.955 414.657 807.138 420.018 808.607 422.268 806.639 427.078 804.508 432.286 801.534 441.538 798.168 445.908 794.802 450.278 790.012 452.528 786.443 453.296 782.873 454.063 780.08 451.383 776.752 450.512 773.423 449.641 770.393 449.362 766.47 448.071 762.547 446.779 759.154 445.29 753.214 442.765 747.274 440.239 737.895 437.311 730.83 432.917 723.766 428.522 715.397 421.644 710.825 416.396 706.254 411.148 703 405.529 703.401 401.43 703.803 397.33 708.022 393.457 713.234 391.8 718.446 390.143 726.497 391.67 734.672 391.487 742.848 391.304 751.135 390.751 762.288 390.7 773.441 390.649 787.195 391.224 801.589 391.181 815.984 391.138 833.16 390.642 848.653 390.441 864.147 390.241 879.707 394.691 894.55 389.98 909.394 385.269 924.014 374.84 937.713 362.175 951.412 349.509 965.817 327.491 976.744 313.986 987.672 300.481 994.949 287.108 1003.28 281.144 1011.61 275.179 1020.19 277.149 1026.71 278.198 1033.24 279.246 1038.33 284.235 1042.43 287.432 1046.53 290.629 1048.73 293.288 1051.31 297.38 1053.76 301.283 1057.61 303.983 1057.88 311.98 1058.16 320.361 1053.81 341.718 1053 347.665M977.865 391.076C970.279 390.952 947.929 390.335 932.349 390.336 916.769 390.337 899.814 391.029 884.384 391.082 868.953 391.135 848.954 390.334 839.766 390.655 834.383 390.844 830.789 392.598 829.257 393.012 827.408 393.511 825.884 392.822 824.072 394.895 821.508 397.828 817.502 403.023 813.87 410.612 810.237 418.201 806.091 433.263 802.279 440.428 798.468 447.592 793.627 451.609 791.002 453.601 789.158 455 788.073 452.629 786.531 452.376 784.337 452.016 781.005 452.232 777.839 451.442 774.673 450.651 772.373 449.238 767.533 447.633 762.694 446.028 755.854 444.973 748.801 441.812 741.748 438.65 732.035 433.403 725.217 428.663 718.4 423.922 711.455 418.522 707.896 413.369 704.337 408.216 704.235 400.673 703.862 397.744 703.695 396.431 704.956 396.242 705.657 395.794 707.221 394.793 709.461 392.433 713.248 391.739 717.035 391.046 721.617 391.82 728.38 391.632 735.142 391.443 742.802 390.666 753.821 390.609 764.84 390.551 779.857 391.329 794.495 391.284 809.132 391.24 826.059 390.44 841.644 390.343 857.23 390.245 872.995 394.254 888.007 390.701 903.019 387.148 917.813 380.516 931.716 369.025 945.62 357.533 960.186 335.671 971.428 321.75 982.67 307.829 990.688 292.934 999.17 285.498 1007.65 278.062 1016.2 277.603 1022.32 277.133 1028.44 276.663 1031.84 280.216 1035.88 282.678 1039.91 285.14 1043.39 288.616 1046.53 291.906 1049.52 295.045 1052.96 295.999 1054.72 302.418 1056.56 309.146 1060 321.035 1057.57 332.27 1055.15 343.506 1050.6 360.043 1040.16 369.83 1029.72 379.616 1009.87 387.578 994.912 390.989 979.958 394.4 966.093 390.274 950.438 390.296 934.784 390.318 916.889 391.116 900.987 391.121 885.084 391.125 864.484 390.296 855.023 390.322 849.602 390.336 847.273 390.767 844.222 391.276 838.899 392.164 827.83 393.059 823.083 395.65 818.337 398.24 817.571 403.658 815.744 406.818 814.193 409.501 813.644 410.595 812.121 414.613 810.326 419.347 807.865 429.149 804.977 435.223 802.088 441.297 796.994 448.147 794.791 451.056 793.756 452.423 792.466 452.597 791.763 452.676 790.266 452.843 788.291 452.327 785.809 452.057 783.327 451.788 780.84 452.065 776.87 451.059 772.9 450.053 767.614 448.004 761.99 446.024 756.365 444.043 749.886 442.501 743.124 439.176 736.362 435.851 727.586 430.867 721.42 426.075 715.253 421.284 708.878 415.466 706.124 410.428 703.369 405.389 704.621 398.561 704.893 395.845 705.058 394.19 706.438 394.587 707.752 394.128 709.91 393.373 713.309 391.768 717.839 391.32 722.369 390.871 727.001 391.545 734.93 391.438 742.859 391.331 752.631 390.731 765.411 390.679 778.191 390.626 796.037 391.163 811.61 391.121 827.183 391.08 843.371 390.95 858.849 390.429 874.328 389.908 889.807 394.399 904.479 387.996 919.15 381.592 933.997 365.369 946.878 352.007 959.76 338.644 971.714 320.033 981.769 307.82 991.824 295.607 998.873 283.29 1007.21 278.728 1015.54 274.166 1025.51 278.673 1031.78 280.445 1038.05 282.217 1041.27 286.053 1044.84 289.358 1048.4 292.663 1050.87 295.584 1053.16 300.273 1055.45 304.963 1058.93 308.821 1058.57 317.497 1058.21 326.173 1052.28 346.524 1051.02 352.329M973.577 391.118C965.908 390.981 943.16 390.296 927.562 390.297 911.963 390.297 895.291 391.015 879.986 391.121 864.682 391.228 844.848 390.319 835.736 390.938 830.181 391.314 826.891 394.046 825.31 394.832 823.641 395.662 821.807 395.919 820.173 398.673 817.634 402.952 813.492 412.701 810.075 420.51 806.659 428.318 803.567 439.936 799.675 445.525 795.783 451.114 789.375 452.901 786.722 454.043 785.158 454.716 784.618 452.625 783.755 452.375 782.291 451.952 780.714 452.292 777.938 451.503 775.162 450.713 772.17 449.361 767.099 447.637 762.029 445.912 755.119 444.732 747.514 441.156 739.909 437.58 728.353 431.28 721.469 426.18 714.585 421.079 708.995 415.574 706.21 410.553 703.425 405.532 704.547 398.766 704.758 396.053 704.884 394.437 706.244 394.736 707.477 394.272 709.548 393.494 712.764 391.856 717.184 391.383 721.604 390.91 726.241 391.549 733.996 391.435 741.751 391.32 751.074 390.749 763.712 390.696 776.351 390.643 796.335 391.153 809.826 391.115 823.316 391.076 832.789 390.512 844.657 390.466 856.524 390.421 868.905 390.715 881.029 390.84" stroke="#4472C4" stroke-width="2" stroke-linecap="round" stroke-linejoin="round" stroke-miterlimit="10" fill="none"/></g><g><text fill="#595959" font-family="Calibri,Calibri_MSFontService,sans-serif" font-weight="400" font-size="12" transform="translate(827.001 502)">-0.00015</text></g><g><text fill="#595959" font-family="Calibri,Calibri_MSFontService,sans-serif" font-weight="400" font-size="12" transform="translate(833.081 466)">-0.0001</text></g><g><text fill="#595959" font-family="Calibri,Calibri_MSFontService,sans-serif" font-weight="400" font-size="12" transform="translate(827.001 430)">-0.00005</text></g><g><text fill="#595959" font-family="Calibri,Calibri_MSFontService,sans-serif" font-weight="400" font-size="12" transform="translate(864.101 394)">0</text></g><g><text fill="#595959" font-family="Calibri,Calibri_MSFontService,sans-serif" font-weight="400" font-size="12" transform="translate(830.674 358)">0.00005</text></g><g><text fill="#595959" font-family="Calibri,Calibri_MSFontService,sans-serif" font-weight="400" font-size="12" transform="translate(836.754 322)">0.0001</text></g><g><text fill="#595959" font-family="Calibri,Calibri_MSFontService,sans-serif" font-weight="400" font-size="12" transform="translate(830.674 286)">0.00015</text></g><g><text fill="#595959" font-family="Calibri,Calibri_MSFontService,sans-serif" font-weight="400" font-size="12" transform="translate(836.754 250)">0.0002</text></g><g><text fill="#595959" font-family="Calibri,Calibri_MSFontService,sans-serif" font-weight="400" font-size="12" transform="translate(654.667 409)">-1</text></g><g><text fill="#595959" font-family="Calibri,Calibri_MSFontService,sans-serif" font-weight="400" font-size="12" transform="translate(694.467 409)">-0.8</text></g><g><text fill="#595959" font-family="Calibri,Calibri_MSFontService,sans-serif" font-weight="400" font-size="12" transform="translate(738.821 409)">-0.6</text></g><g><text fill="#595959" font-family="Calibri,Calibri_MSFontService,sans-serif" font-weight="400" font-size="12" transform="translate(783.175 409)">-0.4</text></g><g><text fill="#595959" font-family="Calibri,Calibri_MSFontService,sans-serif" font-weight="400" font-size="12" transform="translate(827.529 409)">-0.2</text></g><g><text fill="#595959" font-family="Calibri,Calibri_MSFontService,sans-serif" font-weight="400" font-size="12" transform="translate(878.273 409)">0</text></g><g><text fill="#595959" font-family="Calibri,Calibri_MSFontService,sans-serif" font-weight="400" font-size="12" transform="translate(918.074 409)">0.2</text></g><g><text fill="#595959" font-family="Calibri,Calibri_MSFontService,sans-serif" font-weight="400" font-size="12" transform="translate(962.427 409)">0.4</text></g><g><text fill="#595959" font-family="Calibri,Calibri_MSFontService,sans-serif" font-weight="400" font-size="12" transform="translate(1006.78 409)">0.6</text></g><g><text fill="#595959" font-family="Calibri,Calibri_MSFontService,sans-serif" font-weight="400" font-size="12" transform="translate(1051.14 409)">0.8</text></g><g><text fill="#595959" font-family="Calibri,Calibri_MSFontService,sans-serif" font-weight="400" font-size="12" transform="translate(1100.04 409)">1</text></g></g></svg>