<svg width="532" height="334" xmlns="http://www.w3.org/2000/svg" xmlns:xlink="http://www.w3.org/1999/xlink" overflow="hidden"><defs><clipPath id="clip0"><rect x="40" y="180" width="532" height="334"/></clipPath></defs><g clip-path="url(#clip0)" transform="translate(-40 -180)"><g><path d="M0 0 0.000104987 303" stroke="#BFBFBF" stroke-linejoin="round" stroke-miterlimit="10" fill="none" fill-rule="evenodd" transform="matrix(1 0 0 -1 306.5 498.5)"/></g><g><path d="M59.5001 397.5 553.5 397.5" stroke="#BFBFBF" stroke-linejoin="round" stroke-miterlimit="10" fill="none" fill-rule="evenodd"/></g><g><path d="M307.005 397.577C307.029 397.575 307.057 397.571 307.078 397.57 307.099 397.569 307.105 397.57 307.131 397.57 307.157 397.57 307.184 397.57 307.237 397.57 307.29 397.57 307.343 397.57 307.449 397.57 307.554 397.57 307.66 397.57 307.872 397.57 308.083 397.57 308.295 397.57 308.719 397.571 309.142 397.571 309.565 397.57 310.412 397.57 311.258 397.57 312.105 397.57 313.797 397.57 315.489 397.57 317.188 397.571 320.561 397.57 323.934 397.569 328.406 397.592 334.033 397.564 339.66 397.536 350.941 397.428 354.323 397.401M500.93 280.999C501.505 284.325 504.39 293.133 504.38 300.958 504.369 308.783 504.003 317.005 500.865 327.947 497.726 338.889 492.523 355.743 485.548 366.61 478.573 377.477 469.45 387.978 459.013 393.148 448.576 398.317 436.169 396.902 422.927 397.627 409.684 398.353 394.773 397.496 379.556 397.502 364.34 397.508 347.862 397.662 331.628 397.665 315.393 397.668 298.24 394.968 282.151 397.52 266.063 400.072 244.665 405.399 235.094 412.977 225.523 420.554 227.301 435.073 224.726 442.987 222.15 450.901 222.146 454.143 219.64 460.46 217.133 466.777 211.952 477.161 209.686 480.887 208.616 482.646 206.893 482.618 206.044 482.814 204.247 483.229 201.766 483.696 198.901 483.379 196.036 483.063 193.123 482.286 188.854 480.914 184.586 479.541 179.188 477.817 173.291 475.146 167.395 472.474 160.675 469.376 153.475 464.886 146.275 460.395 136.691 454.459 130.093 448.201 123.495 441.943 117.265 433.714 113.885 427.336 110.505 420.957 109.105 414.457 109.812 409.929 110.519 405.402 113.379 402.075 118.129 400.172 122.879 398.268 130.438 398.867 138.314 398.506 146.189 398.146 154.429 398.081 165.38 398.01 176.33 397.939 190.06 398.134 204.018 398.079 217.976 398.024 233.485 397.728 249.128 397.68 264.771 397.631 281.53 399.96 297.875 397.786 314.219 395.612 331.355 397.037 347.195 384.638 363.035 372.24 379.629 343.026 392.916 323.394 406.203 303.762 416.792 281.201 426.916 266.849 437.04 252.496 446.498 241.573 453.657 237.281 460.798 233 464.701 238.713 469.87 241.096 475.052 243.484 480.598 247.754 484.751 251.614 488.903 255.474 491.58 257.67 494.784 264.255 497.987 270.84 502.945 280.713 503.973 291.122 505 301.532 503.987 314.35 500.947 326.712 497.908 339.074 492.678 354.215 485.735 365.295 478.793 376.375 469.702 387.86 459.293 393.193 448.884 398.525 436.504 396.517 423.282 397.291 410.061 398.064 395.168 397.827 379.965 397.834 364.762 397.841 348.294 397.33 332.064 397.333 315.834 397.335 298.683 395.497 282.588 397.85 266.493 400.202 245.121 404.081 235.495 411.448 225.87 418.816 227.483 434.052 224.835 442.054 222.188 450.056 222.184 452.915 219.609 459.461 217.034 466.007 211.726 477.479 209.386 481.328 208.345 483.04 206.405 482.381 205.567 482.551 203.684 482.933 201.011 484 198.085 483.62 195.158 483.241 192.319 481.706 188.007 480.273 183.696 478.841 178.203 477.786 172.218 475.027 166.233 472.269 159.363 468.365 152.097 463.722 144.832 459.079 135.104 453.52 128.624 447.17 122.143 440.821 116.323 431.93 113.217 425.625 110.11 419.319 109 413.694 109.986 409.34 110.973 404.986 114.126 401.249 119.136 399.501 124.145 397.753 131.943 399.165 140.046 398.852 148.148 398.539 156.606 397.69 167.75 397.622 178.894 397.554 192.809 398.497 206.911 398.443 221.013 398.389 240.278 397.331 252.362 397.296 264.445 397.262 270.305 398.286 279.413 398.236 288.52 398.185 297.808 397.408 307.005 396.994" stroke="#4472C4" stroke-width="2" stroke-linecap="round" stroke-linejoin="round" stroke-miterlimit="10" fill="none"/></g><g><text fill="#595959" font-family="Calibri,Calibri_MSFontService,sans-serif" font-weight="400" font-size="12" transform="translate(258.591 502)">-0.0001</text></g><g><text fill="#595959" font-family="Calibri,Calibri_MSFontService,sans-serif" font-weight="400" font-size="12" transform="translate(252.511 451)">-0.00005</text></g><g><text fill="#595959" font-family="Calibri,Calibri_MSFontService,sans-serif" font-weight="400" font-size="12" transform="translate(289.611 401)">0</text></g><g><text fill="#595959" font-family="Calibri,Calibri_MSFontService,sans-serif" font-weight="400" font-size="12" transform="translate(256.184 350)">0.00005</text></g><g><text fill="#595959" font-family="Calibri,Calibri_MSFontService,sans-serif" font-weight="400" font-size="12" transform="translate(262.264 300)">0.0001</text></g><g><text fill="#595959" font-family="Calibri,Calibri_MSFontService,sans-serif" font-weight="400" font-size="12" transform="translate(256.184 249)">0.00015</text></g><g><text fill="#595959" font-family="Calibri,Calibri_MSFontService,sans-serif" font-weight="400" font-size="12" transform="translate(262.264 199)">0.0002</text></g><g><text fill="#595959" font-family="Calibri,Calibri_MSFontService,sans-serif" font-weight="400" font-size="12" transform="translate(55.0475 416)">-1</text></g><g><text fill="#595959" font-family="Calibri,Calibri_MSFontService,sans-serif" font-weight="400" font-size="12" transform="translate(99.8738 416)">-0.8</text></g><g><text fill="#595959" font-family="Calibri,Calibri_MSFontService,sans-serif" font-weight="400" font-size="12" transform="translate(149.254 416)">-0.6</text></g><g><text fill="#595959" font-family="Calibri,Calibri_MSFontService,sans-serif" font-weight="400" font-size="12" transform="translate(198.633 416)">-0.4</text></g><g><text fill="#595959" font-family="Calibri,Calibri_MSFontService,sans-serif" font-weight="400" font-size="12" transform="translate(248.013 416)">-0.2</text></g><g><text fill="#595959" font-family="Calibri,Calibri_MSFontService,sans-serif" font-weight="400" font-size="12" transform="translate(303.783 416)">0</text></g><g><text fill="#595959" font-family="Calibri,Calibri_MSFontService,sans-serif" font-weight="400" font-size="12" transform="translate(348.609 416)">0.2</text></g><g><text fill="#595959" font-family="Calibri,Calibri_MSFontService,sans-serif" font-weight="400" font-size="12" transform="translate(397.989 416)">0.4</text></g><g><text fill="#595959" font-family="Calibri,Calibri_MSFontService,sans-serif" font-weight="400" font-size="12" transform="translate(447.369 416)">0.6</text></g><g><text fill="#595959" font-family="Calibri,Calibri_MSFontService,sans-serif" font-weight="400" font-size="12" transform="translate(496.749 416)">0.8</text></g><g><text fill="#595959" font-family="Calibri,Calibri_MSFontService,sans-serif" font-weight="400" font-size="12" transform="translate(550.682 416)">1</text></g></g></svg>