<svg width="481" height="289" xmlns="http://www.w3.org/2000/svg" xmlns:xlink="http://www.w3.org/1999/xlink" overflow="hidden"><defs><clipPath id="clip0"><rect x="116" y="162" width="481" height="289"/></clipPath></defs><g clip-path="url(#clip0)" transform="translate(-116 -162)"><g><path d="M0 0 0.000104987 259" stroke="#BFBFBF" stroke-linejoin="round" stroke-miterlimit="10" fill="none" fill-rule="evenodd" transform="matrix(1 0 0 -1 357.5 436.5)"/></g><g><path d="M136.5 325.5 578.5 325.5" stroke="#BFBFBF" stroke-linejoin="round" stroke-miterlimit="10" fill="none" fill-rule="evenodd"/></g><g><path d="M357.372 325.108C357.4 325.022 357.429 324.894 357.456 324.851 357.477 324.818 357.504 324.851 357.533 324.851 357.572 324.852 357.61 324.853 357.687 324.853 357.764 324.853 357.841 324.852 357.994 324.853 358.148 324.854 358.302 324.856 358.609 324.856 358.917 324.857 359.224 324.857 359.839 324.857 360.454 324.858 361.07 324.86 362.299 324.86 363.528 324.859 364.761 324.858 367.214 324.855 369.668 324.853 372.152 324.863 377.019 324.843 381.886 324.823 393.183 324.751 396.416 324.733M533.745 247.569C533.68 250.486 535 257.685 533.358 265.067 531.717 272.449 529.248 282.976 523.895 291.863 518.542 300.75 512.452 312.797 501.242 318.389 490.032 323.98 470.943 324.269 456.635 325.412 442.328 326.554 430.146 325.243 415.398 325.244 400.65 325.245 383.484 325.405 368.148 325.42 352.812 325.434 332.608 325.243 323.383 325.331 318.08 325.381 315.785 324.654 312.794 325.947 307.59 328.197 296.483 334.563 292.16 338.827 287.837 343.092 288.178 348.191 286.857 351.533 285.536 354.874 285.535 355.252 284.233 358.876 282.931 362.501 281.596 368.427 279.044 373.282 276.491 378.137 271.019 385.471 268.918 388.006 268.11 388.98 266.91 388.467 266.438 388.492 265.21 388.558 263.846 388.673 261.551 388.4 259.256 388.127 256.766 387.956 252.666 386.855 248.566 385.754 242.669 383.922 236.95 381.795 231.231 379.669 225.007 377.591 218.354 374.098 211.7 370.605 202.993 365.823 197.029 360.839 191.065 355.855 185.009 349.332 182.57 344.196 180.131 339.059 181.885 332.73 182.396 330.019 182.754 328.122 183.983 328.421 185.637 327.933 188 327.235 191.787 326.233 196.574 325.831 201.362 325.43 205.977 325.629 214.364 325.524 222.751 325.419 233.777 325.266 246.897 325.202 260.017 325.137 277.569 325.19 293.083 325.139 308.597 325.088 324.643 325.699 339.982 324.896 355.32 324.093 370.625 327.611 385.115 320.323 399.604 313.034 414.379 295.074 426.917 281.165 439.454 267.256 450.601 248.813 460.341 236.868 470.081 224.924 478.397 213.997 485.356 209.498 492.315 205 496.854 208.457 502.096 209.879 507.338 211.3 512.867 215.165 516.807 218.027 520.747 220.889 522.947 222.682 525.737 227.051 528.528 231.421 533.011 235.443 533.549 244.243 534.088 253.042 534.496 267.413 528.967 279.847 523.438 292.281 512.85 311.25 500.374 318.849 487.898 326.449 469.384 324.383 454.113 325.444 438.842 326.505 424.27 325.213 408.747 325.214 393.224 325.215 376.34 325.405 360.974 325.451 345.607 325.496 325.697 325.213 316.548 325.488 311.257 325.647 309.051 324.501 306.084 327.104 300.954 331.603 289.848 346.218 285.77 352.482 282.254 357.882 283.384 360.36 281.615 364.688 279.563 369.708 275.34 379.08 273.459 382.604 272.4 384.589 271.201 385.324 270.329 385.832 268.782 386.733 266.631 387.729 264.177 388.013 261.723 388.297 258.995 388.187 255.606 387.535 252.216 386.882 248.235 385.526 243.84 384.096 239.444 382.666 234.944 381.422 229.232 378.954 223.52 376.485 216.237 373.487 209.568 369.285 202.898 365.082 194.068 359.101 189.217 353.738 184.366 348.375 180.6 341.56 180.46 337.109 180.32 332.658 183.548 328.982 188.377 327.033 193.206 325.085 201.465 325.679 209.434 325.418 217.403 325.157 225.488 325.532 236.191 325.467 246.894 325.403 259.588 325.085 273.65 325.032 287.711 324.978 305.092 325.289 320.56 325.144 336.028 324.998 351.589 328.158 366.46 324.16 381.332 320.161 396.01 313.261 409.789 301.151 423.569 289.041 438.004 265.661 449.137 251.499 460.269 237.337 468.142 223.434 476.584 216.177 485.026 208.92 492.911 207.497 499.79 207.956 506.668 208.416 513.353 215.555 517.855 218.934 522.357 222.313 524.23 224.194 526.802 228.23 529.324 232.19 532.83 235.028 533.284 243.153 533.746 251.435 534.498 265.654 529.579 277.924 524.659 290.193 515.902 308.891 503.765 316.772 491.628 324.652 472.052 323.763 456.756 325.208 441.46 326.654 427.453 325.445 411.989 325.446 396.524 325.448 379.424 325.189 363.969 325.218 348.514 325.247 328.464 325.443 319.257 325.618 313.984 325.718 311.687 324.263 308.728 326.265 303.562 329.759 292.429 341.126 288.259 346.581 284.246 351.83 285.868 353.432 283.707 358.996 281.46 364.778 278.123 376.255 274.781 381.275 271.439 386.296 265.932 387.85 263.654 389.119 262.537 389.741 261.726 389.011 261.109 388.886 259.851 388.631 258.547 388.219 256.104 387.59 253.661 386.961 251.014 386.618 246.453 385.115 241.892 383.611 235.711 381.663 228.738 378.568 221.765 375.473 211.712 371.342 204.615 366.544 197.518 361.745 190.173 355.138 186.157 349.776 182.142 344.414 179.392 338.328 180.522 334.373 181.652 330.417 187.204 327.502 192.937 326.044 198.671 324.587 206.45 325.775 214.923 325.628 223.397 325.481 231.949 325.227 243.777 325.165 255.606 325.103 271.063 325.306 285.895 325.254 300.727 325.201 317.388 325.294 332.767 324.849 348.147 324.404 363.536 328.666 378.174 322.585 392.812 316.503 407.548 301.846 420.593 288.358 433.639 274.871 446.17 254.574 456.446 241.66 466.723 228.745 473.935 216.02 482.253 210.871 490.57 205.721 500.048 209.157 506.351 210.762 512.654 212.367 516.383 217.11 520.071 220.502 523.76 223.895 526.139 226.481 528.484 231.116 530.83 235.751 534.344 239.478 534.145 248.313 533.946 257.148 533.634 272.02 527.291 284.125 520.947 296.229 508.868 314.034 496.084 320.94 483.299 327.846 465.778 324.871 450.586 325.564 435.394 326.256 420.457 325.095 404.932 325.096 389.407 325.097 372.715 325.489 357.436 325.57 342.157 325.65 322.357 325.105 313.259 325.578 307.875 325.858 304.385 327.809 302.852 328.407 301.109 329.087 299.43 329.133 297.723 331.643 295.187 335.372 291.122 342.832 287.636 350.777 284.15 358.723 280.584 372.792 276.805 379.317 273.026 385.842 267.502 388.339 264.962 389.929 263.45 390.875 262.559 389.082 261.563 388.855 259.889 388.474 257.749 388.417 254.916 387.642 252.084 386.867 249.427 385.868 244.568 384.202 239.709 382.537 233.091 381.1 225.761 377.648 218.432 374.196 207.525 368.572 200.592 363.49 193.659 358.409 187.404 352.427 184.163 347.161 180.922 341.895 181.292 334.837 181.144 331.893 181.064 330.289 182.326 330.014 183.277 329.497 185.023 328.549 187.614 326.834 191.619 326.201 195.624 325.568 200.218 325.873 207.307 325.701 214.396 325.529 222.435 325.237 234.155 325.168 245.876 325.098 262.534 325.338 277.632 325.284 292.73 325.229 309.23 325.042 324.743 324.839 340.255 324.637 355.867 328.705 370.706 324.069 385.545 319.432 400.116 309.753 413.777 297.022 427.438 284.291 441.728 261.563 452.671 247.681 463.613 233.799 471.085 220.129 479.431 213.733 487.777 207.336 496.19 208.347 502.747 209.302 509.304 210.257 514.65 216.1 518.771 219.463 522.892 222.826 524.989 225.264 527.473 229.482 529.835 233.491 533.539 236.517 533.677 244.767 533.822 253.445 534.151 269.074 528.344 281.548 522.537 294.022 511.469 312.278 498.836 319.611 486.204 326.945 467.853 324.634 452.551 325.55 437.249 326.467 422.564 325.108 407.027 325.109 391.489 325.11 374.668 325.497 359.328 325.557 343.988 325.616 324.116 325.11 314.984 325.466 309.65 325.674 306.059 327.241 304.541 327.695 302.709 328.244 301.186 327.92 299.391 330.137 296.844 333.282 292.847 338.75 289.26 346.563 285.672 354.376 281.656 369.824 277.869 377.015 274.082 384.207 269.119 387.761 266.539 389.713 264.837 391 263.735 388.964 262.39 388.723 260.352 388.358 257.363 388.316 254.311 387.521 251.259 386.727 248.884 385.61 244.079 383.957 239.275 382.304 232.491 380.863 225.483 377.604 218.474 374.344 208.805 369.29 202.028 364.401 195.251 359.513 188.347 353.587 184.821 348.272 181.295 342.957 179 336.193 180.873 332.512 182.746 328.832 189.724 327.407 196.059 326.189 202.394 324.972 210.006 325.316 218.884 325.206 227.763 325.096 236.607 325.592 249.33 325.53 262.053 325.468 282.48 324.879 295.223 324.833 307.967 324.788 315.433 325.318 325.791 325.259 336.149 325.199 346.845 324.736 357.372 324.475" stroke="#4472C4" stroke-width="2" stroke-linecap="round" stroke-linejoin="round" stroke-miterlimit="10" fill="none"/></g><g><text fill="#595959" font-family="Calibri,Calibri_MSFontService,sans-serif" font-weight="400" font-size="12" transform="translate(303.178 439)">-0.00015</text></g><g><text fill="#595959" font-family="Calibri,Calibri_MSFontService,sans-serif" font-weight="400" font-size="12" transform="translate(309.258 402)">-0.0001</text></g><g><text fill="#595959" font-family="Calibri,Calibri_MSFontService,sans-serif" font-weight="400" font-size="12" transform="translate(303.178 365)">-0.00005</text></g><g><text fill="#595959" font-family="Calibri,Calibri_MSFontService,sans-serif" font-weight="400" font-size="12" transform="translate(340.278 328)">0</text></g><g><text fill="#595959" font-family="Calibri,Calibri_MSFontService,sans-serif" font-weight="400" font-size="12" transform="translate(306.851 291)">0.00005</text></g><g><text fill="#595959" font-family="Calibri,Calibri_MSFontService,sans-serif" font-weight="400" font-size="12" transform="translate(312.931 254)">0.0001</text></g><g><text fill="#595959" font-family="Calibri,Calibri_MSFontService,sans-serif" font-weight="400" font-size="12" transform="translate(306.851 217)">0.00015</text></g><g><text fill="#595959" font-family="Calibri,Calibri_MSFontService,sans-serif" font-weight="400" font-size="12" transform="translate(312.931 180)">0.0002</text></g><g><text fill="#595959" font-family="Calibri,Calibri_MSFontService,sans-serif" font-weight="400" font-size="12" transform="translate(131.238 344)">-1</text></g><g><text fill="#595959" font-family="Calibri,Calibri_MSFontService,sans-serif" font-weight="400" font-size="12" transform="translate(170.96 344)">-0.8</text></g><g><text fill="#595959" font-family="Calibri,Calibri_MSFontService,sans-serif" font-weight="400" font-size="12" transform="translate(215.235 344)">-0.6</text></g><g><text fill="#595959" font-family="Calibri,Calibri_MSFontService,sans-serif" font-weight="400" font-size="12" transform="translate(259.51 344)">-0.4</text></g><g><text fill="#595959" font-family="Calibri,Calibri_MSFontService,sans-serif" font-weight="400" font-size="12" transform="translate(303.785 344)">-0.2</text></g><g><text fill="#595959" font-family="Calibri,Calibri_MSFontService,sans-serif" font-weight="400" font-size="12" transform="translate(354.45 344)">0</text></g><g><text fill="#595959" font-family="Calibri,Calibri_MSFontService,sans-serif" font-weight="400" font-size="12" transform="translate(394.171 344)">0.2</text></g><g><text fill="#595959" font-family="Calibri,Calibri_MSFontService,sans-serif" font-weight="400" font-size="12" transform="translate(438.447 344)">0.4</text></g><g><text fill="#595959" font-family="Calibri,Calibri_MSFontService,sans-serif" font-weight="400" font-size="12" transform="translate(482.721 344)">0.6</text></g><g><text fill="#595959" font-family="Calibri,Calibri_MSFontService,sans-serif" font-weight="400" font-size="12" transform="translate(526.997 344)">0.8</text></g><g><text fill="#595959" font-family="Calibri,Calibri_MSFontService,sans-serif" font-weight="400" font-size="12" transform="translate(575.825 344)">1</text></g></g></svg>