<svg width="482" height="289" xmlns="http://www.w3.org/2000/svg" xmlns:xlink="http://www.w3.org/1999/xlink" overflow="hidden"><defs><clipPath id="clip0"><rect x="614" y="192" width="482" height="289"/></clipPath></defs><g clip-path="url(#clip0)" transform="translate(-614 -192)"><g><path d="M0 0 0.000104987 258" stroke="#BFBFBF" stroke-linejoin="round" stroke-miterlimit="10" fill="none" fill-rule="evenodd" transform="matrix(1 0 0 -1 855.5 465.5)"/></g><g><path d="M634.5 354.5 1077.5 354.5" stroke="#BFBFBF" stroke-linejoin="round" stroke-miterlimit="10" fill="none" fill-rule="evenodd"/></g><g><path d="M856.006 354.823C856.024 354.815 856.042 354.802 856.06 354.798 856.078 354.793 856.086 354.798 856.112 354.798 856.138 354.798 856.164 354.798 856.215 354.798 856.267 354.798 856.319 354.798 856.423 354.798 856.526 354.798 856.63 354.798 856.837 354.798 857.044 354.798 857.251 354.798 857.666 354.798 858.08 354.798 858.495 354.798 859.323 354.798 860.152 354.798 860.981 354.799 862.637 354.798 864.293 354.798 865.957 354.799 869.256 354.797 872.555 354.796 876.5 354.846 882.43 354.789 888.36 354.733 901.102 354.514 904.836 354.459M1032.7 278.19C1032.6 281.052 1034 287.677 1032.1 295.365 1030.2 303.053 1027.73 315.011 1021.3 324.32 1014.86 333.629 1005.01 346.113 993.495 351.221 981.984 356.328 966.264 354.384 952.233 354.968 938.202 355.55 924.306 354.717 909.311 354.718 894.315 354.719 877.513 354.939 862.259 354.973 847.004 355.008 825.198 354.932 817.785 354.924M782.422 391.132C780.99 394.506 777.178 406.71 773.833 411.378 770.488 416.045 765.893 418.282 762.352 419.138 758.811 419.994 755.908 417.375 752.586 416.512 749.264 415.649 746.304 415.264 742.419 413.96 738.534 412.656 735.181 411.24 729.277 408.689 723.373 406.139 714.092 403.132 706.995 398.657 699.897 394.181 691.385 387.232 686.692 381.837 681.999 376.441 678.776 370.53 678.835 366.285 678.893 362.039 682.206 358.138 687.043 356.365 691.88 354.591 699.978 355.88 707.859 355.642 715.739 355.405 723.614 354.993 734.327 354.941 745.041 354.889 758.011 355.375 772.139 355.331 786.268 355.288 803.61 354.808 819.098 354.68 834.585 354.552 850.172 358.636 865.065 354.562 879.957 350.489 894.656 342.516 908.455 330.241 922.253 317.965 936.752 295.104 947.853 280.909 958.955 266.714 966.67 252.201 975.064 245.071 983.458 237.94 991.38 237.62 998.217 238.124 1005.05 238.628 1011.6 244.789 1016.09 248.094 1020.58 251.4 1022.52 253.979 1025.16 257.959 1027.81 261.938 1031.17 264.305 1031.94 271.971 1032.71 279.636 1033.35 292.851 1029.8 303.95 1026.26 315.049 1019.56 330.115 1010.65 338.564 1001.75 347.013 989.074 351.966 976.366 354.644 963.659 357.321 948.996 354.56 934.408 354.629 919.821 354.699 904.115 355.061 888.841 355.062 873.566 355.062 857.623 354.003 842.762 354.633 827.902 355.262 808.55 356.009 799.678 358.839 791.915 361.315 791.737 367.795 789.531 371.614 787.009 375.98 787.005 378.653 784.548 385.031 782.091 391.41 778.33 404.177 774.787 409.884 771.244 415.591 765.652 417.86 763.292 419.276 762.084 420 761.298 418.519 760.623 418.377 759.305 418.101 757.936 418.277 755.378 417.616 752.82 416.954 750.039 415.976 745.276 414.408 740.512 412.839 733.981 411.406 726.797 408.207 719.612 405.007 709.277 400.068 702.168 395.21 695.058 390.351 687.993 384.373 684.139 379.053 680.285 373.734 678 367.097 679.043 363.294 680.085 359.492 684.932 357.59 690.394 356.238 695.856 354.885 703.606 355.328 711.814 355.179 720.021 355.03 728.072 355.394 739.641 355.344 751.21 355.294 766.471 354.921 781.228 354.878 795.985 354.835 812.755 355.405 828.184 355.088 843.613 354.771 859.078 358.594 873.801 352.977 888.525 347.36 903.244 334.753 916.525 321.385 929.807 308.017 943.002 286.08 953.489 272.771 963.977 259.462 971.17 247.063 979.45 241.532 987.73 236 996.798 238.211 1003.17 239.58 1009.54 240.95 1013.81 246.454 1017.68 249.75 1021.55 253.046 1023.89 254.963 1026.39 259.354 1028.89 263.744 1032.4 267.884 1032.69 276.094 1032.98 284.304 1032.46 297.488 1028.13 308.614 1023.81 319.74 1016.32 335.189 1006.73 342.852 997.136 350.514 983.564 352.576 970.572 354.589 957.58 356.602 941.667 354.901 928.776 354.93 915.884 354.959 905.349 354.761 893.221 354.761 881.093 354.761 868.411 354.874 856.006 354.931" stroke="#4472C4" stroke-width="2" stroke-linecap="round" stroke-linejoin="round" stroke-miterlimit="10" fill="none"/></g><g><text fill="#595959" font-family="Calibri,Calibri_MSFontService,sans-serif" font-weight="400" font-size="12" transform="translate(801.463 468)">-0.00015</text></g><g><text fill="#595959" font-family="Calibri,Calibri_MSFontService,sans-serif" font-weight="400" font-size="12" transform="translate(807.543 431)">-0.0001</text></g><g><text fill="#595959" font-family="Calibri,Calibri_MSFontService,sans-serif" font-weight="400" font-size="12" transform="translate(801.463 395)">-0.00005</text></g><g><text fill="#595959" font-family="Calibri,Calibri_MSFontService,sans-serif" font-weight="400" font-size="12" transform="translate(838.563 358)">0</text></g><g><text fill="#595959" font-family="Calibri,Calibri_MSFontService,sans-serif" font-weight="400" font-size="12" transform="translate(805.137 321)">0.00005</text></g><g><text fill="#595959" font-family="Calibri,Calibri_MSFontService,sans-serif" font-weight="400" font-size="12" transform="translate(811.217 284)">0.0001</text></g><g><text fill="#595959" font-family="Calibri,Calibri_MSFontService,sans-serif" font-weight="400" font-size="12" transform="translate(805.137 247)">0.00015</text></g><g><text fill="#595959" font-family="Calibri,Calibri_MSFontService,sans-serif" font-weight="400" font-size="12" transform="translate(811.217 210)">0.0002</text></g><g><text fill="#595959" font-family="Calibri,Calibri_MSFontService,sans-serif" font-weight="400" font-size="12" transform="translate(629.398 373)">-1</text></g><g><text fill="#595959" font-family="Calibri,Calibri_MSFontService,sans-serif" font-weight="400" font-size="12" transform="translate(669.144 373)">-0.8</text></g><g><text fill="#595959" font-family="Calibri,Calibri_MSFontService,sans-serif" font-weight="400" font-size="12" transform="translate(713.445 373)">-0.6</text></g><g><text fill="#595959" font-family="Calibri,Calibri_MSFontService,sans-serif" font-weight="400" font-size="12" transform="translate(757.745 373)">-0.4</text></g><g><text fill="#595959" font-family="Calibri,Calibri_MSFontService,sans-serif" font-weight="400" font-size="12" transform="translate(802.045 373)">-0.2</text></g><g><text fill="#595959" font-family="Calibri,Calibri_MSFontService,sans-serif" font-weight="400" font-size="12" transform="translate(852.735 373)">0</text></g><g><text fill="#595959" font-family="Calibri,Calibri_MSFontService,sans-serif" font-weight="400" font-size="12" transform="translate(892.482 373)">0.2</text></g><g><text fill="#595959" font-family="Calibri,Calibri_MSFontService,sans-serif" font-weight="400" font-size="12" transform="translate(936.783 373)">0.4</text></g><g><text fill="#595959" font-family="Calibri,Calibri_MSFontService,sans-serif" font-weight="400" font-size="12" transform="translate(981.083 373)">0.6</text></g><g><text fill="#595959" font-family="Calibri,Calibri_MSFontService,sans-serif" font-weight="400" font-size="12" transform="translate(1025.38 373)">0.8</text></g><g><text fill="#595959" font-family="Calibri,Calibri_MSFontService,sans-serif" font-weight="400" font-size="12" transform="translate(1074.24 373)">1</text></g></g></svg>